{
classes = (
{
automatic = 1;
code = "A Aacute Abreve Acircumflex Adieresis Agrave Amacron Aogonek Aring Atilde AE B C Cacute Ccaron Ccedilla Cdotaccent D Eth Dcaron Dcroat E Eacute Ecaron Ecircumflex Edieresis Edotaccent Egrave Emacron Eogonek F G Gbreve Gcommaaccent Gdotaccent H Hbar I IJ Iacute Icircumflex Idieresis Idotaccent Igrave Imacron Iogonek J K Kcommaaccent L Lacute Lcaron Lcommaaccent Ldot Lslash M N Nacute Ncaron Ncommaaccent Eng Ntilde O Oacute Ocircumflex Odieresis Ograve Ohungarumlaut Omacron Oslash Otilde OE P Thorn Q R Racute Rcaron Rcommaaccent S Sacute Scaron Scedilla Scommaaccent T Tbar Tcaron Tcedilla Tcommaaccent U Uacute Ucircumflex Udieresis Ugrave Uhungarumlaut Umacron Uogonek Uring V W Wacute Wcircumflex Wdieresis Wgrave X Y Yacute Ycircumflex Ydieresis Ygrave Z Zacute Zcaron Zdotaccent A.ss01 E.ss01 M.ss01 N.ss01 Q.ss01 R.ss01 U.ss01 W.ss01";
name = Uppercase;
}
);
copyright = "Copyright \U00A9 2013 by Andrew Paglinawan. All rights reserved.";
customParameters = (
{
name = description;
value = "Copyright \U00A9 2013 by Andrew Paglinawan. All rights reserved.";
},
{
name = vendorID;
value = AP;
},
{
name = licenseURL;
value = "http://scripts.sil.org/OFL_web";
}
);
date = "2013-10-21 08:17:31 +0000";
designer = "Andrew Paglinawan";
designerURL = www.andrewpaglinawan.com;
familyName = "Quicksand Pro";
featurePrefixes = (
{
automatic = 1;
code = "languagesystem DFLT dflt;\012languagesystem grek dflt;\012languagesystem latn dflt;\012languagesystem latn CAT;\012languagesystem latn ROM;\012languagesystem latn MOL;\012languagesystem latn TRK;\012";
name = Languagesystems;
}
);
features = (
{
automatic = 1;
code = "feature locl;\012feature sups;\012feature frac;\012feature ordn;\012feature case;\012feature salt;\012";
name = aalt;
},
{
automatic = 1;

glyphs = (
{
glyphname = A;
lastChange = "2013-12-18 08:31:18 +0400";
layers = (
{
anchors = (
{
name = ogonek;
position = "{478, 10}";
},
{
name = top;
position = "{384, 700}";
}
);
layerId = "9764FC2E-EF50-4B10-BB5F-6BAA27A55E88";
name = Regular;
paths = (
{
closed = 1;
nodes = (
"413 679 LINE SMOOTH",
"410 694 OFFCURVE",
"399 702 OFFCURVE",
"386 702 CURVE",
"370 704 OFFCURVE",
"355 695 OFFCURVE",
"346 679 CURVE SMOOTH",
"-43 45 LINE SMOOTH",
"-55 26 OFFCURVE",
"-50 7 OFFCURVE",
"-33 0 CURVE SMOOTH",
"-15 -7 OFFCURVE",
"6 1 OFFCURVE",
"17 21 CURVE SMOOTH",
"95 152 LINE SMOOTH",
"97 155 OFFCURVE",
"99 156 OFFCURVE",
"102 156 CURVE SMOOTH",
"433 156 LINE SMOOTH",
"436 156 OFFCURVE",
"438 155 OFFCURVE",
"438 152 CURVE SMOOTH",
"460 21 LINE SMOOTH",
"464 2 OFFCURVE",
"481 -7 OFFCURVE",
"501 0 CURVE SMOOTH",
"522 7 OFFCURVE",
"535 27 OFFCURVE",
"531 46 CURVE SMOOTH"
);
},
{
closed = 1;
nodes = (
"146 226 LINE SMOOTH",
"142 226 OFFCURVE",
"140 228 OFFCURVE",
"143 232 CURVE SMOOTH",
"350 563 LINE SMOOTH",
"353 567 OFFCURVE",
"356 567 OFFCURVE",
"357 563 CURVE SMOOTH",
"424 232 LINE SMOOTH",
"425 228 OFFCURVE",
"423 226 OFFCURVE",
"419 226 CURVE SMOOTH"
);
}
);
width = 596.721;
}
);
leftKerningGroup = A;
rightKerningGroup = dollar;
unicode = 0041;
},
{
glyphname = AE;
lastChange = "2013-12-18 08:31:18 +0400";
layers = (
{
anchors = (
{
name = bottom;
position = "{612, 0}";
},
{
name = ogonek;
position = "{839, 10}";
},
{
name = top;
position = "{698, 700}";
}
);
layerId = "9764FC2E-EF50-4B10-BB5F-6BAA27A55E88";
name = Regular;
paths = (
{
closed = 1;
nodes = (
"503 70 LINE SMOOTH",
"500 70 OFFCURVE",
"498 72 OFFCURVE",
"498 75 CURVE SMOOTH",
"522 270 LINE SMOOTH",
"523 273 OFFCURVE",
"525 275 OFFCURVE",
"528 275 CURVE SMOOTH",
"800 275 LINE SMOOTH",
"821 275 OFFCURVE",
"838 290 OFFCURVE",
"840 310 CURVE SMOOTH",
"843 330 OFFCURVE",
"829 345 OFFCURVE",
"808 345 CURVE SMOOTH",
"536 345 LINE SMOOTH",
"533 345 OFFCURVE",
"532 347 OFFCURVE",
"532 350 CURVE SMOOTH",
"566 625 LINE SMOOTH",
"566 628 OFFCURVE",
"568 630 OFFCURVE",
"571 630 CURVE SMOOTH",
"886 630 LINE SMOOTH",
"907 630 OFFCURVE",
"924 645 OFFCURVE",
"927 665 CURVE SMOOTH",
"929 685 OFFCURVE",
"916 700 OFFCURVE",
"895 700 CURVE SMOOTH",
"540 700 LINE",
"537 700 LINE SMOOTH",
"532 700 OFFCURVE",
"526 698 OFFCURVE",
"520 695 CURVE",
"515 691 LINE",
"513 689 OFFCURVE",
"510 687 OFFCURVE",
"508 684 CURVE SMOOTH",
"-9 56 LINE SMOOTH",
"-24 38 OFFCURVE",
"-23 18 OFFCURVE",
"-7 6 CURVE SMOOTH",
"8 -6 OFFCURVE",
"29 -2 OFFCURVE",
"43 15 CURVE SMOOTH",
"162 160 LINE SMOOTH",
"164 162 OFFCURVE",
"166 163 OFFCURVE",
"168 163 CURVE SMOOTH",
"434 163 LINE SMOOTH",
"437 163 OFFCURVE",
"439 161 OFFCURVE",
"438 158 CURVE SMOOTH",
"424 36 LINE SMOOTH",
"421 15 OFFCURVE",
"434 0 OFFCURVE",
"454 0 CURVE SMOOTH",
"809 0 LINE SMOOTH",
"830 0 OFFCURVE",
"847 15 OFFCURVE",
"849 35 CURVE SMOOTH",
"852 55 OFFCURVE",
"839 70 OFFCURVE",
"818 70 CURVE SMOOTH"
);
},
{
closed = 1;
nodes = (
"230 233 LINE SMOOTH",
"226 233 OFFCURVE",
"224 236 OFFCURVE",
"227 239 CURVE SMOOTH",
"487 555 LINE",
"448 238 LINE SMOOTH",
"448 235 OFFCURVE",
"446 233 OFFCURVE",
"443 233 CURVE SMOOTH"
);
}
);
width = 938;
}
);
leftMetricsKey = A;
rightMetricsKey = E;
unicode = 00C6;
},
{
glyphname = B;
lastChange = "2013-12-18 08:31:18 +0400";
layers = (
{
layerId = "9764FC2E-EF50-4B10-BB5F-6BAA27A55E88";
name = Regular;
paths = (
{
closed = 1;
nodes = (
"209 700 LINE SMOOTH",
"188 700 OFFCURVE",
"170 685 OFFCURVE",
"166 664 CURVE SMOOTH",
"32 36 LINE SMOOTH",
"28 15 OFFCURVE",
"40 0 OFFCURVE",
"61 0 CURVE SMOOTH",
"262 0 LINE SMOOTH",
"385 0 OFFCURVE",
"502 78 OFFCURVE",
"528 201 CURVE SMOOTH",
"547 289 OFFCURVE",
"510 355 OFFCURVE",
"441 385 CURVE SMOOTH",
"439 387 OFFCURVE",
"438 389 OFFCURVE",
"442 392 CURVE SMOOTH",
"481 424 OFFCURVE",
"510 468 OFFCURVE",
"521 519 CURVE SMOOTH",
"544 627 OFFCURVE",
"470 700 OFFCURVE",
"363 700 CURVE SMOOTH"
);
},
{
closed = 1;
nodes = (
"349 630 LINE SMOOTH",
"419 630 OFFCURVE",
"466 590 OFFCURVE",
"451 519 CURVE SMOOTH",
"436 449 OFFCURVE",
"370 404 OFFCURVE",
"300 404 CURVE SMOOTH",
"185 404 LINE SMOOTH",
"182 404 OFFCURVE",
"181 406 OFFCURVE",
"182 409 CURVE SMOOTH",
"227 625 LINE SMOOTH",
"228 628 OFFCURVE",
"231 630 OFFCURVE",
"234 630 CURVE SMOOTH"
);
},
{
closed = 1;
nodes = (
"114 70 LINE SMOOTH",
"111 70 OFFCURVE",
"110 72 OFFCURVE",
"111 75 CURVE SMOOTH",
"165 329 LINE SMOOTH",
"165 332 OFFCURVE",
"168 334 OFFCURVE",
"171 334 CURVE SMOOTH",
"333 334 LINE SMOOTH",
"419 334 OFFCURVE",
"476 286 OFFCURVE",
"458 201 CURVE SMOOTH",
"440 115 OFFCURVE",
"362 70 OFFCURVE",
"276 70 CURVE SMOOTH"
);
}
);
width = 569.959;
}
);
leftKerningGroup = B;
rightKerningGroup = B;
unicode = 0042;
},
{
glyphname = C;
lastChange = "2013-12-18 08:31:18 +0400";
layers = (
{
anchors = (
{
name = bottom;
position = "{311, 0}";
},
{
name = top;
position = "{385, 700}";
}
);
layerId = "9764FC2E-EF50-4B10-BB5F-6BAA27A55E88";
name = Regular;
paths = (
{
closed = 1;
nodes = (
"617 689 OFFCURVE",
"551 710 OFFCURVE",
"477 710 CURVE SMOOTH",
"273 710 OFFCURVE",
"90 549 OFFCURVE",
"69 350 CURVE SMOOTH",
"48 151 OFFCURVE",
"195 -10 OFFCURVE",
"399 -10 CURVE SMOOTH",
"473 -10 OFFCURVE",
"544 11 OFFCURVE",
"606 47 CURVE SMOOTH",
"626 59 OFFCURVE",
"631 82 OFFCURVE",
"619 99 CURVE SMOOTH",
"609 114 OFFCURVE",
"591 116 OFFCURVE",
"573 105 CURVE SMOOTH",
"523 76 OFFCURVE",
"467 60 OFFCURVE",
"406 60 CURVE SMOOTH",
"240 60 OFFCURVE",
"122 190 OFFCURVE",
"139 350 CURVE SMOOTH",
"156 509 OFFCURVE",
"304 640 OFFCURVE",
"470 640 CURVE SMOOTH",
"531 640 OFFCURVE",
"581 624 OFFCURVE",
"625 595 CURVE SMOOTH",
"641 584 OFFCURVE",
"659 586 OFFCURVE",
"673 601 CURVE SMOOTH",
"688 618 OFFCURVE",
"688 641 OFFCURVE",
"670 653 CURVE SMOOTH"
);
}
);
width = 709.349;
}
);
leftKerningGroup = C;
rightKerningGroup = C;
unicode = 0043;
},
{
glyphname = D;
lastChange = "2013-12-18 08:31:18 +0400";
layers = (
{
anchors = (
{
name = center;
position = "{345, 350}";
},
{
name = top;
position = "{419, 700}";
}
);
layerId = "9764FC2E-EF50-4B10-BB5F-6BAA27A55E88";
name = Regular;
paths = (
{
closed = 1;
nodes = (
"209 700 LINE SMOOTH",
"188 700 OFFCURVE",
"170 685 OFFCURVE",
"166 664 CURVE SMOOTH",
"32 36 LINE SMOOTH",
"28 15 OFFCURVE",
"40 0 OFFCURVE",
"61 0 CURVE SMOOTH",
"235 0 LINE SMOOTH",
"448 0 OFFCURVE",
"582 127 OFFCURVE",
"629 350 CURVE SMOOTH",
"676 573 OFFCURVE",
"596 700 OFFCURVE",
"383 700 CURVE SMOOTH"
);
},
{
closed = 1;
nodes = (
"115 70 LINE SMOOTH",
"112 70 OFFCURVE",
"111 72 OFFCURVE",
"112 75 CURVE SMOOTH",
"228 625 LINE SMOOTH",
"229 628 OFFCURVE",
"232 630 OFFCURVE",
"235 630 CURVE SMOOTH",
"369 630 LINE SMOOTH",
"543 630 OFFCURVE",
"598 535 OFFCURVE",
"559 350 CURVE SMOOTH",
"520 165 OFFCURVE",
"423 70 OFFCURVE",
"249 70 CURVE SMOOTH"
);
}
);
width = 684.008;
}
);
leftKerningGroup = B;
rightKerningGroup = D;
unicode = 0044;
},
{
glyphname = Eth;
lastChange = "2013-12-18 08:31:18 +0400";
layers = (
{
anchors = (
{
name = center;
position = "{347, 350}";
},
{
name = top;
position = "{421, 700}";
}
);
layerId = "9764FC2E-EF50-4B10-BB5F-6BAA27A55E88";
name = Regular;
paths = (
{
closed = 1;
nodes = (
"211 700 LINE SMOOTH",
"190 700 OFFCURVE",
"172 685 OFFCURVE",
"168 664 CURVE SMOOTH",
"111 396 LINE SMOOTH",
"110 393 OFFCURVE",
"108 391 OFFCURVE",
"105 391 CURVE SMOOTH",
"74 391 LINE SMOOTH",
"50 391 OFFCURVE",
"29 374 OFFCURVE",
"24 351 CURVE SMOOTH",
"19 327 OFFCURVE",
"32 310 OFFCURVE",
"56 310 CURVE SMOOTH",
"87 310 LINE SMOOTH",
"90 310 OFFCURVE",
"92 308 OFFCURVE",
"91 305 CURVE SMOOTH",
"34 36 LINE SMOOTH",
"30 15 OFFCURVE",
"42 0 OFFCURVE",
"63 0 CURVE SMOOTH",
"237 0 LINE SMOOTH",
"450 0 OFFCURVE",
"584 127 OFFCURVE",
"631 350 CURVE SMOOTH",
"678 573 OFFCURVE",
"598 700 OFFCURVE",
"385 700 CURVE SMOOTH"
);
},
{
closed = 1;
nodes = (
"117 70 LINE SMOOTH",
"114 70 OFFCURVE",
"113 72 OFFCURVE",
"114 75 CURVE SMOOTH",
"162 305 LINE SMOOTH",
"163 308 OFFCURVE",
"165 310 OFFCURVE",
"168 310 CURVE SMOOTH",
"252 310 LINE SMOOTH",
"276 310 OFFCURVE",
"297 327 OFFCURVE",
"302 351 CURVE SMOOTH",
"307 374 OFFCURVE",
"294 391 OFFCURVE",
"270 391 CURVE SMOOTH",
"186 391 LINE SMOOTH",
"183 391 OFFCURVE",
"181 393 OFFCURVE",
"182 396 CURVE SMOOTH",
"230 625 LINE SMOOTH",
"231 628 OFFCURVE",
"234 630 OFFCURVE",
"237 630 CURVE SMOOTH",
"371 630 LINE SMOOTH",
"545 630 OFFCURVE",
"600 535 OFFCURVE",
"561 350 CURVE SMOOTH",
"522 165 OFFCURVE",
"425 70 OFFCURVE",
"251 70 CURVE SMOOTH"
);
}
);
width = 669;
}
);
unicode = 00D0;
},
{
glyphname = E;
lastChange = "2013-12-18 08:31:18 +0400";
layers = (
{
anchors = (
{
name = bottom;
position = "{218, 0}";
},
{
name = ogonek;
position = "{446, 10}";
},
{
name = top;
position = "{366, 700}";
}
);
layerId = "9764FC2E-EF50-4B10-BB5F-6BAA27A55E88";
name = Regular;
paths = (
{
closed = 1;
nodes = (
"114 70 LINE SMOOTH",
"111 70 OFFCURVE",
"110 72 OFFCURVE",
"111 75 CURVE SMOOTH",
"152 270 LINE SMOOTH",
"153 273 OFFCURVE",
"155 275 OFFCURVE",
"158 275 CURVE SMOOTH",
"430 275 LINE SMOOTH",
"451 275 OFFCURVE",
"469 290 OFFCURVE",
"473 310 CURVE SMOOTH",
"478 330 OFFCURVE",
"466 345 OFFCURVE",
"445 345 CURVE SMOOTH",
"173 345 LINE SMOOTH",
"170 345 OFFCURVE",
"168 347 OFFCURVE",
"169 350 CURVE SMOOTH",
"227 625 LINE SMOOTH",
"228 628 OFFCURVE",
"231 630 OFFCURVE",
"234 630 CURVE SMOOTH",
"549 630 LINE SMOOTH",
"570 630 OFFCURVE",
"588 645 OFFCURVE",
"592 665 CURVE SMOOTH",
"596 685 OFFCURVE",
"584 700 OFFCURVE",
"563 700 CURVE SMOOTH",
"208 700 LINE SMOOTH",
"188 700 OFFCURVE",
"170 685 OFFCURVE",
"166 664 CURVE SMOOTH",
"32 36 LINE SMOOTH",
"28 15 OFFCURVE",
"40 0 OFFCURVE",
"60 0 CURVE SMOOTH",
"415 0 LINE SMOOTH",
"436 0 OFFCURVE",
"454 15 OFFCURVE",
"458 35 CURVE SMOOTH",
"462 55 OFFCURVE",
"450 70 OFFCURVE",
"429 70 CURVE SMOOTH"
);
}
);
width = 571.764;
}
);
leftKerningGroup = B;
rightKerningGroup = E;
unicode = 0045;
},
{
glyphname = F;
lastChange = "2013-12-18 08:31:18 +0400";
layers = (
{
layerId = "9764FC2E-EF50-4B10-BB5F-6BAA27A55E88";
name = Regular;
paths = (
{
closed = 1;
nodes = (
"208 700 LINE SMOOTH",
"188 700 OFFCURVE",
"170 685 OFFCURVE",
"166 664 CURVE SMOOTH",
"32 36 LINE SMOOTH",
"28 15 OFFCURVE",
"40 0 OFFCURVE",
"60 0 CURVE SMOOTH",
"80 0 OFFCURVE",
"98 15 OFFCURVE",
"102 36 CURVE SMOOTH",
"152 270 LINE SMOOTH",
"153 273 OFFCURVE",
"155 275 OFFCURVE",
"158 275 CURVE SMOOTH",
"430 275 LINE SMOOTH",
"451 275 OFFCURVE",
"469 290 OFFCURVE",
"473 310 CURVE SMOOTH",
"478 330 OFFCURVE",
"466 345 OFFCURVE",
"445 345 CURVE SMOOTH",
"173 345 LINE SMOOTH",
"170 345 OFFCURVE",
"168 347 OFFCURVE",
"169 350 CURVE SMOOTH",
"227 625 LINE SMOOTH",
"228 628 OFFCURVE",
"231 630 OFFCURVE",
"234 630 CURVE SMOOTH",
"549 630 LINE SMOOTH",
"570 630 OFFCURVE",
"588 645 OFFCURVE",
"592 665 CURVE SMOOTH",
"596 685 OFFCURVE",
"584 700 OFFCURVE",
"563 700 CURVE SMOOTH"
);
}
);
width = 549.764;
}
);
leftKerningGroup = B;
rightKerningGroup = F;
unicode = 0046;
},
{
glyphname = G;
lastChange = "2013-12-18 08:31:18 +0400";
layers = (
{
anchors = (
{
name = bottom;
position = "{329, 0}";
},
{
name = top;
position = "{403, 700}";
}
);
layerId = "9764FC2E-EF50-4B10-BB5F-6BAA27A55E88";
name = Regular;
paths = (
{
closed = 1;
nodes = (
"474 342 LINE SMOOTH",
"453 342 OFFCURVE",
"436 327 OFFCURVE",
"435 307 CURVE SMOOTH",
"433 287 OFFCURVE",
"445 272 OFFCURVE",
"466 272 CURVE SMOOTH",
"586 272 LINE SMOOTH",
"589 272 OFFCURVE",
"591 270 OFFCURVE",
"591 267 CURVE SMOOTH",
"574 109 LINE SMOOTH",
"574 106 OFFCURVE",
"573 104 OFFCURVE",
"570 103 CURVE SMOOTH",
"519 72 OFFCURVE",
"470 60 OFFCURVE",
"406 60 CURVE SMOOTH",
"240 60 OFFCURVE",
"122 191 OFFCURVE",
"139 350 CURVE SMOOTH",
"156 510 OFFCURVE",
"304 640 OFFCURVE",
"470 640 CURVE SMOOTH",
"531 640 OFFCURVE",
"580 625 OFFCURVE",
"624 596 CURVE SMOOTH",
"640 585 OFFCURVE",
"660 587 OFFCURVE",
"674 603 CURVE SMOOTH",
"674 604 LINE SMOOTH",
"689 620 OFFCURVE",
"687 642 OFFCURVE",
"671 654 CURVE SMOOTH",
"617 689 OFFCURVE",
"551 710 OFFCURVE",
"477 710 CURVE SMOOTH",
"273 710 OFFCURVE",
"90 549 OFFCURVE",
"69 350 CURVE SMOOTH",
"48 151 OFFCURVE",
"195 -10 OFFCURVE",
"399 -10 CURVE SMOOTH",
"480 -10 OFFCURVE",
"556 10 OFFCURVE",
"628 63 CURVE SMOOTH",
"636 69 OFFCURVE",
"641 77 OFFCURVE",
"642 86 CURVE SMOOTH",
"666 306 LINE SMOOTH",
"667 327 OFFCURVE",
"654 342 OFFCURVE",
"633 342 CURVE SMOOTH"
);
}
);
width = 758.652;
}
);
leftKerningGroup = C;
rightKerningGroup = G;
unicode = 0047;
},
{
glyphname = H;
lastChange = "2013-12-18 08:31:18 +0400";
layers = (
{
anchors = (
{
name = center;
position = "{359, 350}";
},
{
name = top;
position = "{433, 700}";
}
);
layerId = "9764FC2E-EF50-4B10-BB5F-6BAA27A55E88";
name = Regular;
paths = (
{
closed = 1;
nodes = (
"637 700 OFFCURVE",
"619 685 OFFCURVE",
"615 664 CURVE SMOOTH",
"548 351 LINE SMOOTH",
"548 348 OFFCURVE",
"545 346 OFFCURVE",
"542 346 CURVE SMOOTH",
"173 346 LINE SMOOTH",
"170 346 OFFCURVE",
"169 348 OFFCURVE",
"169 351 CURVE SMOOTH",
"236 664 LINE SMOOTH",
"240 685 OFFCURVE",
"229 700 OFFCURVE",
"209 700 CURVE SMOOTH",
"188 700 OFFCURVE",
"170 685 OFFCURVE",
"166 664 CURVE SMOOTH",
"32 36 LINE SMOOTH",
"28 15 OFFCURVE",
"39 0 OFFCURVE",
"59 0 CURVE SMOOTH",
"80 0 OFFCURVE",
"98 15 OFFCURVE",
"102 36 CURVE SMOOTH",
"152 271 LINE SMOOTH",
"153 274 OFFCURVE",
"155 276 OFFCURVE",
"158 276 CURVE SMOOTH",
"527 276 LINE SMOOTH",
"530 276 OFFCURVE",
"532 274 OFFCURVE",
"531 271 CURVE SMOOTH",
"481 36 LINE SMOOTH",
"477 15 OFFCURVE",
"488 0 OFFCURVE",
"508 0 CURVE SMOOTH",
"529 0 OFFCURVE",
"547 15 OFFCURVE",
"551 36 CURVE SMOOTH",
"685 664 LINE SMOOTH",
"689 685 OFFCURVE",
"677 700 OFFCURVE",
"657 700 CURVE SMOOTH"
);
}
);
width = 697.766;
}
);
leftKerningGroup = B;
rightKerningGroup = H;
unicode = 0048;
},
{
glyphname = Hbar;
lastChange = "2013-12-18 08:31:18 +0400";
layers = (
{
anchors = (
{
name = center;
position = "{393, 350}";
},
{
name = top;
position = "{467, 700}";
}
);
layerId = "9764FC2E-EF50-4B10-BB5F-6BAA27A55E88";
name = Regular;
paths = (
{
closed = 1;
nodes = (
"698 544 LINE SMOOTH",
"695 544 OFFCURVE",
"694 546 OFFCURVE",
"694 549 CURVE SMOOTH",
"719 664 LINE SMOOTH",
"723 685 OFFCURVE",
"711 700 OFFCURVE",
"691 700 CURVE SMOOTH",
"671 700 OFFCURVE",
"653 685 OFFCURVE",
"649 664 CURVE SMOOTH",
"624 549 LINE SMOOTH",
"624 546 OFFCURVE",
"621 544 OFFCURVE",
"618 544 CURVE SMOOTH",
"249 544 LINE SMOOTH",
"246 544 OFFCURVE",
"245 546 OFFCURVE",
"245 549 CURVE SMOOTH",
"270 664 LINE SMOOTH",
"274 685 OFFCURVE",
"263 700 OFFCURVE",
"243 700 CURVE SMOOTH",
"222 700 OFFCURVE",
"204 685 OFFCURVE",
"200 664 CURVE SMOOTH",
"175 549 LINE SMOOTH",
"175 546 OFFCURVE",
"172 544 OFFCURVE",
"169 544 CURVE SMOOTH",
"127 544 LINE SMOOTH",
"106 544 OFFCURVE",
"88 529 OFFCURVE",
"84 509 CURVE SMOOTH",
"80 489 OFFCURVE",
"91 474 OFFCURVE",
"112 474 CURVE SMOOTH",
"154 474 LINE SMOOTH",
"157 474 OFFCURVE",
"159 472 OFFCURVE",
"158 469 CURVE SMOOTH",
"66 36 LINE SMOOTH",
"62 15 OFFCURVE",
"73 0 OFFCURVE",
"93 0 CURVE SMOOTH",
"114 0 OFFCURVE",
"132 15 OFFCURVE",
"136 36 CURVE SMOOTH",
"186 271 LINE SMOOTH",
"187 274 OFFCURVE",
"189 276 OFFCURVE",
"192 276 CURVE SMOOTH",
"561 276 LINE SMOOTH",
"564 276 OFFCURVE",
"566 274 OFFCURVE",
"565 271 CURVE SMOOTH",
"515 36 LINE SMOOTH",
"511 15 OFFCURVE",
"522 0 OFFCURVE",
"542 0 CURVE SMOOTH",
"563 0 OFFCURVE",
"581 15 OFFCURVE",
"585 36 CURVE SMOOTH",
"677 469 LINE SMOOTH",
"678 472 OFFCURVE",
"680 474 OFFCURVE",
"683 474 CURVE SMOOTH",
"725 474 LINE SMOOTH",
"746 474 OFFCURVE",
"765 489 OFFCURVE",
"769 509 CURVE SMOOTH",
"773 529 OFFCURVE",
"761 544 OFFCURVE",
"740 544 CURVE SMOOTH"
);
},
{
closed = 1;
nodes = (
"582 351 LINE SMOOTH",
"582 348 OFFCURVE",
"579 346 OFFCURVE",
"576 346 CURVE SMOOTH",
"207 346 LINE SMOOTH",
"204 346 OFFCURVE",
"203 348 OFFCURVE",
"203 351 CURVE SMOOTH",
"228 469 LINE SMOOTH",
"229 472 OFFCURVE",
"231 474 OFFCURVE",
"234 474 CURVE SMOOTH",
"603 474 LINE SMOOTH",
"606 474 OFFCURVE",
"608 472 OFFCURVE",
"607 469 CURVE SMOOTH"
);
}
);
width = 785;
}
);
unicode = 0126;
},
{
glyphname = I;
lastChange = "2013-12-18 08:31:18 +0400";
layers = (
{
anchors = (
{
name = ogonek;
position = "{165, 10}";
},
{
name = top;
position = "{207, 700}";
}
);
layerId = "9764FC2E-EF50-4B10-BB5F-6BAA27A55E88";
name = Regular;
paths = (
{
closed = 1;
nodes = (
"236 664 LINE SMOOTH",
"240 685 OFFCURVE",
"228 700 OFFCURVE",
"208 700 CURVE SMOOTH",
"188 700 OFFCURVE",
"170 685 OFFCURVE",
"166 664 CURVE SMOOTH",
"32 36 LINE SMOOTH",
"28 15 OFFCURVE",
"40 0 OFFCURVE",
"60 0 CURVE SMOOTH",
"80 0 OFFCURVE",
"98 15 OFFCURVE",
"102 36 CURVE SMOOTH"
);
}
);
width = 248.766;
}
);
leftKerningGroup = B;
rightKerningGroup = H;
unicode = 0049;
},
{
glyphname = J;
lastChange = "2013-12-18 08:31:18 +0400";
layers = (
{
anchors = (
{
name = top;
position = "{354, 700}";
}
);
layerId = "9764FC2E-EF50-4B10-BB5F-6BAA27A55E88";
name = Regular;
paths = (
{
closed = 1;
nodes = (
"482 699 OFFCURVE",
"464 684 OFFCURVE",
"460 663 CURVE SMOOTH",
"367 221 LINE SMOOTH",
"348 132 OFFCURVE",
"259 59 OFFCURVE",
"169 59 CURVE SMOOTH",
"108 59 OFFCURVE",
"63 93 OFFCURVE",
"45 143 CURVE SMOOTH",
"40 160 OFFCURVE",
"26 170 OFFCURVE",
"3 161 CURVE SMOOTH",
"-18 153 OFFCURVE",
"-31 134 OFFCURVE",
"-25 114 CURVE SMOOTH",
"-2 40 OFFCURVE",
"66 -11 OFFCURVE",
"155 -11 CURVE SMOOTH",
"284 -11 OFFCURVE",
"410 93 OFFCURVE",
"437 221 CURVE SMOOTH",
"530 664 LINE SMOOTH",
"534 684 OFFCURVE",
"523 699 OFFCURVE",
"502 699 CURVE SMOOTH"
);
}
);
width = 535.812;
}
);
leftKerningGroup = J;
rightKerningGroup = J;
unicode = 004A;
},
{
glyphname = K;
lastChange = "2013-12-18 08:31:18 +0400";
layers = (
{
anchors = (
{
name = bottom;
position = "{280, 0}";
},
{
name = top;
position = "{428, 700}";
}
);
layerId = "9764FC2E-EF50-4B10-BB5F-6BAA27A55E88";
name = Regular;
paths = (
{
closed = 1;
nodes = (
"384 388 LINE SMOOTH",
"383 391 OFFCURVE",
"383 393 OFFCURVE",
"386 395 CURVE SMOOTH",
"680 641 LINE SMOOTH",
"698 656 OFFCURVE",
"703 677 OFFCURVE",
"690 691 CURVE SMOOTH",
"678 705 OFFCURVE",
"657 705 OFFCURVE",
"640 690 CURVE SMOOTH",
"162 289 LINE SMOOTH",
"158 286 OFFCURVE",
"156 287 OFFCURVE",
"157 292 CURVE SMOOTH",
"236 664 LINE SMOOTH",
"240 685 OFFCURVE",
"228 700 OFFCURVE",
"208 700 CURVE SMOOTH",
"188 700 OFFCURVE",
"170 685 OFFCURVE",
"166 664 CURVE SMOOTH",
"32 36 LINE SMOOTH",
"28 15 OFFCURVE",
"40 0 OFFCURVE",
"60 0 CURVE SMOOTH",
"80 0 OFFCURVE",
"98 15 OFFCURVE",
"102 36 CURVE SMOOTH",
"133 181 LINE SMOOTH",
"134 183 OFFCURVE",
"135 185 OFFCURVE",
"137 187 CURVE SMOOTH",
"317 338 LINE SMOOTH",
"321 340 OFFCURVE",
"323 340 OFFCURVE",
"324 338 CURVE SMOOTH",
"519 13 LINE SMOOTH",
"529 -4 OFFCURVE",
"549 -6 OFFCURVE",
"568 7 CURVE SMOOTH",
"587 20 OFFCURVE",
"593 41 OFFCURVE",
"584 57 CURVE SMOOTH"
);
}
);
width = 639.297;
}
);
leftKerningGroup = B;
rightKerningGroup = K;
unicode = 004B;
},
{
glyphname = L;
lastChange = "2013-12-18 08:31:18 +0400";
layers = (
{
anchors = (
{
name = bottom;
position = "{196, 0}";
},
{
name = top;
position = "{344, 700}";
}
);
layerId = "9764FC2E-EF50-4B10-BB5F-6BAA27A55E88";
name = Regular;
paths = (
{
closed = 1;
nodes = (
"114 70 LINE SMOOTH",
"111 70 OFFCURVE",
"110 72 OFFCURVE",
"111 75 CURVE SMOOTH",
"236 664 LINE SMOOTH",
"240 685 OFFCURVE",
"228 700 OFFCURVE",
"208 700 CURVE SMOOTH",
"188 700 OFFCURVE",
"170 685 OFFCURVE",
"166 664 CURVE SMOOTH",
"32 36 LINE SMOOTH",
"28 15 OFFCURVE",
"40 0 OFFCURVE",
"60 0 CURVE SMOOTH",
"62 0 LINE",
"410 0 LINE SMOOTH",
"431 0 OFFCURVE",
"449 15 OFFCURVE",
"453 35 CURVE SMOOTH",
"457 55 OFFCURVE",
"445 70 OFFCURVE",
"424 70 CURVE SMOOTH"
);
}
);
width = 509.764;
}
);
leftKerningGroup = B;
rightKerningGroup = L;
unicode = 004C;
},
{
glyphname = Lslash;
lastChange = "2013-12-18 08:31:18 +0400";
layers = (
{
anchors = (
{
name = bottom;
position = "{270, 0}";
},
{
name = top;
position = "{418, 700}";
}
);
layerId = "9764FC2E-EF50-4B10-BB5F-6BAA27A55E88";
name = Regular;
paths = (
{
closed = 1;
nodes = (
"188 70 LINE SMOOTH",
"185 70 OFFCURVE",
"184 72 OFFCURVE",
"185 75 CURVE SMOOTH",
"242 347 LINE SMOOTH",
"243 350 OFFCURVE",
"244 352 OFFCURVE",
"248 353 CURVE SMOOTH",
"427 426 LINE SMOOTH",
"448 434 OFFCURVE",
"460 453 OFFCURVE",
"456 472 CURVE SMOOTH",
"452 491 OFFCURVE",
"433 498 OFFCURVE",
"413 489 CURVE SMOOTH",
"266 430 LINE SMOOTH",
"262 428 OFFCURVE",
"260 430 OFFCURVE",
"261 433 CURVE SMOOTH",
"310 664 LINE SMOOTH",
"314 685 OFFCURVE",
"302 700 OFFCURVE",
"282 700 CURVE SMOOTH",
"262 700 OFFCURVE",
"244 685 OFFCURVE",
"240 664 CURVE SMOOTH",
"184 400 LINE SMOOTH",
"183 397 OFFCURVE",
"182 396 OFFCURVE",
"178 394 CURVE SMOOTH",
"81 355 LINE SMOOTH",
"61 347 OFFCURVE",
"49 328 OFFCURVE",
"53 309 CURVE SMOOTH",
"57 290 OFFCURVE",
"76 283 OFFCURVE",
"97 292 CURVE SMOOTH",
"160 318 LINE SMOOTH",
"164 319 OFFCURVE",
"166 318 OFFCURVE",
"165 314 CURVE SMOOTH",
"106 36 LINE SMOOTH",
"102 15 OFFCURVE",
"114 0 OFFCURVE",
"134 0 CURVE SMOOTH",
"484 0 LINE SMOOTH",
"505 0 OFFCURVE",
"523 15 OFFCURVE",
"527 35 CURVE SMOOTH",
"531 55 OFFCURVE",
"519 70 OFFCURVE",
"498 70 CURVE SMOOTH"
);
}
);
width = 610.101;
}
);
rightMetricsKey = L;
unicode = 0141;
},
{
glyphname = M;
lastChange = "2013-12-18 08:31:18 +0400";
layers = (
{
layerId = "9764FC2E-EF50-4B10-BB5F-6BAA27A55E88";
name = Regular;
paths = (
{
closed = 1;
nodes = (
"433 315 LINE SMOOTH",
"430 312 OFFCURVE",
"427 312 OFFCURVE",
"426 315 CURVE SMOOTH",
"236 684 LINE SMOOTH",
"230 696 OFFCURVE",
"219 701 OFFCURVE",
"206 700 CURVE",
"187 699 OFFCURVE",
"170 684 OFFCURVE",
"166 664 CURVE SMOOTH",
"32 36 LINE SMOOTH",
"28 15 OFFCURVE",
"39 0 OFFCURVE",
"59 0 CURVE SMOOTH",
"80 0 OFFCURVE",
"98 15 OFFCURVE",
"102 36 CURVE SMOOTH",
"212 551 LINE SMOOTH",
"213 555 OFFCURVE",
"216 556 OFFCURVE",
"218 553 CURVE SMOOTH",
"383 237 LINE SMOOTH",
"389 226 OFFCURVE",
"399 221 OFFCURVE",
"410 221 CURVE",
"421 221 OFFCURVE",
"433 226 OFFCURVE",
"443 237 CURVE SMOOTH",
"732 552 LINE SMOOTH",
"736 556 OFFCURVE",
"739 555 OFFCURVE",
"737 550 CURVE SMOOTH",
"628 36 LINE SMOOTH",
"624 15 OFFCURVE",
"636 0 OFFCURVE",
"657 0 CURVE SMOOTH",
"677 0 OFFCURVE",
"694 15 OFFCURVE",
"698 36 CURVE SMOOTH",
"832 664 LINE SMOOTH",
"836 684 OFFCURVE",
"826 699 OFFCURVE",
"806 700 CURVE SMOOTH",
"795 701 OFFCURVE",
"782 696 OFFCURVE",
"770 684 CURVE SMOOTH"
);
}
);
width = 844.869;
}
);
leftKerningGroup = B;
rightKerningGroup = H;
unicode = 004D;
},
{
glyphname = N;
lastChange = "2013-12-18 08:31:18 +0400";
layers = (
{
anchors = (
{
name = bottom;
position = "{307, 0}";
},
{
name = top;
position = "{455, 700}";
}
);
layerId = "9764FC2E-EF50-4B10-BB5F-6BAA27A55E88";
name = Regular;
paths = (
{
closed = 1;
nodes = (
"550 146 LINE SMOOTH",
"549 141 OFFCURVE",
"545 140 OFFCURVE",
"543 144 CURVE SMOOTH",
"236 684 LINE SMOOTH",
"235 687 OFFCURVE",
"233 689 OFFCURVE",
"231 691 CURVE",
"227 697 OFFCURVE",
"218 700 OFFCURVE",
"209 700 CURVE SMOOTH",
"188 700 OFFCURVE",
"170 685 OFFCURVE",
"166 664 CURVE SMOOTH",
"32 36 LINE SMOOTH",
"28 15 OFFCURVE",
"39 0 OFFCURVE",
"59 0 CURVE SMOOTH",
"80 0 OFFCURVE",
"98 15 OFFCURVE",
"102 36 CURVE SMOOTH",
"212 554 LINE SMOOTH",
"213 559 OFFCURVE",
"217 560 OFFCURVE",
"219 556 CURVE SMOOTH",
"526 16 LINE SMOOTH",
"527 13 OFFCURVE",
"529 11 OFFCURVE",
"531 9 CURVE",
"535 3 OFFCURVE",
"544 0 OFFCURVE",
"553 0 CURVE SMOOTH",
"574 0 OFFCURVE",
"592 15 OFFCURVE",
"596 36 CURVE SMOOTH",
"730 664 LINE SMOOTH",
"734 685 OFFCURVE",
"723 700 OFFCURVE",
"703 700 CURVE SMOOTH",
"682 700 OFFCURVE",
"664 685 OFFCURVE",
"660 664 CURVE SMOOTH"
);
}
);
width = 742.815;
}
);
leftKerningGroup = B;
rightKerningGroup = H;
unicode = 004E;
},
{
glyphname = Eng;
lastChange = "2013-12-18 08:31:18 +0400";
layers = (
{
anchors = (
{
name = bottom;
position = "{320, 0}";
},
{
name = top;
position = "{469, 700}";
}
);
layerId = "9764FC2E-EF50-4B10-BB5F-6BAA27A55E88";
name = Regular;
paths = (
{
closed = 1;
nodes = (
"696 700 OFFCURVE",
"677 685 OFFCURVE",
"673 664 CURVE SMOOTH",
"563 146 LINE SMOOTH",
"562 141 OFFCURVE",
"559 140 OFFCURVE",
"556 144 CURVE SMOOTH",
"249 684 LINE SMOOTH",
"248 687 OFFCURVE",
"246 689 OFFCURVE",
"244 691 CURVE",
"240 697 OFFCURVE",
"232 700 OFFCURVE",
"223 700 CURVE SMOOTH",
"202 700 OFFCURVE",
"183 685 OFFCURVE",
"179 664 CURVE SMOOTH",
"46 36 LINE SMOOTH",
"41 15 OFFCURVE",
"52 0 OFFCURVE",
"72 0 CURVE SMOOTH",
"93 0 OFFCURVE",
"111 15 OFFCURVE",
"116 36 CURVE SMOOTH",
"226 554 LINE SMOOTH",
"227 559 OFFCURVE",
"230 560 OFFCURVE",
"232 556 CURVE SMOOTH",
"535 24 LINE SMOOTH",
"536 22 OFFCURVE",
"536 20 OFFCURVE",
"536 18 CURVE SMOOTH",
"523 -41 LINE SMOOTH",
"510 -102 OFFCURVE",
"471 -131 OFFCURVE",
"399 -131 CURVE SMOOTH",
"375 -131 OFFCURVE",
"358 -149 OFFCURVE",
"355 -165 CURVE SMOOTH",
"351 -185 OFFCURVE",
"359 -200 OFFCURVE",
"380 -200 CURVE SMOOTH",
"459 -200 OFFCURVE",
"567 -166 OFFCURVE",
"589 -60 CURVE SMOOTH",
"743 664 LINE SMOOTH",
"747 685 OFFCURVE",
"737 700 OFFCURVE",
"717 700 CURVE SMOOTH"
);
}
);
width = 688;
}
);
leftMetricsKey = N;
rightMetricsKey = N;
unicode = 014A;
},
{
glyphname = O;
lastChange = "2013-12-18 08:31:18 +0400";
layers = (
{
anchors = (
{
name = top;
position = "{481, 700}";
}
);
layerId = "9764FC2E-EF50-4B10-BB5F-6BAA27A55E88";
name = Regular;
paths = (
{
closed = 1;
nodes = (
"698 189 OFFCURVE",
"561 60 OFFCURVE",
"414 60 CURVE",
"267 60 OFFCURVE",
"160 189 OFFCURVE",
"177 350 CURVE",
"194 511 OFFCURVE",
"330 640 OFFCURVE",
"477 640 CURVE",
"624 640 OFFCURVE",
"732 511 OFFCURVE",
"715 350 CURVE"
);
},
{
closed = 1;
nodes = (
"806 549 OFFCURVE",
"672 710 OFFCURVE",
"485 710 CURVE",
"298 710 OFFCURVE",
"128 549 OFFCURVE",
"107 350 CURVE",
"86 151 OFFCURVE",
"220 -10 OFFCURVE",
"407 -10 CURVE",
"594 -10 OFFCURVE",
"764 151 OFFCURVE",
"785 350 CURVE"
);
}
);
width = 796.538;
}
);
leftKerningGroup = C;
rightKerningGroup = D;
unicode = 004F;
},
{
glyphname = Oslash;
lastChange = "2013-12-18 08:31:18 +0400";
layers = (
{
anchors = (
{
name = top;
position = "{383, 701}";
}
);
layerId = "9764FC2E-EF50-4B10-BB5F-6BAA27A55E88";
name = Regular;
paths = (
{
closed = 1;
nodes = (
"697 678 LINE SMOOTH",
"710 694 OFFCURVE",
"709 715 OFFCURVE",
"694 727 CURVE",
"678 741 OFFCURVE",
"657 738 OFFCURVE",
"643 722 CURVE SMOOTH",
"583 648 LINE SMOOTH",
"581 645 OFFCURVE",
"578 645 OFFCURVE",
"576 647 CURVE SMOOTH",
"521 687 OFFCURVE",
"455 710 OFFCURVE",
"384 710 CURVE SMOOTH",
"197 710 OFFCURVE",
"45 549 OFFCURVE",
"45 350 CURVE SMOOTH",
"45 256 OFFCURVE",
"79 170 OFFCURVE",
"134 106 CURVE SMOOTH",
"136 104 OFFCURVE",
"136 102 OFFCURVE",
"135 99 CURVE SMOOTH",
"73 24 LINE SMOOTH",
"60 8 OFFCURVE",
"61 -13 OFFCURVE",
"76 -25 CURVE",
"92 -39 OFFCURVE",
"113 -36 OFFCURVE",
"127 -20 CURVE SMOOTH",
"186 52 LINE SMOOTH",
"188 54 OFFCURVE",
"190 55 OFFCURVE",
"193 53 CURVE SMOOTH",
"247 13 OFFCURVE",
"313 -10 OFFCURVE",
"384 -10 CURVE SMOOTH",
"571 -10 OFFCURVE",
"723 151 OFFCURVE",
"723 350 CURVE SMOOTH",
"723 444 OFFCURVE",
"689 529 OFFCURVE",
"634 593 CURVE SMOOTH",
"632 596 OFFCURVE",
"632 598 OFFCURVE",
"634 600 CURVE SMOOTH"
);
},
{
closed = 1;
nodes = (
"115 511 OFFCURVE",
"237 640 OFFCURVE",
"384 640 CURVE SMOOTH",
"438 640 OFFCURVE",
"488 623 OFFCURVE",
"531 593 CURVE SMOOTH",
"534 591 OFFCURVE",
"534 588 OFFCURVE",
"532 586 CURVE SMOOTH",
"186 162 LINE SMOOTH",
"184 160 OFFCURVE",
"181 160 OFFCURVE",
"179 162 CURVE SMOOTH",
"139 213 OFFCURVE",
"115 278 OFFCURVE",
"115 350 CURVE SMOOTH"
);
},
{
closed = 1;
nodes = (
"330 60 OFFCURVE",
"280 77 OFFCURVE",
"237 107 CURVE SMOOTH",
"235 109 OFFCURVE",
"234 112 OFFCURVE",
"236 114 CURVE SMOOTH",
"582 537 LINE SMOOTH",
"584 540 OFFCURVE",
"587 540 OFFCURVE",
"589 537 CURVE SMOOTH",
"629 487 OFFCURVE",
"653 422 OFFCURVE",
"653 350 CURVE SMOOTH",
"653 189 OFFCURVE",
"531 60 OFFCURVE",
"384 60 CURVE SMOOTH"
);
}
);
width = 768;
}
);
unicode = 00D8;
},
{
glyphname = OE;
lastChange = "2013-12-18 08:31:18 +0400";
layers = (
{
anchors = (
{
name = bottom;
position = "{705, 0}";
},
{
name = center;
position = "{334.395, 350}";
},
{
name = ogonek;
position = "{930.874, 10}";
},
{
name = top;
position = "{334.79, 700}";
}
);
layerId = "9764FC2E-EF50-4B10-BB5F-6BAA27A55E88";
name = Regular;
paths = (
{
closed = 1;
nodes = (
"552 70 LINE SMOOTH",
"549 70 OFFCURVE",
"548 72 OFFCURVE",
"548 75 CURVE SMOOTH",
"572 270 LINE SMOOTH",
"573 273 OFFCURVE",
"575 275 OFFCURVE",
"578 275 CURVE SMOOTH",
"850 275 LINE SMOOTH",
"871 275 OFFCURVE",
"887 290 OFFCURVE",
"889 310 CURVE",
"893 330 OFFCURVE",
"879 345 OFFCURVE",
"858 345 CURVE SMOOTH",
"586 345 LINE SMOOTH",
"583 345 OFFCURVE",
"581 347 OFFCURVE",
"582 350 CURVE",
"615 625 LINE",
"616 628 OFFCURVE",
"618 630 OFFCURVE",
"621 630 CURVE SMOOTH",
"936 630 LINE SMOOTH",
"957 630 OFFCURVE",
"974 645 OFFCURVE",
"977 665 CURVE",
"978 685 OFFCURVE",
"965 700 OFFCURVE",
"944 700 CURVE",
"414 700 LINE",
"201 700 OFFCURVE",
"78 573 OFFCURVE",
"50 350 CURVE SMOOTH",
"23 127 OFFCURVE",
"114 0 OFFCURVE",
"327 0 CURVE SMOOTH",
"501 0 LINE SMOOTH",
"502 0 OFFCURVE",
"502 0 OFFCURVE",
"503 0 CURVE",
"504 0 LINE",
"859 0 LINE SMOOTH",
"880 0 OFFCURVE",
"897 15 OFFCURVE",
"899 35 CURVE",
"901 55 OFFCURVE",
"888 70 OFFCURVE",
"867 70 CURVE SMOOTH"
);
},
{
closed = 1;
nodes = (
"475 75 LINE SMOOTH",
"475 72 OFFCURVE",
"474 70 OFFCURVE",
"471 70 CURVE SMOOTH",
"337 70 LINE SMOOTH",
"163 70 OFFCURVE",
"97 165 OFFCURVE",
"120 350 CURVE SMOOTH",
"144 535 OFFCURVE",
"230 630 OFFCURVE",
"404 630 CURVE SMOOTH",
"538 630 LINE SMOOTH",
"541 630 OFFCURVE",
"543 628 OFFCURVE",
"544 625 CURVE"
);
}
);
width = 976;
}
);
leftMetricsKey = C;
rightMetricsKey = E;
unicode = 0152;
},
{
glyphname = P;
lastChange = "2013-12-18 08:31:18 +0400";
layers = (
{
layerId = "9764FC2E-EF50-4B10-BB5F-6BAA27A55E88";
name = Regular;
paths = (
{
closed = 1;
nodes = (
"209 700 LINE SMOOTH",
"188 700 OFFCURVE",
"170 685 OFFCURVE",
"166 664 CURVE SMOOTH",
"32 36 LINE SMOOTH",
"28 15 OFFCURVE",
"39 0 OFFCURVE",
"59 0 CURVE SMOOTH",
"80 0 OFFCURVE",
"98 15 OFFCURVE",
"102 36 CURVE SMOOTH",
"152 268 LINE SMOOTH",
"152 271 OFFCURVE",
"155 273 OFFCURVE",
"158 273 CURVE SMOOTH",
"364 273 LINE SMOOTH",
"469 273 OFFCURVE",
"570 357 OFFCURVE",
"598 486 CURVE SMOOTH",
"626 616 OFFCURVE",
"559 700 OFFCURVE",
"454 700 CURVE SMOOTH"
);
},
{
closed = 1;
nodes = (
"173 343 LINE SMOOTH",
"170 343 OFFCURVE",
"168 345 OFFCURVE",
"169 348 CURVE SMOOTH",
"227 625 LINE SMOOTH",
"228 628 OFFCURVE",
"231 630 OFFCURVE",
"234 630 CURVE SMOOTH",
"440 630 LINE SMOOTH",
"506 630 OFFCURVE",
"547 577 OFFCURVE",
"528 486 CURVE SMOOTH",
"509 396 OFFCURVE",
"445 343 OFFCURVE",
"379 343 CURVE SMOOTH"
);
}
);
width = 597.385;
}
);
leftKerningGroup = B;
rightKerningGroup = P;
unicode = 0050;
},
{
glyphname = Thorn;
lastChange = "2013-12-18 08:31:18 +0400";
layers = (
{
anchors = (
{
name = bottom;
position = "{37, 0}";
},
{
name = top;
position = "{147, 515}";
},
{
name = topright;
position = "{243, 515}";
}
);
layerId = "9764FC2E-EF50-4B10-BB5F-6BAA27A55E88";
name = Regular;
paths = (
{
closed = 1;
nodes = (
"558 580 OFFCURVE",
"444 585 OFFCURVE",
"235 585 CURVE SMOOTH",
"232 585 OFFCURVE",
"230 587 OFFCURVE",
"231 590 CURVE SMOOTH",
"255 704 LINE SMOOTH",
"259 725 OFFCURVE",
"249 740 OFFCURVE",
"229 740 CURVE SMOOTH",
"208 740 OFFCURVE",
"189 725 OFFCURVE",
"185 704 CURVE SMOOTH",
"43 36 LINE SMOOTH",
"39 15 OFFCURVE",
"49 0 OFFCURVE",
"69 0 CURVE SMOOTH",
"90 0 OFFCURVE",
"109 15 OFFCURVE",
"113 36 CURVE SMOOTH",
"138 152 LINE SMOOTH",
"138 155 OFFCURVE",
"141 157 OFFCURVE",
"144 157 CURVE SMOOTH",
"344 157 OFFCURVE",
"469 162 OFFCURVE",
"513 371 CURVE"
);
},
{
closed = 1;
nodes = (
"214 510 LINE SMOOTH",
"214 513 OFFCURVE",
"217 515 OFFCURVE",
"220 515 CURVE SMOOTH",
"393 516 OFFCURVE",
"475 520 OFFCURVE",
"443 371 CURVE SMOOTH",
"411 221 OFFCURVE",
"331 226 OFFCURVE",
"159 227 CURVE SMOOTH",
"156 227 OFFCURVE",
"154 229 OFFCURVE",
"155 232 CURVE SMOOTH"
);
}
);
width = 541;
}
);
unicode = 00DE;
},
{
glyphname = Q;
lastChange = "2013-12-18 08:31:18 +0400";
layers = (
{
layerId = "9764FC2E-EF50-4B10-BB5F-6BAA27A55E88";
name = Regular;
paths = (
{
closed = 1;
nodes = (
"554 24 LINE SMOOTH",
"675 81 OFFCURVE",
"769 206 OFFCURVE",
"784 350 CURVE SMOOTH",
"806 549 OFFCURVE",
"671 710 OFFCURVE",
"484 710 CURVE SMOOTH",
"297 710 OFFCURVE",
"128 549 OFFCURVE",
"106 350 CURVE SMOOTH",
"87 176 OFFCURVE",
"188 32 OFFCURVE",
"338 -2 CURVE",
"226 -54 LINE SMOOTH",
"205 -64 OFFCURVE",
"197 -84 OFFCURVE",
"204 -102 CURVE SMOOTH",
"212 -120 OFFCURVE",
"230 -126 OFFCURVE",
"250 -119 CURVE SMOOTH",
"303 -99 OFFCURVE",
"345 -93 OFFCURVE",
"393 -103 CURVE SMOOTH",
"430 -111 OFFCURVE",
"506 -177 OFFCURVE",
"603 -177 CURVE SMOOTH",
"690 -177 OFFCURVE",
"774 -129 OFFCURVE",
"823 -87 CURVE",
"841 -72 OFFCURVE",
"841 -48 OFFCURVE",
"824 -35 CURVE SMOOTH",
"810 -24 OFFCURVE",
"793 -26 OFFCURVE",
"778 -39 CURVE SMOOTH",
"740 -71 OFFCURVE",
"677 -107 OFFCURVE",
"611 -107 CURVE SMOOTH",
"514 -107 OFFCURVE",
"518 -62 OFFCURVE",
"434 -39 CURVE SMOOTH",
"429 -38 OFFCURVE",
"428 -35 OFFCURVE",
"433 -32 CURVE SMOOTH"
);
},
{
closed = 1;
nodes = (
"194 511 OFFCURVE",
"329 640 OFFCURVE",
"476 640 CURVE SMOOTH",
"623 640 OFFCURVE",
"732 511 OFFCURVE",
"714 350 CURVE SMOOTH",
"697 189 OFFCURVE",
"561 60 OFFCURVE",
"414 60 CURVE SMOOTH",
"267 60 OFFCURVE",
"159 189 OFFCURVE",
"176 350 CURVE SMOOTH"
);
}
);
width = 798;
}
);
leftKerningGroup = C;
rightKerningGroup = D;
unicode = 0051;
},
{
glyphname = R;
lastChange = "2013-12-18 08:31:18 +0400";
layers = (
{
anchors = (
{
name = bottom;
position = "{252, 0}";
},
{
name = top;
position = "{400, 700}";
}
);
layerId = "9764FC2E-EF50-4B10-BB5F-6BAA27A55E88";
name = Regular;
paths = (
{
closed = 1;
nodes = (
"209 700 LINE SMOOTH",
"188 700 OFFCURVE",
"170 685 OFFCURVE",
"166 664 CURVE SMOOTH",
"32 36 LINE SMOOTH",
"28 15 OFFCURVE",
"39 0 OFFCURVE",
"59 0 CURVE SMOOTH",
"80 0 OFFCURVE",
"98 15 OFFCURVE",
"102 36 CURVE SMOOTH",
"156 288 LINE SMOOTH",
"156 291 OFFCURVE",
"159 293 OFFCURVE",
"162 293 CURVE SMOOTH",
"346 293 LINE SMOOTH",
"402 293 OFFCURVE",
"457 260 OFFCURVE",
"443 196 CURVE SMOOTH",
"426 113 OFFCURVE",
"423 45 OFFCURVE",
"474 6 CURVE SMOOTH",
"489 -6 OFFCURVE",
"518 0 OFFCURVE",
"530 22 CURVE SMOOTH",
"541 41 OFFCURVE",
"533 58 OFFCURVE",
"520 68 CURVE SMOOTH",
"495 89 OFFCURVE",
"496 115 OFFCURVE",
"512 190 CURVE SMOOTH",
"523 242 OFFCURVE",
"500 282 OFFCURVE",
"464 310 CURVE SMOOTH",
"461 313 OFFCURVE",
"462 315 OFFCURVE",
"465 317 CURVE SMOOTH",
"530 350 OFFCURVE",
"583 415 OFFCURVE",
"600 496 CURVE SMOOTH",
"626 616 OFFCURVE",
"559 700 OFFCURVE",
"454 700 CURVE SMOOTH"
);
},
{
closed = 1;
nodes = (
"177 363 LINE SMOOTH",
"174 363 OFFCURVE",
"172 365 OFFCURVE",
"173 368 CURVE SMOOTH",
"227 625 LINE SMOOTH",
"228 628 OFFCURVE",
"231 630 OFFCURVE",
"234 630 CURVE SMOOTH",
"440 630 LINE SMOOTH",
"506 630 OFFCURVE",
"547 577 OFFCURVE",
"530 496 CURVE SMOOTH",
"513 416 OFFCURVE",
"449 363 OFFCURVE",
"383 363 CURVE SMOOTH"
);
}
);
width = 628.612;
}
);
leftKerningGroup = B;
rightKerningGroup = R;
unicode = 0052;
},
{
glyphname = S;
lastChange = "2013-12-18 08:31:18 +0400";
layers = (
{
anchors = (
{
name = bottom;
position = "{252, 0}";
},
{
name = top;
position = "{401, 700}";
}
);
layerId = "9764FC2E-EF50-4B10-BB5F-6BAA27A55E88";
name = Regular;
paths = (
{
closed = 1;
nodes = (
"39 48 OFFCURVE",
"136 -9 OFFCURVE",
"241 -9 CURVE SMOOTH",
"367 -9 OFFCURVE",
"517 41 OFFCURVE",
"548 185 CURVE SMOOTH",
"574 310 OFFCURVE",
"483 357 OFFCURVE",
"368 393 CURVE SMOOTH",
"250 429 OFFCURVE",
"157 446 OFFCURVE",
"174 524 CURVE SMOOTH",
"190 601 OFFCURVE",
"286 640 OFFCURVE",
"362 640 CURVE SMOOTH",
"454 640 OFFCURVE",
"497 606 OFFCURVE",
"533 573 CURVE SMOOTH",
"545 562 OFFCURVE",
"567 565 OFFCURVE",
"581 580 CURVE SMOOTH",
"598 598 OFFCURVE",
"597 620 OFFCURVE",
"583 632 CURVE SMOOTH",
"539 669 OFFCURVE",
"481 710 OFFCURVE",
"376 710 CURVE SMOOTH",
"276 710 OFFCURVE",
"131 653 OFFCURVE",
"104 524 CURVE SMOOTH",
"75 388 OFFCURVE",
"219 361 OFFCURVE",
"334 325 CURVE SMOOTH",
"451 289 OFFCURVE",
"493 256 OFFCURVE",
"478 185 CURVE SMOOTH",
"459 97 OFFCURVE",
"361 61 OFFCURVE",
"255 61 CURVE SMOOTH",
"161 61 OFFCURVE",
"111 103 OFFCURVE",
"77 141 CURVE SMOOTH",
"67 153 OFFCURVE",
"48 157 OFFCURVE",
"29 144 CURVE SMOOTH",
"12 132 OFFCURVE",
"6 113 OFFCURVE",
"16 94 CURVE"
);
}
);
width = 613.628;
}
);
leftKerningGroup = S;
rightKerningGroup = S;
unicode = 0053;
},
{
glyphname = T;
lastChange = "2013-12-18 08:31:18 +0400";
layers = (
{
anchors = (
{
name = bottom;
position = "{197, 0}";
},
{
name = center;
position = "{271, 350}";
},
{
name = top;
position = "{345, 700}";
}
);
layerId = "9764FC2E-EF50-4B10-BB5F-6BAA27A55E88";
name = Regular;
paths = (
{
closed = 1;
nodes = (
"593 685 OFFCURVE",
"581 700 OFFCURVE",
"560 700 CURVE SMOOTH",
"129 700 LINE SMOOTH",
"108 700 OFFCURVE",
"90 686 OFFCURVE",
"86 666 CURVE SMOOTH",
"82 645 OFFCURVE",
"94 630 OFFCURVE",
"115 630 CURVE SMOOTH",
"291 630 LINE SMOOTH",
"294 630 OFFCURVE",
"295 628 OFFCURVE",
"294 625 CURVE SMOOTH",
"169 36 LINE SMOOTH",
"165 15 OFFCURVE",
"176 0 OFFCURVE",
"196 0 CURVE SMOOTH",
"217 0 OFFCURVE",
"235 15 OFFCURVE",
"239 36 CURVE SMOOTH",
"364 625 LINE SMOOTH",
"365 628 OFFCURVE",
"368 630 OFFCURVE",
"371 630 CURVE SMOOTH",
"546 630 LINE SMOOTH",
"567 630 OFFCURVE",
"585 645 OFFCURVE",
"589 665 CURVE SMOOTH"
);
}
);
width = 532.764;
}
);
leftKerningGroup = T;
rightKerningGroup = T;
unicode = 0054;
},
{
glyphname = Tbar;
lastChange = "2013-12-18 08:31:18 +0400";
layers = (
{
anchors = (
{
name = bottom;
position = "{201, 0}";
},
{
name = center;
position = "{275, 350}";
},
{
name = top;
position = "{349, 700}";
}
);
layerId = "9764FC2E-EF50-4B10-BB5F-6BAA27A55E88";
name = Regular;
paths = (
{
closed = 1;
nodes = (
"133 700 LINE SMOOTH",
"112 700 OFFCURVE",
"94 686 OFFCURVE",
"90 666 CURVE SMOOTH",
"86 645 OFFCURVE",
"98 630 OFFCURVE",
"119 630 CURVE SMOOTH",
"295 630 LINE SMOOTH",
"298 630 OFFCURVE",
"299 628 OFFCURVE",
"298 625 CURVE SMOOTH",
"263 460 LINE SMOOTH",
"263 457 OFFCURVE",
"260 455 OFFCURVE",
"257 455 CURVE SMOOTH",
"130 455 LINE SMOOTH",
"108 455 OFFCURVE",
"91 441 OFFCURVE",
"87 421 CURVE SMOOTH",
"83 400 OFFCURVE",
"93 385 OFFCURVE",
"115 385 CURVE SMOOTH",
"242 385 LINE SMOOTH",
"245 385 OFFCURVE",
"247 383 OFFCURVE",
"246 380 CURVE SMOOTH",
"173 36 LINE SMOOTH",
"169 15 OFFCURVE",
"180 0 OFFCURVE",
"200 0 CURVE SMOOTH",
"221 0 OFFCURVE",
"239 15 OFFCURVE",
"243 36 CURVE SMOOTH",
"316 380 LINE SMOOTH",
"317 383 OFFCURVE",
"319 385 OFFCURVE",
"322 385 CURVE SMOOTH",
"449 385 LINE SMOOTH",
"470 385 OFFCURVE",
"488 399 OFFCURVE",
"493 419 CURVE SMOOTH",
"497 440 OFFCURVE",
"485 455 OFFCURVE",
"464 455 CURVE SMOOTH",
"337 455 LINE SMOOTH",
"334 455 OFFCURVE",
"333 457 OFFCURVE",
"333 460 CURVE SMOOTH",
"368 625 LINE SMOOTH",
"369 628 OFFCURVE",
"372 630 OFFCURVE",
"375 630 CURVE SMOOTH",
"550 630 LINE SMOOTH",
"571 630 OFFCURVE",
"589 645 OFFCURVE",
"593 665 CURVE SMOOTH",
"597 685 OFFCURVE",
"585 700 OFFCURVE",
"564 700 CURVE SMOOTH"
);
}
);
width = 558;
}
);
leftMetricsKey = T;
rightMetricsKey = T;
unicode = 0166;
},
{
glyphname = U;
lastChange = "2013-12-18 08:31:18 +0400";
layers = (
{
anchors = (
{
name = ogonek;
position = "{591, 10}";
},
{
name = top;
position = "{450, 700}";
}
);
layerId = "9764FC2E-EF50-4B10-BB5F-6BAA27A55E88";
name = Regular;
paths = (
{
closed = 1;
nodes = (
"677 700 OFFCURVE",
"659 685 OFFCURVE",
"655 664 CURVE SMOOTH",
"571 271 LINE SMOOTH",
"546 154 OFFCURVE",
"431 60 OFFCURVE",
"314 60 CURVE SMOOTH",
"197 60 OFFCURVE",
"122 154 OFFCURVE",
"147 271 CURVE SMOOTH",
"231 664 LINE SMOOTH",
"235 685 OFFCURVE",
"224 700 OFFCURVE",
"204 700 CURVE SMOOTH",
"183 700 OFFCURVE",
"165 685 OFFCURVE",
"161 664 CURVE SMOOTH",
"77 271 LINE SMOOTH",
"44 116 OFFCURVE",
"144 -10 OFFCURVE",
"300 -10 CURVE SMOOTH",
"456 -10 OFFCURVE",
"608 116 OFFCURVE",
"641 271 CURVE SMOOTH",
"725 664 LINE SMOOTH",
"729 685 OFFCURVE",
"717 700 OFFCURVE",
"697 700 CURVE SMOOTH"
);
}
);
width = 729.766;
}
);
leftKerningGroup = U;
rightKerningGroup = U;
unicode = 0055;
},
{
glyphname = V;
lastChange = "2013-12-18 08:31:18 +0400";
layers = (
{
layerId = "9764FC2E-EF50-4B10-BB5F-6BAA27A55E88";
name = Regular;
paths = (
{
closed = 1;
nodes = (
"291 128 LINE SMOOTH",
"289 124 OFFCURVE",
"285 124 OFFCURVE",
"285 128 CURVE SMOOTH",
"158 679 LINE SMOOTH",
"154 698 OFFCURVE",
"136 706 OFFCURVE",
"116 698 CURVE SMOOTH",
"95 690 OFFCURVE",
"83 670 OFFCURVE",
"87 651 CURVE SMOOTH",
"232 22 LINE SMOOTH",
"235 8 OFFCURVE",
"246 -1 OFFCURVE",
"260 0 CURVE",
"274 -1 OFFCURVE",
"289 8 OFFCURVE",
"298 22 CURVE SMOOTH",
"711 651 LINE SMOOTH",
"723 670 OFFCURVE",
"719 690 OFFCURVE",
"702 698 CURVE SMOOTH",
"686 706 OFFCURVE",
"664 698 OFFCURVE",
"652 679 CURVE SMOOTH"
);
}
);
width = 649.917;
}
);
leftKerningGroup = V;
rightKerningGroup = V;
unicode = 0056;
},
{
glyphname = W;
lastChange = "2013-12-18 08:31:18 +0400";
layers = (
{
anchors = (
{
name = top;
position = "{578, 700}";
}
);
layerId = "9764FC2E-EF50-4B10-BB5F-6BAA27A55E88";
name = Regular;
paths = (
{
closed = 1;
nodes = (
"649 138 LINE SMOOTH",
"647 133 OFFCURVE",
"643 133 OFFCURVE",
"642 138 CURVE SMOOTH",
"565 518 LINE SMOOTH",
"562 534 OFFCURVE",
"551 543 OFFCURVE",
"535 543 CURVE",
"520 543 OFFCURVE",
"505 534 OFFCURVE",
"495 518 CURVE SMOOTH",
"255 137 LINE SMOOTH",
"252 133 OFFCURVE",
"249 133 OFFCURVE",
"249 138 CURVE SMOOTH",
"184 675 LINE SMOOTH",
"181 695 OFFCURVE",
"166 705 OFFCURVE",
"146 699 CURVE SMOOTH",
"125 693 OFFCURVE",
"111 674 OFFCURVE",
"114 654 CURVE SMOOTH",
"189 25 LINE SMOOTH",
"191 8 OFFCURVE",
"202 -1 OFFCURVE",
"217 -1 CURVE",
"233 -2 OFFCURVE",
"249 7 OFFCURVE",
"260 24 CURVE SMOOTH",
"504 411 LINE SMOOTH",
"506 415 OFFCURVE",
"510 415 OFFCURVE",
"510 411 CURVE SMOOTH",
"590 24 LINE",
"592 7 OFFCURVE",
"604 -2 OFFCURVE",
"621 -1 CURVE",
"636 -1 OFFCURVE",
"651 8 OFFCURVE",
"661 25 CURVE SMOOTH",
"1004 654 LINE SMOOTH",
"1015 674 OFFCURVE",
"1009 693 OFFCURVE",
"990 699 CURVE SMOOTH",
"972 705 OFFCURVE",
"953 695 OFFCURVE",
"942 675 CURVE SMOOTH"
);
}
);
width = 960.482;
}
);
leftKerningGroup = W;
rightKerningGroup = W;
unicode = 0057;
},
{
glyphname = X;
lastChange = "2013-12-18 08:31:18 +0400";
layers = (
{
layerId = "9764FC2E-EF50-4B10-BB5F-6BAA27A55E88";
name = Regular;
paths = (
{
closed = 1;
nodes = (
"616 646 LINE SMOOTH",
"633 663 OFFCURVE",
"634 683 OFFCURVE",
"620 695 CURVE SMOOTH",
"606 707 OFFCURVE",
"584 704 OFFCURVE",
"569 687 CURVE SMOOTH",
"307 414 LINE SMOOTH",
"303 411 OFFCURVE",
"301 411 OFFCURVE",
"299 414 CURVE SMOOTH",
"152 686 LINE SMOOTH",
"143 703 OFFCURVE",
"124 707 OFFCURVE",
"105 695 CURVE SMOOTH",
"86 683 OFFCURVE",
"78 662 OFFCURVE",
"87 646 CURVE SMOOTH",
"243 355 LINE SMOOTH",
"244 352 OFFCURVE",
"244 350 OFFCURVE",
"241 347 CURVE SMOOTH",
"-40 54 LINE SMOOTH",
"-56 37 OFFCURVE",
"-57 17 OFFCURVE",
"-43 5 CURVE SMOOTH",
"-29 -7 OFFCURVE",
"-7 -4 OFFCURVE",
"8 13 CURVE SMOOTH",
"272 287 LINE SMOOTH",
"275 290 OFFCURVE",
"277 290 OFFCURVE",
"280 287 CURVE SMOOTH",
"425 14 LINE SMOOTH",
"434 -3 OFFCURVE",
"453 -7 OFFCURVE",
"472 5 CURVE SMOOTH",
"491 17 OFFCURVE",
"499 38 OFFCURVE",
"490 54 CURVE SMOOTH",
"334 346 LINE SMOOTH",
"333 349 OFFCURVE",
"333 351 OFFCURVE",
"336 354 CURVE SMOOTH"
);
}
);
width = 572.701;
}
);
leftKerningGroup = X;
rightKerningGroup = X;
unicode = 0058;
},
{
glyphname = Y;
lastChange = "2013-12-18 08:31:18 +0400";
layers = (
{
anchors = (
{
name = top;
position = "{359, 700}";
}
);
layerId = "9764FC2E-EF50-4B10-BB5F-6BAA27A55E88";
name = Regular;
paths = (
{
closed = 1;
nodes = (
"298 389 LINE SMOOTH",
"295 386 OFFCURVE",
"293 386 OFFCURVE",
"290 389 CURVE SMOOTH",
"143 686 LINE SMOOTH",
"135 703 OFFCURVE",
"115 706 OFFCURVE",
"96 694 CURVE SMOOTH",
"77 682 OFFCURVE",
"71 661 OFFCURVE",
"79 645 CURVE SMOOTH",
"242 316 LINE SMOOTH",
"242 314 OFFCURVE",
"243 312 OFFCURVE",
"242 310 CURVE SMOOTH",
"184 36 LINE SMOOTH",
"180 15 OFFCURVE",
"191 0 OFFCURVE",
"211 0 CURVE SMOOTH",
"231 0 OFFCURVE",
"250 15 OFFCURVE",
"254 36 CURVE SMOOTH",
"312 310 LINE SMOOTH",
"313 312 OFFCURVE",
"314 314 OFFCURVE",
"316 316 CURVE SMOOTH",
"619 645 LINE SMOOTH",
"633 661 OFFCURVE",
"635 682 OFFCURVE",
"622 694 CURVE SMOOTH",
"609 706 OFFCURVE",
"587 703 OFFCURVE",
"571 686 CURVE SMOOTH"
);
}
);
width = 555.712;
}
);
leftKerningGroup = Y;
rightKerningGroup = Y;
unicode = 0059;
},
{
glyphname = Z;
lastChange = "2013-12-18 08:31:18 +0400";
layers = (
{
anchors = (
{
name = top;
position = "{406, 700}";
}
);
layerId = "9764FC2E-EF50-4B10-BB5F-6BAA27A55E88";
name = Regular;
paths = (
{
closed = 1;
nodes = (
"198 700 LINE SMOOTH",
"177 700 OFFCURVE",
"159 686 OFFCURVE",
"155 666 CURVE SMOOTH",
"151 645 OFFCURVE",
"163 630 OFFCURVE",
"184 630 CURVE SMOOTH",
"555 630 LINE SMOOTH",
"559 630 OFFCURVE",
"559 627 OFFCURVE",
"556 624 CURVE SMOOTH",
"-7 55 LINE SMOOTH",
"-22 40 OFFCURVE",
"-22 21 OFFCURVE",
"-11 8 CURVE",
"-4 2 OFFCURVE",
"4 -1 OFFCURVE",
"14 0 CURVE",
"490 0 LINE SMOOTH",
"511 0 OFFCURVE",
"529 14 OFFCURVE",
"533 34 CURVE SMOOTH",
"537 55 OFFCURVE",
"526 70 OFFCURVE",
"505 70 CURVE SMOOTH",
"105 70 LINE SMOOTH",
"101 70 OFFCURVE",
"100 73 OFFCURVE",
"103 76 CURVE SMOOTH",
"664 643 LINE SMOOTH",
"676 654 OFFCURVE",
"679 666 OFFCURVE",
"678 677 CURVE",
"676 689 OFFCURVE",
"669 697 OFFCURVE",
"656 699 CURVE SMOOTH",
"653 700 OFFCURVE",
"649 700 OFFCURVE",
"645 700 CURVE"
);
}
);
width = 649.179;
}
);
leftKerningGroup = Z;
rightKerningGroup = Z;
unicode = 005A;
},
{
glyphname = A.ss01;
lastChange = "2013-12-18 08:31:18 +0400";
layers = (
{
layerId = "9764FC2E-EF50-4B10-BB5F-6BAA27A55E88";
name = Regular;
paths = (
{
closed = 1;
nodes = (
"747 700 OFFCURVE",
"729 685 OFFCURVE",
"725 664 CURVE SMOOTH",
"705 570 LINE SMOOTH",
"704 565 OFFCURVE",
"700 564 OFFCURVE",
"698 568 CURVE SMOOTH",
"662 650 OFFCURVE",
"571 710 OFFCURVE",
"466 710 CURVE SMOOTH",
"279 710 OFFCURVE",
"92 549 OFFCURVE",
"50 350 CURVE SMOOTH",
"8 151 OFFCURVE",
"125 -10 OFFCURVE",
"312 -10 CURVE SMOOTH",
"417 -10 OFFCURVE",
"534 50 OFFCURVE",
"606 132 CURVE SMOOTH",
"610 136 OFFCURVE",
"612 135 OFFCURVE",
"611 130 CURVE SMOOTH",
"591 36 LINE SMOOTH",
"587 15 OFFCURVE",
"598 0 OFFCURVE",
"618 0 CURVE SMOOTH",
"639 0 OFFCURVE",
"657 15 OFFCURVE",
"661 36 CURVE SMOOTH",
"795 664 LINE SMOOTH",
"799 685 OFFCURVE",
"787 700 OFFCURVE",
"767 700 CURVE SMOOTH"
);
},
{
closed = 1;
nodes = (
"180 60 OFFCURVE",
"86 189 OFFCURVE",
"120 350 CURVE SMOOTH",
"154 511 OFFCURVE",
"304 640 OFFCURVE",
"451 640 CURVE SMOOTH",
"598 640 OFFCURVE",
"692 511 OFFCURVE",
"658 350 CURVE SMOOTH",
"624 189 OFFCURVE",
"474 60 OFFCURVE",
"327 60 CURVE SMOOTH"
);
}
);
width = 818;
}
);
},
{
glyphname = E.ss01;
lastChange = "2013-12-18 08:31:18 +0400";
layers = (
{
layerId = "9764FC2E-EF50-4B10-BB5F-6BAA27A55E88";
name = Regular;
paths = (
{
closed = 1;
nodes = (
"787 550 OFFCURVE",
"677 710 OFFCURVE",
"475 710 CURVE SMOOTH",
"283 710 OFFCURVE",
"92 549 OFFCURVE",
"50 350 CURVE SMOOTH",
"8 151 OFFCURVE",
"129 -10 OFFCURVE",
"321 -10 CURVE SMOOTH",
"436 -10 OFFCURVE",
"528 18 OFFCURVE",
"614 90 CURVE SMOOTH",
"635 108 OFFCURVE",
"637 133 OFFCURVE",
"619 145 CURVE SMOOTH",
"607 154 OFFCURVE",
"590 151 OFFCURVE",
"575 139 CURVE SMOOTH",
"503 78 OFFCURVE",
"431 60 OFFCURVE",
"336 60 CURVE SMOOTH",
"192 60 OFFCURVE",
"98 174 OFFCURVE",
"115 321 CURVE SMOOTH",
"115 324 OFFCURVE",
"118 326 OFFCURVE",
"121 326 CURVE SMOOTH",
"703 326 LINE SMOOTH",
"724 326 OFFCURVE",
"742 341 OFFCURVE",
"747 362 CURVE SMOOTH",
"748 371 LINE SMOOTH"
);
},
{
closed = 1;
nodes = (
"139 396 LINE SMOOTH",
"135 396 OFFCURVE",
"134 398 OFFCURVE",
"135 401 CURVE SMOOTH",
"188 538 OFFCURVE",
"324 640 OFFCURVE",
"460 640 CURVE SMOOTH",
"595 640 OFFCURVE",
"688 537 OFFCURVE",
"682 401 CURVE SMOOTH",
"681 398 OFFCURVE",
"679 396 OFFCURVE",
"676 396 CURVE SMOOTH"
);
}
);
width = 794;
}
);
},
{
glyphname = M.ss01;
lastChange = "2013-12-18 08:31:18 +0400";
layers = (
{
layerId = "9764FC2E-EF50-4B10-BB5F-6BAA27A55E88";
name = Regular;
paths = (
{
closed = 1;
nodes = (
"226 665 LINE SMOOTH",
"230 686 OFFCURVE",
"220 701 OFFCURVE",
"200 701 CURVE SMOOTH",
"179 701 OFFCURVE",
"160 686 OFFCURVE",
"156 665 CURVE SMOOTH",
"22 36 LINE SMOOTH",
"18 15 OFFCURVE",
"29 0 OFFCURVE",
"49 0 CURVE SMOOTH",
"70 0 OFFCURVE",
"88 15 OFFCURVE",
"92 36 CURVE SMOOTH",
"167 388 LINE SMOOTH",
"200 545 OFFCURVE",
"306 640 OFFCURVE",
"443 640 CURVE SMOOTH",
"564 640 OFFCURVE",
"588 545 OFFCURVE",
"564 428 CURVE SMOOTH",
"480 36 LINE SMOOTH",
"476 15 OFFCURVE",
"487 0 OFFCURVE",
"507 0 CURVE SMOOTH",
"528 0 OFFCURVE",
"546 15 OFFCURVE",
"550 36 CURVE SMOOTH",
"625 388 LINE SMOOTH",
"658 545 OFFCURVE",
"774 640 OFFCURVE",
"911 640 CURVE SMOOTH",
"1027 640 OFFCURVE",
"1051 545 OFFCURVE",
"1027 428 CURVE SMOOTH",
"943 36 LINE SMOOTH",
"939 15 OFFCURVE",
"950 0 OFFCURVE",
"970 0 CURVE SMOOTH",
"991 0 OFFCURVE",
"1009 15 OFFCURVE",
"1013 36 CURVE SMOOTH",
"1097 428 LINE SMOOTH",
"1130 584 OFFCURVE",
"1080 710 OFFCURVE",
"925 710 CURVE SMOOTH",
"789 710 OFFCURVE",
"693 634 OFFCURVE",
"642 560 CURVE SMOOTH",
"639 556 OFFCURVE",
"636 556 OFFCURVE",
"636 560 CURVE SMOOTH",
"615 649 OFFCURVE",
"566 710 OFFCURVE",
"457 710 CURVE SMOOTH",
"354 710 OFFCURVE",
"276 664 OFFCURVE",
"217 597 CURVE SMOOTH",
"214 593 OFFCURVE",
"211 594 OFFCURVE",
"212 599 CURVE SMOOTH"
);
}
);
width = 1156;
}
);
},
{
glyphname = N.ss01;
lastChange = "2013-12-18 08:31:18 +0400";
layers = (
{
layerId = "9764FC2E-EF50-4B10-BB5F-6BAA27A55E88";
name = Regular;
paths = (
{
closed = 1;
nodes = (
"226 665 LINE SMOOTH",
"230 686 OFFCURVE",
"220 701 OFFCURVE",
"200 701 CURVE SMOOTH",
"179 701 OFFCURVE",
"160 686 OFFCURVE",
"156 665 CURVE SMOOTH",
"22 36 LINE SMOOTH",
"18 15 OFFCURVE",
"29 0 OFFCURVE",
"49 0 CURVE SMOOTH",
"70 0 OFFCURVE",
"88 15 OFFCURVE",
"92 36 CURVE SMOOTH",
"167 388 LINE SMOOTH",
"200 545 OFFCURVE",
"326 640 OFFCURVE",
"453 640 CURVE SMOOTH",
"579 640 OFFCURVE",
"623 545 OFFCURVE",
"599 428 CURVE SMOOTH",
"515 36 LINE SMOOTH",
"511 15 OFFCURVE",
"522 0 OFFCURVE",
"542 0 CURVE SMOOTH",
"563 0 OFFCURVE",
"581 15 OFFCURVE",
"585 36 CURVE SMOOTH",
"669 428 LINE SMOOTH",
"702 584 OFFCURVE",
"632 710 OFFCURVE",
"467 710 CURVE SMOOTH",
"374 710 OFFCURVE",
"286 664 OFFCURVE",
"217 597 CURVE SMOOTH",
"214 593 OFFCURVE",
"211 594 OFFCURVE",
"212 599 CURVE SMOOTH"
);
}
);
width = 733;
}
);
},
{
glyphname = Q.ss01;
lastChange = "2013-12-18 08:31:18 +0400";
layers = (
{
layerId = "9764FC2E-EF50-4B10-BB5F-6BAA27A55E88";
name = Regular;
paths = (
{
closed = 1;
nodes = (
"785 549 OFFCURVE",
"667 710 OFFCURVE",
"480 710 CURVE SMOOTH",
"293 710 OFFCURVE",
"107 549 OFFCURVE",
"65 350 CURVE SMOOTH",
"25 165 OFFCURVE",
"124 13 OFFCURVE",
"288 -8 CURVE SMOOTH",
"291 -8 OFFCURVE",
"292 -10 OFFCURVE",
"292 -13 CURVE SMOOTH",
"270 -113 LINE SMOOTH",
"266 -134 OFFCURVE",
"278 -149 OFFCURVE",
"298 -149 CURVE SMOOTH",
"318 -149 OFFCURVE",
"336 -134 OFFCURVE",
"340 -113 CURVE SMOOTH",
"362 -13 LINE SMOOTH",
"362 -10 OFFCURVE",
"365 -8 OFFCURVE",
"368 -8 CURVE SMOOTH",
"540 13 OFFCURVE",
"703 165 OFFCURVE",
"743 350 CURVE SMOOTH"
);
},
{
closed = 1;
nodes = (
"195 60 OFFCURVE",
"101 189 OFFCURVE",
"135 350 CURVE SMOOTH",
"169 511 OFFCURVE",
"318 640 OFFCURVE",
"465 640 CURVE SMOOTH",
"612 640 OFFCURVE",
"707 511 OFFCURVE",
"673 350 CURVE SMOOTH",
"639 189 OFFCURVE",
"489 60 OFFCURVE",
"342 60 CURVE SMOOTH"
);
}
);
width = 778;
}
);
},
{
glyphname = R.ss01;
lastChange = "2013-12-18 08:31:18 +0400";
layers = (
{
layerId = "9764FC2E-EF50-4B10-BB5F-6BAA27A55E88";
name = Regular;
paths = (
{
closed = 1;
nodes = (
"226 664 LINE SMOOTH",
"230 685 OFFCURVE",
"219 700 OFFCURVE",
"199 700 CURVE SMOOTH",
"179 700 OFFCURVE",
"160 685 OFFCURVE",
"156 664 CURVE SMOOTH",
"22 36 LINE SMOOTH",
"18 15 OFFCURVE",
"30 0 OFFCURVE",
"50 0 CURVE SMOOTH",
"70 0 OFFCURVE",
"88 15 OFFCURVE",
"92 36 CURVE SMOOTH",
"152 317 LINE SMOOTH",
"202 553 OFFCURVE",
"365 603 OFFCURVE",
"497 637 CURVE SMOOTH",
"528 645 OFFCURVE",
"533 670 OFFCURVE",
"531 684 CURVE SMOOTH",
"529 699 OFFCURVE",
"516 709 OFFCURVE",
"492 708 CURVE SMOOTH",
"425 705 OFFCURVE",
"304 657 OFFCURVE",
"209 557 CURVE SMOOTH",
"205 553 OFFCURVE",
"203 554 OFFCURVE",
"204 559 CURVE SMOOTH"
);
}
);
width = 473.504;
}
);
},
{
glyphname = U.ss01;
lastChange = "2013-12-18 08:31:18 +0400";
layers = (
{
layerId = "9764FC2E-EF50-4B10-BB5F-6BAA27A55E88";
name = Regular;
paths = (
{
closed = 1;
nodes = (
"507 45 LINE SMOOTH",
"503 24 OFFCURVE",
"513 9 OFFCURVE",
"533 9 CURVE SMOOTH",
"554 9 OFFCURVE",
"573 24 OFFCURVE",
"577 45 CURVE SMOOTH",
"711 674 LINE SMOOTH",
"715 695 OFFCURVE",
"704 710 OFFCURVE",
"684 710 CURVE SMOOTH",
"663 710 OFFCURVE",
"645 695 OFFCURVE",
"641 674 CURVE SMOOTH",
"566 322 LINE SMOOTH",
"533 165 OFFCURVE",
"407 70 OFFCURVE",
"280 70 CURVE SMOOTH",
"154 70 OFFCURVE",
"110 165 OFFCURVE",
"134 282 CURVE SMOOTH",
"218 674 LINE SMOOTH",
"222 695 OFFCURVE",
"211 710 OFFCURVE",
"191 710 CURVE SMOOTH",
"170 710 OFFCURVE",
"152 695 OFFCURVE",
"148 674 CURVE SMOOTH",
"64 282 LINE SMOOTH",
"31 126 OFFCURVE",
"101 0 OFFCURVE",
"266 0 CURVE SMOOTH",
"359 0 OFFCURVE",
"447 46 OFFCURVE",
"516 113 CURVE SMOOTH",
"519 117 OFFCURVE",
"522 116 OFFCURVE",
"521 111 CURVE SMOOTH"
);
}
);
width = 733;
}
);
},
{
glyphname = W.ss01;
lastChange = "2013-12-18 08:31:18 +0400";
layers = (
{
layerId = "9764FC2E-EF50-4B10-BB5F-6BAA27A55E88";
name = Regular;
paths = (
{
closed = 1;
nodes = (
"972 271 LINE SMOOTH",
"947 154 OFFCURVE",
"832 60 OFFCURVE",
"735 60 CURVE SMOOTH",
"618 60 OFFCURVE",
"563 154 OFFCURVE",
"588 271 CURVE SMOOTH",
"672 664 LINE SMOOTH",
"676 685 OFFCURVE",
"665 700 OFFCURVE",
"645 700 CURVE SMOOTH",
"645 700 OFFCURVE",
"645 700 OFFCURVE",
"645 700 CURVE SMOOTH",
"625 700 OFFCURVE",
"607 686 OFFCURVE",
"602 665 CURVE SMOOTH",
"602 664 LINE",
"518 271 LINE SMOOTH",
"493 154 OFFCURVE",
"398 60 OFFCURVE",
"281 60 CURVE SMOOTH",
"164 60 OFFCURVE",
"109 154 OFFCURVE",
"134 271 CURVE SMOOTH",
"218 664 LINE SMOOTH",
"222 685 OFFCURVE",
"211 700 OFFCURVE",
"191 700 CURVE SMOOTH",
"170 700 OFFCURVE",
"152 685 OFFCURVE",
"148 664 CURVE SMOOTH",
"64 271 LINE SMOOTH",
"31 116 OFFCURVE",
"111 -10 OFFCURVE",
"267 -10 CURVE SMOOTH",
"369 -10 OFFCURVE",
"474 55 OFFCURVE",
"525 136 CURVE",
"540 55 OFFCURVE",
"618 -10 OFFCURVE",
"721 -10 CURVE SMOOTH",
"857 -10 OFFCURVE",
"1009 116 OFFCURVE",
"1042 271 CURVE SMOOTH",
"1126 664 LINE SMOOTH",
"1130 685 OFFCURVE",
"1118 700 OFFCURVE",
"1098 700 CURVE SMOOTH",
"1078 700 OFFCURVE",
"1060 685 OFFCURVE",
"1056 664 CURVE SMOOTH"
);
}
);
width = 1138;
}
);
},
{
glyphname = a;
lastChange = "2013-12-18 08:31:18 +0400";
layers = (
{
anchors = (
{
name = ogonek;
position = "{538, 10}";
},
{
name = top;
position = "{396, 515}";
}
);
layerId = "9764FC2E-EF50-4B10-BB5F-6BAA27A55E88";
name = Regular;
paths = (
{
closed = 1;
nodes = (
"596 474 LINE SMOOTH",
"600 494 OFFCURVE",
"591 511 OFFCURVE",
"573 515 CURVE SMOOTH",
"552 520 OFFCURVE",
"536 507 OFFCURVE",
"531 486 CURVE SMOOTH",
"514 415 LINE SMOOTH",
"513 410 OFFCURVE",
"509 409 OFFCURVE",
"507 414 CURVE SMOOTH",
"479 484 OFFCURVE",
"403 525 OFFCURVE",
"323 525 CURVE SMOOTH",
"184 525 OFFCURVE",
"59 405 OFFCURVE",
"44 257 CURVE SMOOTH",
"28 109 OFFCURVE",
"127 -10 OFFCURVE",
"266 -10 CURVE SMOOTH",
"332 -10 OFFCURVE",
"402 17 OFFCURVE",
"449 72 CURVE SMOOTH",
"451 75 OFFCURVE",
"454 74 OFFCURVE",
"455 70 CURVE SMOOTH",
"462 29 OFFCURVE",
"489 -10 OFFCURVE",
"533 -10 CURVE SMOOTH",
"548 -10 OFFCURVE",
"565 -7 OFFCURVE",
"583 1 CURVE SMOOTH",
"600 8 OFFCURVE",
"610 24 OFFCURVE",
"606 42 CURVE SMOOTH",
"601 63 OFFCURVE",
"581 71 OFFCURVE",
"558 61 CURVE SMOOTH",
"521 44 OFFCURVE",
"511 77 OFFCURVE",
"519 114 CURVE SMOOTH"
);
},
{
closed = 1;
nodes = (
"175 60 OFFCURVE",
"102 147 OFFCURVE",
"114 257 CURVE SMOOTH",
"125 367 OFFCURVE",
"216 455 OFFCURVE",
"315 455 CURVE SMOOTH",
"414 455 OFFCURVE",
"488 367 OFFCURVE",
"477 257 CURVE SMOOTH",
"465 147 OFFCURVE",
"373 60 OFFCURVE",
"274 60 CURVE SMOOTH"
);
}
);
width = 656.879;
}
);
leftKerningGroup = a;
rightKerningGroup = a;
unicode = 0061;
},
{
glyphname = ae;
lastChange = "2013-12-18 08:31:18 +0400";
layers = (
{
anchors = (
{
name = bottom;
position = "{722, 0}";
},
{
name = ogonek;
position = "{948, 10}";
},
{
name = top;
position = "{722, 515}";
}
);
layerId = "9764FC2E-EF50-4B10-BB5F-6BAA27A55E88";
leftMetricsKey = a;
rightMetricsKey = e;
name = Regular;
paths = (
{
closed = 1;
nodes = (
"716 168 OFFCURVE",
"970 193 OFFCURVE",
"970 369 CURVE SMOOTH",
"970 462 OFFCURVE",
"889 525 OFFCURVE",
"766 525 CURVE SMOOTH",
"712 525 OFFCURVE",
"652 508 OFFCURVE",
"602 472 CURVE SMOOTH",
"598 469 OFFCURVE",
"595 470 OFFCURVE",
"596 474 CURVE SMOOTH",
"600 494 OFFCURVE",
"591 511 OFFCURVE",
"573 515 CURVE SMOOTH",
"552 520 OFFCURVE",
"532 507 OFFCURVE",
"528 486 CURVE SMOOTH",
"522 454 LINE",
"513 412 LINE",
"511 410 OFFCURVE",
"509 410 OFFCURVE",
"507 414 CURVE",
"479 484 OFFCURVE",
"403 525 OFFCURVE",
"323 525 CURVE SMOOTH",
"184 525 OFFCURVE",
"59 405 OFFCURVE",
"44 257 CURVE SMOOTH",
"28 109 OFFCURVE",
"127 -10 OFFCURVE",
"266 -10 CURVE SMOOTH",
"324 -10 OFFCURVE",
"385 11 OFFCURVE",
"430 53 CURVE SMOOTH",
"434 56 OFFCURVE",
"437 54 OFFCURVE",
"436 50 CURVE SMOOTH",
"433 36 LINE SMOOTH",
"428 15 OFFCURVE",
"441 0 OFFCURVE",
"461 0 CURVE SMOOTH",
"487 0 OFFCURVE",
"498 15 OFFCURVE",
"503 36 CURVE SMOOTH",
"512 78 LINE SMOOTH",
"513 83 OFFCURVE",
"516 83 OFFCURVE",
"519 80 CURVE SMOOTH",
"568 9 OFFCURVE",
"655 -10 OFFCURVE",
"713 -10 CURVE SMOOTH",
"780 -10 OFFCURVE",
"844 12 OFFCURVE",
"891 53 CURVE",
"907 68 OFFCURVE",
"905 90 OFFCURVE",
"890 103 CURVE SMOOTH",
"875 116 OFFCURVE",
"856 114 OFFCURVE",
"841 101 CURVE SMOOTH",
"813 75 OFFCURVE",
"777 60 OFFCURVE",
"723 60 CURVE SMOOTH",
"682 60 OFFCURVE",
"567 64 OFFCURVE",
"553 190 CURVE",
"552 194 OFFCURVE",
"554 196 OFFCURVE",
"558 195 CURVE"
);
},
{
closed = 1;
nodes = (
"465 147 OFFCURVE",
"373 60 OFFCURVE",
"274 60 CURVE SMOOTH",
"175 60 OFFCURVE",
"102 147 OFFCURVE",
"114 257 CURVE SMOOTH",
"125 367 OFFCURVE",
"216 455 OFFCURVE",
"315 455 CURVE SMOOTH",
"414 455 OFFCURVE",
"488 367 OFFCURVE",
"477 257 CURVE SMOOTH"
);
},
{
closed = 1;
nodes = (
"835 455 OFFCURVE",
"900 431 OFFCURVE",
"900 373 CURVE SMOOTH",
"900 251 OFFCURVE",
"698 239 OFFCURVE",
"560 265 CURVE",
"557 266 OFFCURVE",
"555 268 OFFCURVE",
"556 271 CURVE",
"581 424 OFFCURVE",
"712 455 OFFCURVE",
"773 455 CURVE SMOOTH"
);
}
);
width = 1005;
}
);
leftMetricsKey = a;
rightMetricsKey = e;
unicode = 00E6;
},
{
glyphname = b;
lastChange = "2013-12-18 08:31:18 +0400";
layers = (
{
anchors = (
{
name = top;
position = "{415, 515}";
}
);
layerId = "9764FC2E-EF50-4B10-BB5F-6BAA27A55E88";
name = Regular;
paths = (
{
closed = 1;
nodes = (
"291 525 OFFCURVE",
"222 500 OFFCURVE",
"185 458 CURVE SMOOTH",
"182 455 OFFCURVE",
"179 457 OFFCURVE",
"180 462 CURVE SMOOTH",
"232 700 LINE SMOOTH",
"236 719 OFFCURVE",
"226 740 OFFCURVE",
"201 740 CURVE SMOOTH",
"181 740 OFFCURVE",
"166 725 OFFCURVE",
"162 704 CURVE SMOOTH",
"20 40.9999 LINE SMOOTH",
"15 15.9999 OFFCURVE",
"32 0 OFFCURVE",
"53 0 CURVE SMOOTH",
"68 0 OFFCURVE",
"82 6 OFFCURVE",
"89 33.9999 CURVE SMOOTH",
"104 98 LINE SMOOTH",
"105 102 OFFCURVE",
"108 103 OFFCURVE",
"110 99 CURVE SMOOTH",
"141 31 OFFCURVE",
"213 -10 OFFCURVE",
"292 -10 CURVE SMOOTH",
"431 -10 OFFCURVE",
"557 109 OFFCURVE",
"573 257 CURVE SMOOTH",
"588 405 OFFCURVE",
"488 525 OFFCURVE",
"349 525 CURVE SMOOTH"
);
},
{
closed = 1;
nodes = (
"491 147 OFFCURVE",
"399 59.9998 OFFCURVE",
"300 59.9998 CURVE SMOOTH",
"201 59.9998 OFFCURVE",
"128 147 OFFCURVE",
"140 257 CURVE SMOOTH",
"151 367 OFFCURVE",
"242 455 OFFCURVE",
"341 455 CURVE SMOOTH",
"440 455 OFFCURVE",
"514 367 OFFCURVE",
"503 257 CURVE SMOOTH"
);
}
);
width = 627;
}
);
leftKerningGroup = b;
rightKerningGroup = b;
unicode = 0062;
},
{
glyphname = c;
lastChange = "2013-12-18 08:31:18 +0400";
layers = (
{
anchors = (
{
name = bottom;
position = "{201, 0}";
},
{
name = top;
position = "{311, 515}";
}
);
layerId = "9764FC2E-EF50-4B10-BB5F-6BAA27A55E88";
name = Regular;
paths = (
{
closed = 1;
nodes = (
"463 479 OFFCURVE",
"406 525 OFFCURVE",
"329 525 CURVE SMOOTH",
"199 525 OFFCURVE",
"75 435 OFFCURVE",
"45 277 CURVE SMOOTH",
"16 126 OFFCURVE",
"113 -10 OFFCURVE",
"265 -10 CURVE SMOOTH",
"351 -10 OFFCURVE",
"404 31 OFFCURVE",
"426 48 CURVE SMOOTH",
"443 61 OFFCURVE",
"451 83 OFFCURVE",
"439 99 CURVE SMOOTH",
"428 113 OFFCURVE",
"408 117 OFFCURVE",
"387 102 CURVE SMOOTH",
"372 91 OFFCURVE",
"338 60 OFFCURVE",
"270 60 CURVE SMOOTH",
"156 60 OFFCURVE",
"95 169 OFFCURVE",
"115 277 CURVE SMOOTH",
"137 396 OFFCURVE",
"240 456 OFFCURVE",
"314 456 CURVE SMOOTH",
"354 456 OFFCURVE",
"395 437 OFFCURVE",
"426 408 CURVE SMOOTH",
"449 387 OFFCURVE",
"468 392 OFFCURVE",
"482 404 CURVE SMOOTH",
"494 414 OFFCURVE",
"499 437 OFFCURVE",
"486 452 CURVE SMOOTH"
);
}
);
width = 525.967;
}
);
leftKerningGroup = c;
rightKerningGroup = c;
unicode = 0063;
},
{
glyphname = cdotaccent;
lastChange = "2013-12-18 08:31:18 +0400";
layers = (
{
layerId = "9764FC2E-EF50-4B10-BB5F-6BAA27A55E88";
name = Regular;
paths = (
{
closed = 1;
nodes = (
"377 494 OFFCURVE",
"333 505 OFFCURVE",
"290 505 CURVE SMOOTH",
"146 505 OFFCURVE",
"29 392 OFFCURVE",
"29 250 CURVE SMOOTH",
"29 109 OFFCURVE",
"146 -5 OFFCURVE",
"290 -5 CURVE SMOOTH",
"333 -5 OFFCURVE",
"378 7 OFFCURVE",
"415 27 CURVE SMOOTH",
"437 39 OFFCURVE",
"441 66 OFFCURVE",
"426 86 CURVE SMOOTH",
"413 102 OFFCURVE",
"393 105 OFFCURVE",
"374 95 CURVE SMOOTH",
"349 82 OFFCURVE",
"320 75 OFFCURVE",
"290 75 CURVE SMOOTH",
"190 75 OFFCURVE",
"109 155 OFFCURVE",
"109 250 CURVE SMOOTH",
"109 346 OFFCURVE",
"190 425 OFFCURVE",
"290 425 CURVE SMOOTH",
"320 425 OFFCURVE",
"348 419 OFFCURVE",
"373 406 CURVE SMOOTH",
"392 397 OFFCURVE",
"412 398 OFFCURVE",
"424 414 CURVE SMOOTH",
"441 434 OFFCURVE",
"438 463 OFFCURVE",
"414 475 CURVE SMOOTH"
);
},
{
closed = 1;
nodes = (
"288 676 OFFCURVE",
"268 696 OFFCURVE",
"241 696 CURVE SMOOTH",
"214 696 OFFCURVE",
"194 676 OFFCURVE",
"194 648 CURVE SMOOTH",
"194 620 OFFCURVE",
"214 600 OFFCURVE",
"241 600 CURVE SMOOTH",
"268 600 OFFCURVE",
"288 620 OFFCURVE",
"288 648 CURVE SMOOTH"
);
}
);
width = 463;
}
);
unicode = 010B;
},
{
glyphname = d;
lastChange = "2013-12-18 08:31:18 +0400";
layers = (
{
anchors = (
{
name = center;
position = "{311, 258}";
},
{
name = topright;
position = "{659, 515}";
}
);
layerId = "9764FC2E-EF50-4B10-BB5F-6BAA27A55E88";
name = Regular;
paths = (
{
closed = 1;
nodes = (
"641 698 LINE SMOOTH",
"645 718 OFFCURVE",
"636 735 OFFCURVE",
"618 739 CURVE SMOOTH",
"597 744 OFFCURVE",
"580 731 OFFCURVE",
"576 710 CURVE SMOOTH",
"512 415 LINE SMOOTH",
"511 410 OFFCURVE",
"507 409 OFFCURVE",
"505 414 CURVE SMOOTH",
"477 484 OFFCURVE",
"401 525 OFFCURVE",
"321 525 CURVE SMOOTH",
"182 525 OFFCURVE",
"57 405 OFFCURVE",
"42 257 CURVE SMOOTH",
"26 109 OFFCURVE",
"125 -10 OFFCURVE",
"264 -10 CURVE SMOOTH",
"330 -10 OFFCURVE",
"400 17 OFFCURVE",
"447 72 CURVE SMOOTH",
"449 75 OFFCURVE",
"452 74 OFFCURVE",
"453 70 CURVE SMOOTH",
"460 29 OFFCURVE",
"487 -10 OFFCURVE",
"531 -10 CURVE SMOOTH",
"546 -10 OFFCURVE",
"563 -7 OFFCURVE",
"581 1 CURVE SMOOTH",
"598 8 OFFCURVE",
"608 24 OFFCURVE",
"604 42 CURVE SMOOTH",
"599 63 OFFCURVE",
"579 71 OFFCURVE",
"556 61 CURVE SMOOTH",
"519 44 OFFCURVE",
"509 77 OFFCURVE",
"517 114 CURVE SMOOTH"
);
},
{
closed = 1;
nodes = (
"173 60 OFFCURVE",
"100 147 OFFCURVE",
"112 257 CURVE SMOOTH",
"123 367 OFFCURVE",
"214 455 OFFCURVE",
"313 455 CURVE SMOOTH",
"412 455 OFFCURVE",
"486 367 OFFCURVE",
"475 257 CURVE SMOOTH",
"463 147 OFFCURVE",
"371 60 OFFCURVE",
"272 60 CURVE SMOOTH"
);
}
);
width = 661.938;
}
);
leftKerningGroup = c;
rightKerningGroup = d;
unicode = 0064;
},
{
glyphname = eth;
lastChange = "2013-12-18 08:31:18 +0400";
layers = (
{
layerId = "9764FC2E-EF50-4B10-BB5F-6BAA27A55E88";
name = Regular;
paths = (
{
closed = 1;
nodes = (
"477 598 LINE SMOOTH",
"493 604 OFFCURVE",
"502 619 OFFCURVE",
"498 634 CURVE",
"493 651 OFFCURVE",
"478 659 OFFCURVE",
"460 653 CURVE SMOOTH",
"380 623 LINE SMOOTH",
"377 622 OFFCURVE",
"375 623 OFFCURVE",
"373 624 CURVE SMOOTH",
"337 658 OFFCURVE",
"291 684 OFFCURVE",
"233 699 CURVE SMOOTH",
"212 704 OFFCURVE",
"192 691 OFFCURVE",
"187 671 CURVE SMOOTH",
"182 650 OFFCURVE",
"192 635 OFFCURVE",
"212 630 CURVE SMOOTH",
"243 623 OFFCURVE",
"269 611 OFFCURVE",
"291 597 CURVE SMOOTH",
"295 595 OFFCURVE",
"294 592 OFFCURVE",
"290 590 CURVE SMOOTH",
"176 548 LINE SMOOTH",
"160 542 OFFCURVE",
"151 527 OFFCURVE",
"155 512 CURVE",
"160 495 OFFCURVE",
"175 487 OFFCURVE",
"193 493 CURVE SMOOTH",
"341 548 LINE SMOOTH",
"344 549 OFFCURVE",
"346 549 OFFCURVE",
"348 546 CURVE SMOOTH",
"379 508 OFFCURVE",
"397 460 OFFCURVE",
"407 413 CURVE",
"409 408 OFFCURVE",
"405 406 OFFCURVE",
"402 409 CURVE",
"369 431 OFFCURVE",
"330 445 OFFCURVE",
"285 445 CURVE SMOOTH",
"162 445 OFFCURVE",
"51 342 OFFCURVE",
"38 218 CURVE SMOOTH",
"25 93 OFFCURVE",
"114 -10 OFFCURVE",
"237 -10 CURVE SMOOTH",
"360 -10 OFFCURVE",
"463 82 OFFCURVE",
"488 208 CURVE SMOOTH",
"505 301 OFFCURVE",
"499 457 OFFCURVE",
"420 571 CURVE SMOOTH",
"418 574 OFFCURVE",
"418 577 OFFCURVE",
"422 578 CURVE SMOOTH"
);
},
{
closed = 1;
nodes = (
"159 60 OFFCURVE",
"98 129 OFFCURVE",
"108 218 CURVE SMOOTH",
"117 306 OFFCURVE",
"192 375 OFFCURVE",
"277 375 CURVE SMOOTH",
"362 375 OFFCURVE",
"423 306 OFFCURVE",
"414 218 CURVE SMOOTH",
"404 129 OFFCURVE",
"329 60 OFFCURVE",
"244 60 CURVE SMOOTH"
);
}
);
width = 527;
}
);
leftMetricsKey = o;
rightMetricsKey = o;
unicode = 00F0;
},
{
glyphname = dcroat;
lastChange = "2013-12-18 08:31:18 +0400";
layers = (
{
anchors = (
{
name = _top;
position = "{275, 500}";
},
{
name = center;
position = "{313, 258}";
},
{
name = topright;
position = "{606, 515}";
}
);
layerId = "9764FC2E-EF50-4B10-BB5F-6BAA27A55E88";
name = Regular;
paths = (
{
closed = 1;
nodes = (
"632 627 LINE SMOOTH",
"628 627 OFFCURVE",
"626 629 OFFCURVE",
"627 632 CURVE SMOOTH",
"641 698 LINE SMOOTH",
"645 718 OFFCURVE",
"636 735 OFFCURVE",
"618 739 CURVE SMOOTH",
"597 744 OFFCURVE",
"580 731 OFFCURVE",
"576 710 CURVE SMOOTH",
"559 631 LINE SMOOTH",
"558 628 OFFCURVE",
"557 627 OFFCURVE",
"553 627 CURVE SMOOTH",
"445 627 LINE SMOOTH",
"421 627 OFFCURVE",
"404 611 OFFCURVE",
"404 596 CURVE SMOOTH",
"404 572 OFFCURVE",
"421 560 OFFCURVE",
"445 560 CURVE SMOOTH",
"538 560 LINE SMOOTH",
"541 560 OFFCURVE",
"543 558 OFFCURVE",
"542 555 CURVE SMOOTH",
"512 415 LINE SMOOTH",
"511 410 OFFCURVE",
"507 409 OFFCURVE",
"505 414 CURVE SMOOTH",
"477 484 OFFCURVE",
"401 525 OFFCURVE",
"321 525 CURVE SMOOTH",
"182 525 OFFCURVE",
"57 405 OFFCURVE",
"42 257 CURVE SMOOTH",
"26 109 OFFCURVE",
"125 -10 OFFCURVE",
"264 -10 CURVE SMOOTH",
"330 -10 OFFCURVE",
"400 17 OFFCURVE",
"447 72 CURVE",
"449 75 OFFCURVE",
"452 74 OFFCURVE",
"453 70 CURVE",
"460 29 OFFCURVE",
"487 -10 OFFCURVE",
"531 -10 CURVE SMOOTH",
"546 -10 OFFCURVE",
"563 -7 OFFCURVE",
"581 1 CURVE SMOOTH",
"598 8 OFFCURVE",
"608 24 OFFCURVE",
"604 42 CURVE SMOOTH",
"599 63 OFFCURVE",
"579 71 OFFCURVE",
"556 61 CURVE SMOOTH",
"519 44 OFFCURVE",
"509 77 OFFCURVE",
"517 114 CURVE SMOOTH",
"611 556 LINE SMOOTH",
"611 559 OFFCURVE",
"613 560 OFFCURVE",
"616 560 CURVE SMOOTH",
"679 560 LINE SMOOTH",
"703 560 OFFCURVE",
"720 574 OFFCURVE",
"720 594 CURVE SMOOTH",
"720 613 OFFCURVE",
"703 627 OFFCURVE",
"679 627 CURVE SMOOTH"
);
},
{
closed = 1;
nodes = (
"463 147 OFFCURVE",
"371 60 OFFCURVE",
"272 60 CURVE SMOOTH",
"173 60 OFFCURVE",
"100 147 OFFCURVE",
"112 257 CURVE SMOOTH",
"123 367 OFFCURVE",
"214 455 OFFCURVE",
"313 455 CURVE SMOOTH",
"412 455 OFFCURVE",
"486 367 OFFCURVE",
"475 257 CURVE SMOOTH"
);
}
);
width = 667;
}
);
leftMetricsKey = d;
unicode = 0111;
},
{
glyphname = e;
lastChange = "2013-12-18 08:31:18 +0400";
layers = (
{
anchors = (
{
name = bottom;
position = "{283, 0}";
},
{
name = ogonek;
position = "{509, 10}";
},
{
name = top;
position = "{283, 515}";
}
);
layerId = "9764FC2E-EF50-4B10-BB5F-6BAA27A55E88";
name = Regular;
paths = (
{
closed = 1;
nodes = (
"531 462 OFFCURVE",
"450 525 OFFCURVE",
"327 525 CURVE SMOOTH",
"209 525 OFFCURVE",
"66 443 OFFCURVE",
"44 268 CURVE SMOOTH",
"15 39 OFFCURVE",
"182 -10 OFFCURVE",
"274 -10 CURVE SMOOTH",
"341 -10 OFFCURVE",
"405 12 OFFCURVE",
"452 53 CURVE",
"468 68 OFFCURVE",
"466 90 OFFCURVE",
"451 103 CURVE SMOOTH",
"436 116 OFFCURVE",
"417 114 OFFCURVE",
"402 101 CURVE SMOOTH",
"374 75 OFFCURVE",
"338 60 OFFCURVE",
"284 60 CURVE SMOOTH",
"243 60 OFFCURVE",
"128 64 OFFCURVE",
"114 190 CURVE SMOOTH",
"113 194 OFFCURVE",
"115 196 OFFCURVE",
"119 195 CURVE SMOOTH",
"277 168 OFFCURVE",
"531 193 OFFCURVE",
"531 369 CURVE"
);
},
{
closed = 1;
nodes = (
"396 455 OFFCURVE",
"461 431 OFFCURVE",
"461 373 CURVE SMOOTH",
"461 251 OFFCURVE",
"259 239 OFFCURVE",
"121 265 CURVE SMOOTH",
"118 266 OFFCURVE",
"116 268 OFFCURVE",
"117 271 CURVE SMOOTH",
"142 424 OFFCURVE",
"273 455 OFFCURVE",
"334 455 CURVE SMOOTH"
);
}
);
width = 566;
}
);
leftKerningGroup = c;
rightKerningGroup = e;
unicode = 0065;
},
{
glyphname = f;
lastChange = "2013-12-18 08:31:18 +0400";
layers = (
{
layerId = "9764FC2E-EF50-4B10-BB5F-6BAA27A55E88";
name = Regular;
paths = (
{
closed = 1;
nodes = (
"36 66 OFFCURVE",
"17 -26 OFFCURVE",
"4 -63 CURVE SMOOTH",
"-8 -96 OFFCURVE",
"-25 -127 OFFCURVE",
"-69 -127 CURVE SMOOTH",
"-86 -127 OFFCURVE",
"-108 -135 OFFCURVE",
"-110 -162 CURVE SMOOTH",
"-112 -191 OFFCURVE",
"-86 -200 OFFCURVE",
"-69 -200 CURVE SMOOTH",
"9 -200 OFFCURVE",
"43 -158 OFFCURVE",
"71 -74 CURVE SMOOTH",
"87 -29 OFFCURVE",
"115 92 OFFCURVE",
"151 266 CURVE SMOOTH",
"188 446 LINE",
"281 446 LINE SMOOTH",
"298 446 OFFCURVE",
"312 453 OFFCURVE",
"316 469 CURVE SMOOTH",
"323 494 OFFCURVE",
"307 515 OFFCURVE",
"281 515 CURVE SMOOTH",
"204 515 LINE",
"224 599 OFFCURVE",
"244 671 OFFCURVE",
"306 661 CURVE SMOOTH",
"319 659 OFFCURVE",
"334 653 OFFCURVE",
"346 650 CURVE SMOOTH",
"367 644 OFFCURVE",
"387 648 OFFCURVE",
"395 667 CURVE SMOOTH",
"403 686 OFFCURVE",
"398 704 OFFCURVE",
"374 715 CURVE SMOOTH",
"357 723 OFFCURVE",
"339 728 OFFCURVE",
"314 728 CURVE SMOOTH",
"206 728 OFFCURVE",
"164 655 OFFCURVE",
"134 515 CURVE",
"78 515 LINE SMOOTH",
"61 515 OFFCURVE",
"48 505 OFFCURVE",
"44 489 CURVE SMOOTH",
"36 464 OFFCURVE",
"52 446 OFFCURVE",
"78 446 CURVE SMOOTH",
"119 446 LINE",
"81 271 LINE SMOOTH"
);
}
);
width = 318.534;
}
);
leftKerningGroup = f;
rightKerningGroup = f;
unicode = 0066;
},
{
glyphname = g;
lastChange = "2013-12-18 08:31:18 +0400";
layers = (
{
anchors = (
{
name = top;
position = "{370, 515}";
}
);
layerId = "9764FC2E-EF50-4B10-BB5F-6BAA27A55E88";
name = Regular;
paths = (
{
closed = 1;
nodes = (
"549 515 OFFCURVE",
"532 500 OFFCURVE",
"527 479 CURVE SMOOTH",
"516 427 LINE SMOOTH",
"515 422 OFFCURVE",
"512 422 OFFCURVE",
"509 425 CURVE SMOOTH",
"470 486 OFFCURVE",
"403 525 OFFCURVE",
"324 525 CURVE SMOOTH",
"185 525 OFFCURVE",
"60 405 OFFCURVE",
"45 257 CURVE SMOOTH",
"29 109 OFFCURVE",
"128 -10 OFFCURVE",
"267 -10 CURVE SMOOTH",
"324 -10 OFFCURVE",
"399 17 OFFCURVE",
"434 62 CURVE SMOOTH",
"437 66 OFFCURVE",
"440 65 OFFCURVE",
"439 60 CURVE SMOOTH",
"426 4 LINE SMOOTH",
"403 -96 OFFCURVE",
"310 -140 OFFCURVE",
"232 -140 CURVE SMOOTH",
"167 -140 OFFCURVE",
"128 -122 OFFCURVE",
"105 -102 CURVE SMOOTH",
"91 -89 OFFCURVE",
"69 -96 OFFCURVE",
"56 -110 CURVE SMOOTH",
"42 -125 OFFCURVE",
"44 -146 OFFCURVE",
"53 -155 CURVE",
"80 -186 OFFCURVE",
"146 -210 OFFCURVE",
"217 -210 CURVE SMOOTH",
"373 -210 OFFCURVE",
"466 -140 OFFCURVE",
"496 4 CURVE SMOOTH",
"597 479 LINE SMOOTH",
"602 500 OFFCURVE",
"590 515 OFFCURVE",
"569 515 CURVE SMOOTH"
);
},
{
closed = 1;
nodes = (
"176 60 OFFCURVE",
"103 147 OFFCURVE",
"115 257 CURVE SMOOTH",
"126 367 OFFCURVE",
"217 455 OFFCURVE",
"316 455 CURVE SMOOTH",
"415 455 OFFCURVE",
"489 367 OFFCURVE",
"478 257 CURVE SMOOTH",
"466 147 OFFCURVE",
"374 60 OFFCURVE",
"275 60 CURVE SMOOTH"
);
}
);
width = 627;
}
);
leftKerningGroup = g;
rightKerningGroup = g;
unicode = 0067;
},
{
glyphname = h;
lastChange = "2013-12-18 08:31:18 +0400";
layers = (
{
anchors = (
{
name = center;
position = "{254, 258}";
},
{
name = top;
position = "{309, 515}";
}
);
layerId = "9764FC2E-EF50-4B10-BB5F-6BAA27A55E88";
name = Regular;
paths = (
{
closed = 1;
nodes = (
"520 70 OFFCURVE",
"498 67 OFFCURVE",
"481 60 CURVE SMOOTH",
"446 45 OFFCURVE",
"434 75 OFFCURVE",
"450 144 CURVE SMOOTH",
"470 232 OFFCURVE",
"476 255 OFFCURVE",
"491 330 CURVE SMOOTH",
"513 438 OFFCURVE",
"438 525 OFFCURVE",
"327 525 CURVE SMOOTH",
"273 525 OFFCURVE",
"214 498 OFFCURVE",
"177 447 CURVE",
"178 454 OFFCURVE",
"228 696 OFFCURVE",
"229 702 CURVE SMOOTH",
"232 719 OFFCURVE",
"221 736 OFFCURVE",
"202 739 CURVE SMOOTH",
"180 742 OFFCURVE",
"163 732 OFFCURVE",
"158 707 CURVE SMOOTH",
"21 42 LINE SMOOTH",
"17 22 OFFCURVE",
"28 5 OFFCURVE",
"48 0 CURVE",
"69 -4 OFFCURVE",
"88 7 OFFCURVE",
"92 29 CURVE SMOOTH",
"144 302 LINE SMOOTH",
"163 402 OFFCURVE",
"223 442 OFFCURVE",
"294 451 CURVE SMOOTH",
"344 457 OFFCURVE",
"399 444 OFFCURVE",
"420 385 CURVE SMOOTH",
"426 368 OFFCURVE",
"428 348 OFFCURVE",
"423 324 CURVE SMOOTH",
"416 288 OFFCURVE",
"395 195 OFFCURVE",
"384 151 CURVE SMOOTH",
"354 32 OFFCURVE",
"398 -10 OFFCURVE",
"461 -10 CURVE SMOOTH",
"472 -10 OFFCURVE",
"484 -7 OFFCURVE",
"496 -4 CURVE SMOOTH",
"524 4 OFFCURVE",
"538 25 OFFCURVE",
"530 45 CURVE SMOOTH"
);
}
);
width = 572.047;
}
);
leftKerningGroup = b;
rightKerningGroup = h;
unicode = 0068;
},
{
glyphname = hbar;
lastChange = "2013-12-18 08:31:18 +0400";
layers = (
{
anchors = (
{
name = center;
position = "{304, 258}";
},
{
name = top;
position = "{304, 515}";
}
);
layerId = "9764FC2E-EF50-4B10-BB5F-6BAA27A55E88";
name = Regular;
paths = (
{
closed = 1;
nodes = (
"520 70 OFFCURVE",
"498 67 OFFCURVE",
"481 60 CURVE SMOOTH",
"446 45 OFFCURVE",
"434 75 OFFCURVE",
"450 144 CURVE SMOOTH",
"470 232 OFFCURVE",
"476 255 OFFCURVE",
"491 330 CURVE SMOOTH",
"513 438 OFFCURVE",
"438 525 OFFCURVE",
"327 525 CURVE SMOOTH",
"273 525 OFFCURVE",
"214 498 OFFCURVE",
"177 447 CURVE",
"204 579 LINE SMOOTH",
"205 582 OFFCURVE",
"206 583 OFFCURVE",
"210 583 CURVE SMOOTH",
"337 583 LINE SMOOTH",
"358 583 OFFCURVE",
"373 598 OFFCURVE",
"373 618 CURVE SMOOTH",
"373 638 OFFCURVE",
"358 653 OFFCURVE",
"337 653 CURVE SMOOTH",
"225 653 LINE SMOOTH",
"221 653 OFFCURVE",
"219 655 OFFCURVE",
"220 658 CURVE SMOOTH",
"229 702 LINE SMOOTH",
"232 719 OFFCURVE",
"221 736 OFFCURVE",
"202 739 CURVE SMOOTH",
"180 742 OFFCURVE",
"163 732 OFFCURVE",
"158 707 CURVE SMOOTH",
"148 657 LINE SMOOTH",
"147 654 OFFCURVE",
"145 653 OFFCURVE",
"142 653 CURVE SMOOTH",
"85 653 LINE SMOOTH",
"64 653 OFFCURVE",
"49 638 OFFCURVE",
"49 618 CURVE SMOOTH",
"49 598 OFFCURVE",
"64 583 OFFCURVE",
"85 583 CURVE SMOOTH",
"126 583 LINE SMOOTH",
"130 583 OFFCURVE",
"132 581 OFFCURVE",
"131 578 CURVE SMOOTH",
"21 42 LINE SMOOTH",
"17 22 OFFCURVE",
"28 5 OFFCURVE",
"48 0 CURVE",
"69 -4 OFFCURVE",
"88 7 OFFCURVE",
"92 29 CURVE SMOOTH",
"144 302 LINE SMOOTH",
"163 402 OFFCURVE",
"223 442 OFFCURVE",
"294 451 CURVE SMOOTH",
"344 457 OFFCURVE",
"399 444 OFFCURVE",
"420 385 CURVE SMOOTH",
"426 368 OFFCURVE",
"428 348 OFFCURVE",
"423 324 CURVE SMOOTH",
"416 288 OFFCURVE",
"395 195 OFFCURVE",
"384 151 CURVE SMOOTH",
"354 32 OFFCURVE",
"398 -10 OFFCURVE",
"461 -10 CURVE SMOOTH",
"472 -10 OFFCURVE",
"484 -7 OFFCURVE",
"496 -4 CURVE SMOOTH",
"524 4 OFFCURVE",
"538 25 OFFCURVE",
"530 45 CURVE SMOOTH"
);
}
);
width = 587;
}
);
rightMetricsKey = h;
unicode = 0127;
},
{
glyphname = i;
lastChange = "2013-12-18 08:31:18 +0400";
layers = (
{
components = (
{
name = dotlessi;
transform = "{1, 0, 0, 1, 0, 0}";
}
);
layerId = "9764FC2E-EF50-4B10-BB5F-6BAA27A55E88";
name = Regular;
paths = (
{
closed = 1;
nodes = (
"236 704 LINE SMOOTH",
"240 725 OFFCURVE",
"229 740 OFFCURVE",
"209 740 CURVE SMOOTH",
"189 740 OFFCURVE",
"170 725 OFFCURVE",
"166 704 CURVE SMOOTH",
"156 658 LINE SMOOTH",
"152 637 OFFCURVE",
"164 622 OFFCURVE",
"184 622 CURVE SMOOTH",
"204 622 OFFCURVE",
"222 637 OFFCURVE",
"226 658 CURVE SMOOTH"
);
}
);
width = 256.815;
}
);
leftKerningGroup = i;
rightKerningGroup = i;
unicode = 0069;
},
{
glyphname = dotlessi;
lastChange = "2013-12-18 08:31:18 +0400";
layers = (
{
layerId = "9764FC2E-EF50-4B10-BB5F-6BAA27A55E88";
name = Regular;
paths = (
{
closed = 1;
nodes = (
"46 132 LINE SMOOTH",
"41 112 OFFCURVE",
"39 86 OFFCURVE",
"41 70 CURVE SMOOTH",
"45 29 OFFCURVE",
"72 -9 OFFCURVE",
"131 -9 CURVE SMOOTH",
"148 -9 OFFCURVE",
"165 -5 OFFCURVE",
"178 1 CURVE SMOOTH",
"197 9 OFFCURVE",
"207 33 OFFCURVE",
"197 49 CURVE SMOOTH",
"184 70 OFFCURVE",
"163 65 OFFCURVE",
"142 58 CURVE SMOOTH",
"114 49 OFFCURVE",
"109 82 OFFCURVE",
"110 96 CURVE SMOOTH",
"111 106 OFFCURVE",
"112 116 OFFCURVE",
"115 126 CURVE SMOOTH",
"187 469 LINE SMOOTH",
"193 494 OFFCURVE",
"177 515 OFFCURVE",
"153 515 CURVE SMOOTH",
"137 515 OFFCURVE",
"124 505 OFFCURVE",
"120 488 CURVE SMOOTH"
);
}
);
width = 256.815;
}
);
unicode = 0131;
},
{
glyphname = j;
lastChange = "2013-12-18 08:31:18 +0400";
layers = (
{
components = (
{
name = dotlessj;
transform = "{1, 0, 0, 1, 0, 0}";
}
);
layerId = "9764FC2E-EF50-4B10-BB5F-6BAA27A55E88";
name = Regular;
paths = (
{
closed = 1;
nodes = (
"159 658 LINE SMOOTH",
"155 637 OFFCURVE",
"167 622 OFFCURVE",
"187 622 CURVE SMOOTH",
"207 622 OFFCURVE",
"225 637 OFFCURVE",
"229 658 CURVE SMOOTH",
"239 704 LINE SMOOTH",
"244 725 OFFCURVE",
"232 740 OFFCURVE",
"212 740 CURVE SMOOTH",
"192 740 OFFCURVE",
"174 725 OFFCURVE",
"169 704 CURVE SMOOTH"
);
}
);
width = 229.739;
}
);
leftKerningGroup = j;
rightKerningGroup = j;
unicode = 006A;
},
{
glyphname = dotlessj;
lastChange = "2013-12-18 08:31:18 +0400";
layers = (
{
layerId = "9764FC2E-EF50-4B10-BB5F-6BAA27A55E88";
name = Regular;
paths = (
{
closed = 1;
nodes = (
"6 -62 LINE SMOOTH",
"-6 -120 OFFCURVE",
"-38 -125 OFFCURVE",
"-68 -129 CURVE SMOOTH",
"-87 -132 OFFCURVE",
"-104 -144 OFFCURVE",
"-108 -164 CURVE SMOOTH",
"-109 -166 LINE SMOOTH",
"-113 -186 OFFCURVE",
"-100 -201 OFFCURVE",
"-79 -200 CURVE SMOOTH",
"-17 -195 OFFCURVE",
"53 -170 OFFCURVE",
"76 -62 CURVE SMOOTH",
"191 479 LINE SMOOTH",
"196 500 OFFCURVE",
"184 515 OFFCURVE",
"164 515 CURVE SMOOTH",
"144 515 OFFCURVE",
"126 500 OFFCURVE",
"121 479 CURVE SMOOTH"
);
}
);
width = 229.739;
}
);
unicode = 0237;
},
{
glyphname = k;
lastChange = "2013-12-18 08:31:18 +0400";
layers = (
{
anchors = (
{
name = bottom;
position = "{188, 0}";
}
);
layerId = "9764FC2E-EF50-4B10-BB5F-6BAA27A55E88";
name = Regular;
paths = (
{
closed = 1;
nodes = (
"283 276 LINE SMOOTH",
"281 279 OFFCURVE",
"282 281 OFFCURVE",
"284 283 CURVE SMOOTH",
"523 463 LINE SMOOTH",
"545 479 OFFCURVE",
"549 497 OFFCURVE",
"539 512 CURVE SMOOTH",
"529 526 OFFCURVE",
"506 529 OFFCURVE",
"488 515 CURVE SMOOTH",
"142 256 LINE SMOOTH",
"139 253 OFFCURVE",
"136 255 OFFCURVE",
"137 259 CURVE SMOOTH",
"232 704 LINE SMOOTH",
"236 725 OFFCURVE",
"221 740 OFFCURVE",
"201 740 CURVE SMOOTH",
"180 740 OFFCURVE",
"166 725 OFFCURVE",
"162 704 CURVE SMOOTH",
"20 36 LINE SMOOTH",
"15 15 OFFCURVE",
"31 0 OFFCURVE",
"51 0 CURVE SMOOTH",
"72 0 OFFCURVE",
"85 15 OFFCURVE",
"90 36 CURVE SMOOTH",
"115 155 LINE SMOOTH",
"115 157 OFFCURVE",
"117 159 OFFCURVE",
"119 161 CURVE SMOOTH",
"213 230 LINE SMOOTH",
"216 232 OFFCURVE",
"218 232 OFFCURVE",
"220 230 CURVE SMOOTH",
"377 12 LINE SMOOTH",
"387 -3 OFFCURVE",
"413 -5 OFFCURVE",
"431 9 CURVE SMOOTH",
"449 23 OFFCURVE",
"449 44 OFFCURVE",
"439 59 CURVE SMOOTH"
);
}
);
width = 521.188;
}
);
leftKerningGroup = b;
rightKerningGroup = k;
unicode = 006B;
},
{
glyphname = l;
lastChange = "2013-12-18 08:31:18 +0400";
layers = (
{
anchors = (
{
name = topright;
position = "{259, 515}";
}
);
layerId = "9764FC2E-EF50-4B10-BB5F-6BAA27A55E88";
name = Regular;
paths = (
{
closed = 1;
nodes = (
"46 132 LINE SMOOTH",
"42 112 OFFCURVE",
"39 86 OFFCURVE",
"41 70 CURVE SMOOTH",
"45 29 OFFCURVE",
"72 -9 OFFCURVE",
"131 -9 CURVE SMOOTH",
"148 -9 OFFCURVE",
"165 -5 OFFCURVE",
"178 1 CURVE SMOOTH",
"197 9 OFFCURVE",
"207 33 OFFCURVE",
"197 49 CURVE SMOOTH",
"184 70 OFFCURVE",
"163 65 OFFCURVE",
"142 58 CURVE SMOOTH",
"114 49 OFFCURVE",
"109 82 OFFCURVE",
"110 96 CURVE SMOOTH",
"111 106 OFFCURVE",
"113 116 OFFCURVE",
"115 126 CURVE SMOOTH",
"231 668 LINE SMOOTH",
"236 693 OFFCURVE",
"221 714 OFFCURVE",
"197 714 CURVE SMOOTH",
"181 714 OFFCURVE",
"168 704 OFFCURVE",
"164 687 CURVE SMOOTH"
);
}
);
width = 251.96;
}
);
leftKerningGroup = b;
rightKerningGroup = l;
unicode = 006C;
},
{
glyphname = lslash;
lastChange = "2013-12-18 08:31:18 +0400";
layers = (
{
anchors = (
{
name = bottom;
position = "{173, 0}";
},
{
name = top;
position = "{173, 515}";
},
{
name = topright;
position = "{259, 515}";
}
);
layerId = "9764FC2E-EF50-4B10-BB5F-6BAA27A55E88";
name = Regular;
paths = (
{
closed = 1;
nodes = (
"289 471 OFFCURVE",
"270 480 OFFCURVE",
"250 471 CURVE SMOOTH",
"189 444 LINE SMOOTH",
"186 443 OFFCURVE",
"183 445 OFFCURVE",
"184 449 CURVE SMOOTH",
"231 668 LINE SMOOTH",
"236 693 OFFCURVE",
"221 714 OFFCURVE",
"197 714 CURVE SMOOTH",
"181 714 OFFCURVE",
"168 704 OFFCURVE",
"164 687 CURVE SMOOTH",
"105 411 LINE SMOOTH",
"105 409 OFFCURVE",
"104 407 OFFCURVE",
"101 406 CURVE SMOOTH",
"19 370 LINE SMOOTH",
"-1 361 OFFCURVE",
"-8 342 OFFCURVE",
"0 324 CURVE SMOOTH",
"8 306 OFFCURVE",
"28 298 OFFCURVE",
"47 306 CURVE SMOOTH",
"80 320 LINE SMOOTH",
"84 322 OFFCURVE",
"86 320 OFFCURVE",
"85 316 CURVE SMOOTH",
"46 132 LINE SMOOTH",
"42 112 OFFCURVE",
"39 86 OFFCURVE",
"41 70 CURVE SMOOTH",
"45 29 OFFCURVE",
"72 -9 OFFCURVE",
"131 -9 CURVE SMOOTH",
"148 -9 OFFCURVE",
"165 -5 OFFCURVE",
"178 1 CURVE SMOOTH",
"197 9 OFFCURVE",
"207 33 OFFCURVE",
"197 49 CURVE SMOOTH",
"184 70 OFFCURVE",
"163 65 OFFCURVE",
"142 58 CURVE SMOOTH",
"114 49 OFFCURVE",
"109 82 OFFCURVE",
"110 96 CURVE SMOOTH",
"111 106 OFFCURVE",
"113 116 OFFCURVE",
"115 126 CURVE SMOOTH",
"164 353 LINE SMOOTH",
"164 356 OFFCURVE",
"165 357 OFFCURVE",
"168 358 CURVE SMOOTH",
"278 406 LINE SMOOTH",
"297 414 OFFCURVE",
"305 434 OFFCURVE",
"297 452 CURVE SMOOTH"
);
}
);
width = 351;
}
);
unicode = 0142;
},
{
glyphname = m;
lastChange = "2013-12-18 08:31:18 +0400";
layers = (
{
layerId = "9764FC2E-EF50-4B10-BB5F-6BAA27A55E88";
name = Regular;
paths = (
{
closed = 1;
nodes = (
"709 525 LINE",
"619 525 OFFCURVE",
"555 484 OFFCURVE",
"512 439 CURVE",
"485 491 OFFCURVE",
"431 525 OFFCURVE",
"361 525 CURVE SMOOTH",
"309 525 OFFCURVE",
"247 500 OFFCURVE",
"210 453 CURVE",
"207 450 OFFCURVE",
"205 451 OFFCURVE",
"204 455 CURVE SMOOTH",
"192 503 OFFCURVE",
"154 525 OFFCURVE",
"113 525 CURVE SMOOTH",
"101 525 OFFCURVE",
"88 524 OFFCURVE",
"76 520 CURVE SMOOTH",
"48 512 OFFCURVE",
"34 491 OFFCURVE",
"42 471 CURVE SMOOTH",
"52 446 OFFCURVE",
"74 451 OFFCURVE",
"91 456 CURVE SMOOTH",
"129 466 OFFCURVE",
"137 433 OFFCURVE",
"123 372 CURVE SMOOTH",
"55 42 LINE SMOOTH",
"51 22 OFFCURVE",
"62 5 OFFCURVE",
"82 0 CURVE",
"103 -4 OFFCURVE",
"122 7 OFFCURVE",
"126 29 CURVE SMOOTH",
"178 302 LINE SMOOTH",
"192 376 OFFCURVE",
"234 439 OFFCURVE",
"328 451 CURVE SMOOTH",
"378 457 OFFCURVE",
"433 444 OFFCURVE",
"454 385 CURVE SMOOTH",
"470 340 OFFCURVE",
"456 290 OFFCURVE",
"413 49 CURVE SMOOTH",
"407 18 OFFCURVE",
"416 3 OFFCURVE",
"436 0 CURVE SMOOTH",
"454 -3 OFFCURVE",
"474 3 OFFCURVE",
"478 28 CURVE SMOOTH",
"529 317 LINE",
"555 419 OFFCURVE",
"619 446 OFFCURVE",
"676 451 CURVE"
);
},
{
closed = 1;
nodes = (
"676 451 LINE",
"726 457 OFFCURVE",
"781 444 OFFCURVE",
"802 385 CURVE SMOOTH",
"808 368 OFFCURVE",
"810 348 OFFCURVE",
"805 324 CURVE SMOOTH",
"798 288 OFFCURVE",
"777 195 OFFCURVE",
"766 151 CURVE SMOOTH",
"736 32 OFFCURVE",
"780 -10 OFFCURVE",
"843 -10 CURVE SMOOTH",
"854 -10 OFFCURVE",
"866 -7 OFFCURVE",
"878 -4 CURVE SMOOTH",
"906 4 OFFCURVE",
"920 25 OFFCURVE",
"912 45 CURVE SMOOTH",
"902 70 OFFCURVE",
"880 67 OFFCURVE",
"863 60 CURVE SMOOTH",
"828 45 OFFCURVE",
"816 75 OFFCURVE",
"832 144 CURVE SMOOTH",
"852 232 OFFCURVE",
"858 255 OFFCURVE",
"873 330 CURVE SMOOTH",
"895 438 OFFCURVE",
"820 525 OFFCURVE",
"709 525 CURVE"
);
}
);
width = 954.232;
}
);
leftKerningGroup = m;
rightKerningGroup = h;
unicode = 006D;
},
{
glyphname = n;
lastChange = "2013-12-18 08:31:18 +0400";
layers = (
{
anchors = (
{
name = bottom;
position = "{255, 0}";
},
{
name = top;
position = "{365, 515}";
}
);
layerId = "9764FC2E-EF50-4B10-BB5F-6BAA27A55E88";
name = Regular;
paths = (
{
closed = 1;
nodes = (
"53 446 OFFCURVE",
"75 451 OFFCURVE",
"92 456 CURVE SMOOTH",
"130 466 OFFCURVE",
"138 433 OFFCURVE",
"124 372 CURVE SMOOTH",
"56 42 LINE SMOOTH",
"52 22 OFFCURVE",
"63 5 OFFCURVE",
"83 0 CURVE",
"104 -4 OFFCURVE",
"123 7 OFFCURVE",
"127 29 CURVE SMOOTH",
"179 302 LINE SMOOTH",
"193 376 OFFCURVE",
"235 439 OFFCURVE",
"329 451 CURVE SMOOTH",
"379 457 OFFCURVE",
"434 444 OFFCURVE",
"455 385 CURVE SMOOTH",
"461 368 OFFCURVE",
"463 348 OFFCURVE",
"458 324 CURVE SMOOTH",
"451 288 OFFCURVE",
"430 195 OFFCURVE",
"419 151 CURVE SMOOTH",
"389 32 OFFCURVE",
"433 -10 OFFCURVE",
"496 -10 CURVE SMOOTH",
"507 -10 OFFCURVE",
"519 -7 OFFCURVE",
"531 -4 CURVE SMOOTH",
"559 4 OFFCURVE",
"573 25 OFFCURVE",
"565 45 CURVE SMOOTH",
"555 70 OFFCURVE",
"533 67 OFFCURVE",
"516 60 CURVE SMOOTH",
"481 45 OFFCURVE",
"469 75 OFFCURVE",
"485 144 CURVE SMOOTH",
"505 232 OFFCURVE",
"511 255 OFFCURVE",
"526 330 CURVE SMOOTH",
"548 438 OFFCURVE",
"473 525 OFFCURVE",
"362 525 CURVE SMOOTH",
"310 525 OFFCURVE",
"248 500 OFFCURVE",
"211 453 CURVE SMOOTH",
"208 450 OFFCURVE",
"206 451 OFFCURVE",
"205 455 CURVE SMOOTH",
"193 503 OFFCURVE",
"156 525 OFFCURVE",
"114 525 CURVE SMOOTH",
"102 525 OFFCURVE",
"89 524 OFFCURVE",
"77 520 CURVE SMOOTH",
"49 512 OFFCURVE",
"35 491 OFFCURVE",
"43 471 CURVE SMOOTH"
);
}
);
width = 617.232;
}
);
leftKerningGroup = m;
rightKerningGroup = h;
unicode = 006E;
},
{
glyphname = eng;
lastChange = "2013-12-18 08:31:18 +0400";
layers = (
{
anchors = (
{
name = bottom;
position = "{255, 0}";
},
{
name = top;
position = "{365, 515}";
}
);
layerId = "9764FC2E-EF50-4B10-BB5F-6BAA27A55E88";
name = Regular;
paths = (
{
closed = 1;
nodes = (
"555 70 OFFCURVE",
"533 67 OFFCURVE",
"516 60 CURVE SMOOTH",
"481 45 OFFCURVE",
"469 75 OFFCURVE",
"485 144 CURVE SMOOTH",
"505 232 OFFCURVE",
"511 255 OFFCURVE",
"526 330 CURVE SMOOTH",
"548 438 OFFCURVE",
"473 525 OFFCURVE",
"362 525 CURVE SMOOTH",
"310 525 OFFCURVE",
"248 500 OFFCURVE",
"211 453 CURVE",
"208 450 OFFCURVE",
"206 451 OFFCURVE",
"205 455 CURVE SMOOTH",
"193 503 OFFCURVE",
"156 525 OFFCURVE",
"114 525 CURVE SMOOTH",
"102 525 OFFCURVE",
"89 524 OFFCURVE",
"77 520 CURVE",
"49 512 OFFCURVE",
"35 491 OFFCURVE",
"43 471 CURVE SMOOTH",
"53 446 OFFCURVE",
"75 451 OFFCURVE",
"92 456 CURVE SMOOTH",
"130 466 OFFCURVE",
"138 433 OFFCURVE",
"124 372 CURVE SMOOTH",
"56 42 LINE SMOOTH",
"52 22 OFFCURVE",
"63 5 OFFCURVE",
"83 0 CURVE",
"104 -4 OFFCURVE",
"123 7 OFFCURVE",
"127 29 CURVE SMOOTH",
"179 302 LINE SMOOTH",
"193 376 OFFCURVE",
"235 439 OFFCURVE",
"329 451 CURVE SMOOTH",
"379 457 OFFCURVE",
"434 444 OFFCURVE",
"455 385 CURVE SMOOTH",
"461 368 OFFCURVE",
"463 348 OFFCURVE",
"458 324 CURVE SMOOTH",
"451 288 OFFCURVE",
"430 195 OFFCURVE",
"419 151 CURVE SMOOTH",
"414.894 134.714 OFFCURVE",
"413 126 OFFCURVE",
"394 35.9999 CURVE",
"374 -41 LINE SMOOTH",
"358 -102 OFFCURVE",
"299 -131 OFFCURVE",
"238 -131 CURVE SMOOTH",
"214 -131 OFFCURVE",
"203 -149 OFFCURVE",
"199 -165 CURVE",
"195 -185 OFFCURVE",
"208 -200 OFFCURVE",
"229 -200 CURVE SMOOTH",
"308 -200 OFFCURVE",
"411 -165 OFFCURVE",
"440 -60 CURVE SMOOTH",
"455.919 -3 LINE",
"467.8 -8 OFFCURVE",
"481.389 -10 OFFCURVE",
"496 -10 CURVE SMOOTH",
"507 -10 OFFCURVE",
"519 -7 OFFCURVE",
"531 -4 CURVE SMOOTH",
"559 3.9999 OFFCURVE",
"573 24.9999 OFFCURVE",
"565 44.9999 CURVE SMOOTH"
);
}
);
width = 566;
}
);
leftMetricsKey = n;
rightMetricsKey = n;
unicode = 014B;
},
{
glyphname = o;
lastChange = "2013-12-18 08:31:18 +0400";
layers = (
{
anchors = (
{
name = top;
position = "{379, 515}";
}
);
layerId = "9764FC2E-EF50-4B10-BB5F-6BAA27A55E88";
name = Regular;
paths = (
{
closed = 1;
nodes = (
"463 147 OFFCURVE",
"371 60 OFFCURVE",
"272 60 CURVE",
"173 60 OFFCURVE",
"100 147 OFFCURVE",
"112 257 CURVE",
"123 367 OFFCURVE",
"214 455 OFFCURVE",
"313 455 CURVE",
"412 455 OFFCURVE",
"486 367 OFFCURVE",
"475 257 CURVE"
);
},
{
closed = 1;
nodes = (
"560 405 OFFCURVE",
"460 525 OFFCURVE",
"321 525 CURVE",
"182 525 OFFCURVE",
"57 405 OFFCURVE",
"42 257 CURVE",
"26 109 OFFCURVE",
"125 -10 OFFCURVE",
"264 -10 CURVE",
"403 -10 OFFCURVE",
"529 109 OFFCURVE",
"545 257 CURVE"
);
}
);
width = 586.489;
}
);
leftKerningGroup = c;
rightKerningGroup = b;
unicode = 006F;
},
{
glyphname = oslash;
lastChange = "2013-12-18 08:31:18 +0400";
layers = (
{
anchors = (
{
name = top;
position = "{379, 515}";
}
);
layerId = "9764FC2E-EF50-4B10-BB5F-6BAA27A55E88";
name = Regular;
paths = (
{
closed = 1;
nodes = (
"530 486 LINE SMOOTH",
"543 502 OFFCURVE",
"542 522 OFFCURVE",
"527 535 CURVE",
"512 549 OFFCURVE",
"490 547 OFFCURVE",
"477 531 CURVE SMOOTH",
"444 492 LINE SMOOTH",
"442 489 OFFCURVE",
"439 489 OFFCURVE",
"437 491 CURVE SMOOTH",
"402 513 OFFCURVE",
"362 525 OFFCURVE",
"317 525 CURVE SMOOTH",
"178 525 OFFCURVE",
"53 405 OFFCURVE",
"38 257 CURVE SMOOTH",
"30 187 OFFCURVE",
"48 124 OFFCURVE",
"84 77 CURVE SMOOTH",
"86 74 OFFCURVE",
"86 72 OFFCURVE",
"84 70 CURVE SMOOTH",
"49 29 LINE SMOOTH",
"36 13 OFFCURVE",
"37 -7 OFFCURVE",
"52 -20 CURVE",
"67 -34 OFFCURVE",
"89 -32 OFFCURVE",
"102 -16 CURVE SMOOTH",
"135 22 LINE SMOOTH",
"137 25 OFFCURVE",
"139 25 OFFCURVE",
"142 23 CURVE SMOOTH",
"175 2 OFFCURVE",
"216 -10 OFFCURVE",
"260 -10 CURVE SMOOTH",
"399 -10 OFFCURVE",
"525 109 OFFCURVE",
"541 257 CURVE SMOOTH",
"548 326 OFFCURVE",
"530 390 OFFCURVE",
"494 437 CURVE SMOOTH",
"492 440 OFFCURVE",
"492 442 OFFCURVE",
"494 444 CURVE SMOOTH"
);
},
{
closed = 1;
nodes = (
"119 367 OFFCURVE",
"210 455 OFFCURVE",
"309 455 CURVE SMOOTH",
"338 455 OFFCURVE",
"364 448 OFFCURVE",
"387 434 CURVE SMOOTH",
"390 433 OFFCURVE",
"391 430 OFFCURVE",
"389 427 CURVE SMOOTH",
"140 136 LINE SMOOTH",
"138 133 OFFCURVE",
"135 133 OFFCURVE",
"133 136 CURVE SMOOTH",
"113 169 OFFCURVE",
"103 211 OFFCURVE",
"108 257 CURVE SMOOTH"
);
},
{
closed = 1;
nodes = (
"459 147 OFFCURVE",
"367 59.9999 OFFCURVE",
"268 59.9999 CURVE SMOOTH",
"240 60 OFFCURVE",
"214 67 OFFCURVE",
"191 80 CURVE SMOOTH",
"188 82 OFFCURVE",
"187 84 OFFCURVE",
"190 87 CURVE SMOOTH",
"438 378 LINE SMOOTH",
"440 381 OFFCURVE",
"443 381 OFFCURVE",
"445 378 CURVE SMOOTH",
"466 344 OFFCURVE",
"476 303 OFFCURVE",
"471 257 CURVE SMOOTH"
);
}
);
width = 591;
}
);
leftMetricsKey = o;
rightMetricsKey = o;
unicode = 00F8;
},
{
glyphname = oe;
lastChange = "2013-12-18 08:31:18 +0400";
layers = (
{
anchors = (
{
name = bottom;
position = "{733, 0}";
},
{
name = ogonek;
position = "{972, 10}";
},
{
name = top;
position = "{296, 515}";
}
);
layerId = "9764FC2E-EF50-4B10-BB5F-6BAA27A55E88";
leftMetricsKey = o;
rightMetricsKey = e;
name = Regular;
paths = (
{
closed = 1;
nodes = (
"711 168 OFFCURVE",
"965 193 OFFCURVE",
"965 369 CURVE SMOOTH",
"965 462 OFFCURVE",
"884 525 OFFCURVE",
"761 525 CURVE SMOOTH",
"679 525 OFFCURVE",
"584 485 OFFCURVE",
"527 401 CURVE SMOOTH",
"525 398 OFFCURVE",
"522 398 OFFCURVE",
"520 402 CURVE SMOOTH",
"483 476 OFFCURVE",
"410 525 OFFCURVE",
"321 525 CURVE SMOOTH",
"182 525 OFFCURVE",
"56.9999 405 OFFCURVE",
"41.9999 257 CURVE SMOOTH",
"25.9999 109 OFFCURVE",
"125 -10 OFFCURVE",
"264 -10 CURVE SMOOTH",
"353 -10 OFFCURVE",
"436 38 OFFCURVE",
"489 112 CURVE SMOOTH",
"491 115 OFFCURVE",
"494 115 OFFCURVE",
"496 111 CURVE SMOOTH",
"540 15 OFFCURVE",
"643 -10 OFFCURVE",
"708 -10 CURVE SMOOTH",
"775 -10 OFFCURVE",
"839 12 OFFCURVE",
"886 53 CURVE",
"902 68 OFFCURVE",
"900 90 OFFCURVE",
"885 103 CURVE SMOOTH",
"870 116 OFFCURVE",
"851 114 OFFCURVE",
"836 101 CURVE SMOOTH",
"808 75 OFFCURVE",
"772 60 OFFCURVE",
"718 60 CURVE SMOOTH",
"677 60 OFFCURVE",
"562 64 OFFCURVE",
"548 190 CURVE",
"547 194 OFFCURVE",
"549 196 OFFCURVE",
"553 195 CURVE"
);
},
{
closed = 1;
nodes = (
"173 60 OFFCURVE",
"99.9999 147 OFFCURVE",
"112 257 CURVE SMOOTH",
"123 367 OFFCURVE",
"214 455 OFFCURVE",
"313 455 CURVE SMOOTH",
"412 455 OFFCURVE",
"486 367 OFFCURVE",
"475 257 CURVE SMOOTH",
"463 147 OFFCURVE",
"371 60 OFFCURVE",
"272 60 CURVE SMOOTH"
);
},
{
closed = 1;
nodes = (
"576 424 OFFCURVE",
"707 455 OFFCURVE",
"768 455 CURVE SMOOTH",
"830 455 OFFCURVE",
"895 431 OFFCURVE",
"895 373 CURVE SMOOTH",
"895 251 OFFCURVE",
"693 239 OFFCURVE",
"555 265 CURVE",
"552 266 OFFCURVE",
"550 268 OFFCURVE",
"551 271 CURVE"
);
}
);
width = 1000;
}
);
leftMetricsKey = o;
rightMetricsKey = e;
unicode = 0153;
},
{
glyphname = p;
lastChange = "2013-12-18 08:31:18 +0400";
layers = (
{
layerId = "9764FC2E-EF50-4B10-BB5F-6BAA27A55E88";
name = Regular;
paths = (
{
closed = 1;
nodes = (
"22 -159 LINE SMOOTH",
"18 -179 OFFCURVE",
"27 -196 OFFCURVE",
"45 -200 CURVE SMOOTH",
"66 -205 OFFCURVE",
"82 -192 OFFCURVE",
"87 -171 CURVE SMOOTH",
"145 100 LINE SMOOTH",
"146 105 OFFCURVE",
"150 106 OFFCURVE",
"152 101 CURVE SMOOTH",
"180 31 OFFCURVE",
"256 -10 OFFCURVE",
"336 -10 CURVE SMOOTH",
"475 -10 OFFCURVE",
"600 110 OFFCURVE",
"615 258 CURVE SMOOTH",
"631 406 OFFCURVE",
"532 525 OFFCURVE",
"393 525 CURVE SMOOTH",
"326 525 OFFCURVE",
"257 498 OFFCURVE",
"210 443 CURVE SMOOTH",
"207 440 OFFCURVE",
"205 441 OFFCURVE",
"204 445 CURVE SMOOTH",
"197 486 OFFCURVE",
"169 525 OFFCURVE",
"126 525 CURVE SMOOTH",
"111 525 OFFCURVE",
"94 522 OFFCURVE",
"76 514 CURVE SMOOTH",
"59 507 OFFCURVE",
"49 491 OFFCURVE",
"53 473 CURVE SMOOTH",
"58 452 OFFCURVE",
"78 444 OFFCURVE",
"101 454 CURVE SMOOTH",
"138 471 OFFCURVE",
"148 438 OFFCURVE",
"140 401 CURVE SMOOTH"
);
},
{
closed = 1;
nodes = (
"484 455 OFFCURVE",
"557 368 OFFCURVE",
"545 258 CURVE SMOOTH",
"534 148 OFFCURVE",
"443 60 OFFCURVE",
"344 60 CURVE SMOOTH",
"245 60 OFFCURVE",
"171 148 OFFCURVE",
"182 258 CURVE SMOOTH",
"194 368 OFFCURVE",
"286 455 OFFCURVE",
"385 455 CURVE SMOOTH"
);
}
);
width = 659.267;
}
);
leftKerningGroup = p;
rightKerningGroup = b;
unicode = 0070;
},
{
glyphname = thorn;
lastChange = "2013-12-18 08:31:18 +0400";
layers = (
{
anchors = (
{
name = bottom;
position = "{-4, 0}";
},
{
name = top;
position = "{345, 628}";
},
{
name = topright;
position = "{200, 515}";
}
);
layerId = "9764FC2E-EF50-4B10-BB5F-6BAA27A55E88";
name = Regular;
paths = (
{
closed = 1;
nodes = (
"278 638 OFFCURVE",
"210 609 OFFCURVE",
"155 562 CURVE SMOOTH",
"152 559 OFFCURVE",
"149 560 OFFCURVE",
"150 565 CURVE SMOOTH",
"179 704 LINE SMOOTH",
"184 725 OFFCURVE",
"173 740 OFFCURVE",
"153 740 CURVE SMOOTH",
"132 740 OFFCURVE",
"114 725 OFFCURVE",
"109 704 CURVE SMOOTH",
"-31 36 LINE SMOOTH",
"-36 15 OFFCURVE",
"-25 0 OFFCURVE",
"-5 0 CURVE SMOOTH",
"16 0 OFFCURVE",
"34 15 OFFCURVE",
"39 36 CURVE SMOOTH",
"68 176 LINE SMOOTH",
"69 180 OFFCURVE",
"72 181 OFFCURVE",
"75 178 CURVE SMOOTH",
"110 132 OFFCURVE",
"166 103 OFFCURVE",
"234 103 CURVE SMOOTH",
"373 103 OFFCURVE",
"511 222 OFFCURVE",
"542 370 CURVE SMOOTH",
"573 518 OFFCURVE",
"485 638 OFFCURVE",
"346 638 CURVE SMOOTH"
);
},
{
closed = 1;
nodes = (
"150 173 OFFCURVE",
"86 260 OFFCURVE",
"109 370 CURVE SMOOTH",
"132 480 OFFCURVE",
"233 568 OFFCURVE",
"332 568 CURVE SMOOTH",
"431 568 OFFCURVE",
"495 480 OFFCURVE",
"472 370 CURVE SMOOTH",
"449 260 OFFCURVE",
"348 173 OFFCURVE",
"249 173 CURVE SMOOTH"
);
}
);
width = 591;
}
);
leftMetricsKey = l;
rightMetricsKey = o;
unicode = 00FE;
},
{
glyphname = q;
lastChange = "2013-12-18 08:31:18 +0400";
layers = (
{
layerId = "9764FC2E-EF50-4B10-BB5F-6BAA27A55E88";
name = Regular;
paths = (
{
closed = 1;
nodes = (
"325 -10 OFFCURVE",
"394 15 OFFCURVE",
"431 57 CURVE SMOOTH",
"434 60 OFFCURVE",
"437 58 OFFCURVE",
"436 53 CURVE SMOOTH",
"390 -160 LINE SMOOTH",
"386 -179 OFFCURVE",
"396 -200 OFFCURVE",
"421 -200 CURVE SMOOTH",
"441 -200 OFFCURVE",
"456 -185 OFFCURVE",
"460 -164 CURVE SMOOTH",
"596 474 LINE SMOOTH",
"601 499 OFFCURVE",
"584 515 OFFCURVE",
"563 515 CURVE SMOOTH",
"548 515 OFFCURVE",
"534 509 OFFCURVE",
"527 481 CURVE SMOOTH",
"512 417 LINE SMOOTH",
"511 413 OFFCURVE",
"508 412 OFFCURVE",
"506 416 CURVE SMOOTH",
"475 484 OFFCURVE",
"403 525 OFFCURVE",
"324 525 CURVE SMOOTH",
"185 525 OFFCURVE",
"59 406 OFFCURVE",
"43 258 CURVE SMOOTH",
"28 110 OFFCURVE",
"128 -10 OFFCURVE",
"267 -10 CURVE SMOOTH"
);
},
{
closed = 1;
nodes = (
"125 368 OFFCURVE",
"217 455 OFFCURVE",
"316 455 CURVE SMOOTH",
"415 455 OFFCURVE",
"488 368 OFFCURVE",
"476 258 CURVE SMOOTH",
"465 148 OFFCURVE",
"374 60 OFFCURVE",
"275 60 CURVE SMOOTH",
"176 60 OFFCURVE",
"102 148 OFFCURVE",
"113 258 CURVE SMOOTH"
);
}
);
width = 627.881;
}
);
leftKerningGroup = c;
rightKerningGroup = q;
unicode = 0071;
},
{
glyphname = r;
lastChange = "2013-12-18 08:31:18 +0400";
layers = (
{
anchors = (
{
name = bottom;
position = "{152, 0}";
},
{
name = top;
position = "{262, 515}";
}
);
layerId = "9764FC2E-EF50-4B10-BB5F-6BAA27A55E88";
name = Regular;
paths = (
{
closed = 1;
nodes = (
"412 519 OFFCURVE",
"388 527 OFFCURVE",
"363 525 CURVE SMOOTH",
"295 518 OFFCURVE",
"225 471 OFFCURVE",
"187 425 CURVE SMOOTH",
"184 422 OFFCURVE",
"182 423 OFFCURVE",
"182 427 CURVE SMOOTH",
"182 495 OFFCURVE",
"141 525 OFFCURVE",
"92 525 CURVE SMOOTH",
"80 525 OFFCURVE",
"68 524 OFFCURVE",
"56 520 CURVE SMOOTH",
"28 512 OFFCURVE",
"14 491 OFFCURVE",
"22 471 CURVE SMOOTH",
"32 446 OFFCURVE",
"54 450 OFFCURVE",
"71 456 CURVE SMOOTH",
"109 469 OFFCURVE",
"116 439 OFFCURVE",
"102 372 CURVE SMOOTH",
"31 36 LINE SMOOTH",
"26 15 OFFCURVE",
"41 0 OFFCURVE",
"61 0 CURVE SMOOTH",
"82 0 OFFCURVE",
"95 10 OFFCURVE",
"100 34 CURVE SMOOTH",
"154 284 LINE SMOOTH",
"166 338 OFFCURVE",
"208 430 OFFCURVE",
"370 450 CURVE SMOOTH",
"404 454 OFFCURVE",
"418 471 OFFCURVE",
"415 494 CURVE SMOOTH"
);
}
);
width = 425.627;
}
);
leftKerningGroup = m;
rightKerningGroup = r;
unicode = 0072;
},
{
glyphname = s;
lastChange = "2013-12-18 08:31:18 +0400";
layers = (
{
anchors = (
{
name = bottom;
position = "{170, 0}";
},
{
name = top;
position = "{280, 515}";
}
);
layerId = "9764FC2E-EF50-4B10-BB5F-6BAA27A55E88";
name = Regular;
paths = (
{
closed = 1;
nodes = (
"34 25 OFFCURVE",
"91 -10 OFFCURVE",
"167 -10 CURVE SMOOTH",
"284 -10 OFFCURVE",
"376 53 OFFCURVE",
"382 135 CURVE SMOOTH",
"387 209 OFFCURVE",
"363 254 OFFCURVE",
"246 289 CURVE SMOOTH",
"150 318 OFFCURVE",
"123 338 OFFCURVE",
"128 378 CURVE SMOOTH",
"133 417 OFFCURVE",
"173 459 OFFCURVE",
"248 459 CURVE SMOOTH",
"295 459 OFFCURVE",
"332 447 OFFCURVE",
"352 433 CURVE SMOOTH",
"368 422 OFFCURVE",
"389 421 OFFCURVE",
"401 438 CURVE SMOOTH",
"411 452 OFFCURVE",
"407 468 OFFCURVE",
"394 481 CURVE SMOOTH",
"375 499 OFFCURVE",
"325 525 OFFCURVE",
"255 525 CURVE SMOOTH",
"149 525 OFFCURVE",
"68 458 OFFCURVE",
"58 378 CURVE SMOOTH",
"49 308 OFFCURVE",
"84 264 OFFCURVE",
"215 227 CURVE SMOOTH",
"294 205 OFFCURVE",
"321 176 OFFCURVE",
"316 138 CURVE SMOOTH",
"310 92 OFFCURVE",
"254 56 OFFCURVE",
"179 56 CURVE SMOOTH",
"122 56 OFFCURVE",
"83 81 OFFCURVE",
"61 105 CURVE SMOOTH",
"44 124 OFFCURVE",
"24 122 OFFCURVE",
"12 112 CURVE SMOOTH",
"-5 97 OFFCURVE",
"-4 79 OFFCURVE",
"9 60 CURVE SMOOTH"
);
}
);
width = 435.61;
}
);
leftKerningGroup = s;
rightKerningGroup = s;
unicode = 0073;
},
{
glyphname = scommaaccent;
lastChange = "2013-12-18 08:31:18 +0400";
layers = (
{
components = (
{
name = s;
transform = "{1, 0, 0, 1, 0, 0}";
}
);
layerId = "9764FC2E-EF50-4B10-BB5F-6BAA27A55E88";
name = Regular;
paths = (
{
closed = 1;
nodes = (
"51 -300 OFFCURVE",
"68 -304 OFFCURVE",
"91 -296 CURVE SMOOTH",
"145 -275 OFFCURVE",
"177 -237 OFFCURVE",
"191 -170 CURVE SMOOTH",
"202 -121 LINE SMOOTH",
"207 -97 OFFCURVE",
"193 -80 OFFCURVE",
"169 -80 CURVE SMOOTH",
"159 -80 LINE SMOOTH",
"135 -80 OFFCURVE",
"115 -97 OFFCURVE",
"110 -121 CURVE SMOOTH",
"105 -144 LINE SMOOTH",
"100 -166 OFFCURVE",
"110 -182 OFFCURVE",
"127 -185 CURVE SMOOTH",
"130 -185 OFFCURVE",
"132 -187 OFFCURVE",
"131 -190 CURVE SMOOTH",
"127 -219 OFFCURVE",
"111 -241 OFFCURVE",
"82 -257 CURVE SMOOTH",
"62 -268 OFFCURVE",
"47 -279 OFFCURVE",
"49 -290 CURVE SMOOTH"
);
}
);
width = 440;
}
);
leftMetricsKey = s;
rightMetricsKey = s;
unicode = 0219;
},
{
glyphname = germandbls;
lastChange = "2013-12-18 08:31:18 +0400";
layers = (
{
layerId = "9764FC2E-EF50-4B10-BB5F-6BAA27A55E88";
name = Regular;
paths = (
{
closed = 1;
nodes = (
"552 658 OFFCURVE",
"488 737 OFFCURVE",
"362 737 CURVE SMOOTH",
"223 737 OFFCURVE",
"115 642 OFFCURVE",
"85 501 CURVE SMOOTH",
"-13 41 LINE SMOOTH",
"-18 17 OFFCURVE",
"-5 0 OFFCURVE",
"18 0 CURVE SMOOTH",
"40 0 OFFCURVE",
"59 17 OFFCURVE",
"64 41 CURVE SMOOTH",
"162 502 LINE SMOOTH",
"184 604 OFFCURVE",
"259 669 OFFCURVE",
"344 669 CURVE SMOOTH",
"422 669 OFFCURVE",
"465 621 OFFCURVE",
"450 551 CURVE SMOOTH",
"434 476 OFFCURVE",
"371 429 OFFCURVE",
"292 397 CURVE SMOOTH",
"277 391 OFFCURVE",
"265 379 OFFCURVE",
"262 363 CURVE SMOOTH",
"261 360 LINE SMOOTH",
"257 342 OFFCURVE",
"269 330 OFFCURVE",
"288 326 CURVE SMOOTH",
"381 309 OFFCURVE",
"432 266 OFFCURVE",
"417 193 CURVE SMOOTH",
"400 115 OFFCURVE",
"330 71 OFFCURVE",
"227 62 CURVE SMOOTH",
"210 60 OFFCURVE",
"195 48 OFFCURVE",
"192 32 CURVE SMOOTH",
"191 29 LINE SMOOTH",
"187 11 OFFCURVE",
"197 -2 OFFCURVE",
"217 -1 CURVE SMOOTH",
"365 6 OFFCURVE",
"471 76 OFFCURVE",
"496 193 CURVE SMOOTH",
"517 292 OFFCURVE",
"451 345 OFFCURVE",
"367 368 CURVE SMOOTH",
"359 370 OFFCURVE",
"359 375 OFFCURVE",
"368 379 CURVE SMOOTH",
"440 411 OFFCURVE",
"511 467 OFFCURVE",
"530 556 CURVE SMOOTH"
);
}
);
width = 561;
}
);
leftMetricsKey = B;
rightMetricsKey = B;
unicode = 00DF;
},
{
glyphname = t;
lastChange = "2013-12-18 08:31:18 +0400";
layers = (
{
anchors = (
{
name = bottom;
position = "{131, 0}";
},
{
name = center;
position = "{186, 258}";
}
);
layerId = "9764FC2E-EF50-4B10-BB5F-6BAA27A55E88";
name = Regular;
paths = (
{
closed = 1;
nodes = (
"236 515 LINE SMOOTH",
"233 515 OFFCURVE",
"232 517 OFFCURVE",
"232 520 CURVE",
"253 615 LINE",
"257 637 OFFCURVE",
"244 650 OFFCURVE",
"225 650 CURVE SMOOTH",
"206 650 OFFCURVE",
"187 637 OFFCURVE",
"183 615 CURVE",
"162 520 LINE",
"162 517 OFFCURVE",
"159 515 OFFCURVE",
"156 515 CURVE SMOOTH",
"95 515 LINE SMOOTH",
"74 515 OFFCURVE",
"56 500 OFFCURVE",
"52 480 CURVE SMOOTH",
"48 460 OFFCURVE",
"60 445 OFFCURVE",
"81 445 CURVE SMOOTH",
"142 445 LINE SMOOTH",
"145 445 OFFCURVE",
"146 443 OFFCURVE",
"145 440 CURVE",
"85 158 LINE SMOOTH",
"52 11 OFFCURVE",
"123 -26 OFFCURVE",
"199 -4 CURVE SMOOTH",
"227 4 OFFCURVE",
"241 25 OFFCURVE",
"233 45 CURVE SMOOTH",
"223 70 OFFCURVE",
"201 65 OFFCURVE",
"184 60 CURVE SMOOTH",
"145 49 OFFCURVE",
"143 90 OFFCURVE",
"151 135 CURVE SMOOTH",
"215 440 LINE",
"216 443 OFFCURVE",
"219 445 OFFCURVE",
"222 445 CURVE SMOOTH",
"281 445 LINE SMOOTH",
"302 445 OFFCURVE",
"320 460 OFFCURVE",
"324 480 CURVE SMOOTH",
"328 500 OFFCURVE",
"316 515 OFFCURVE",
"295 515 CURVE SMOOTH"
);
}
);
width = 312.764;
}
);
leftKerningGroup = t;
rightKerningGroup = t;
unicode = 0074;
},
{
glyphname = tbar;
lastChange = "2013-12-18 08:31:18 +0400";
layers = (
{
components = (
{
name = t;
transform = "{1, 0, 0, 1, 0, 0}";
}
);
layerId = "9764FC2E-EF50-4B10-BB5F-6BAA27A55E88";
name = Regular;
paths = (
{
closed = 1;
nodes = (
"65 337 LINE SMOOTH",
"44 337 OFFCURVE",
"29 323 OFFCURVE",
"29 303 CURVE SMOOTH",
"29 282 OFFCURVE",
"44 267 OFFCURVE",
"65 267 CURVE SMOOTH",
"225 267 LINE SMOOTH",
"246 267 OFFCURVE",
"261 281 OFFCURVE",
"261 301 CURVE SMOOTH",
"261 322 OFFCURVE",
"246 337 OFFCURVE",
"225 337 CURVE SMOOTH"
);
}
);
width = 295;
}
);
unicode = 0167;
},
{
glyphname = tcaron;
lastChange = "2013-12-18 08:31:18 +0400";
layers = (
{
anchors = (
{
name = bottom;
position = "{77, 0}";
},
{
name = center;
position = "{130, 250}";
}
);
layerId = "9764FC2E-EF50-4B10-BB5F-6BAA27A55E88";
name = Regular;
paths = (
{
closed = 1;
nodes = (
"308 583 OFFCURVE",
"311 583 OFFCURVE",
"322 601 CURVE SMOOTH",
"391 714 LINE SMOOTH",
"404 735 OFFCURVE",
"395 749 OFFCURVE",
"377 750 CURVE",
"361 750 LINE",
"340 750 OFFCURVE",
"327 741 OFFCURVE",
"320 720 CURVE SMOOTH",
"284 601 LINE SMOOTH",
"280 589 OFFCURVE",
"284 583 OFFCURVE",
"295 583 CURVE SMOOTH"
);
},
{
closed = 1;
nodes = (
"260 445 LINE SMOOTH",
"281 445 OFFCURVE",
"299 460 OFFCURVE",
"303 480 CURVE SMOOTH",
"308 500 OFFCURVE",
"296 515 OFFCURVE",
"275 515 CURVE SMOOTH",
"216 515 LINE SMOOTH",
"213 515 OFFCURVE",
"211 517 OFFCURVE",
"212 520 CURVE SMOOTH",
"232 615 LINE SMOOTH",
"237 637 OFFCURVE",
"223 650 OFFCURVE",
"204 650 CURVE SMOOTH",
"185 650 OFFCURVE",
"167 637 OFFCURVE",
"162 615 CURVE SMOOTH",
"142 520 LINE SMOOTH",
"141 517 OFFCURVE",
"139 515 OFFCURVE",
"136 515 CURVE SMOOTH",
"75 515 LINE SMOOTH",
"54 515 OFFCURVE",
"36 500 OFFCURVE",
"31 480 CURVE SMOOTH",
"27 460 OFFCURVE",
"39 445 OFFCURVE",
"60 445 CURVE SMOOTH",
"121 445 LINE SMOOTH",
"124 445 OFFCURVE",
"125 443 OFFCURVE",
"125 440 CURVE SMOOTH",
"53 102 LINE SMOOTH",
"36 23 OFFCURVE",
"76 0 OFFCURVE",
"125 0 CURVE SMOOTH",
"158 0 OFFCURVE",
"188 13 OFFCURVE",
"193 41 CURVE SMOOTH",
"197 65 OFFCURVE",
"184 78 OFFCURVE",
"157 75 CURVE SMOOTH",
"122 71 OFFCURVE",
"123 102 OFFCURVE",
"130 135 CURVE SMOOTH",
"195 440 LINE SMOOTH",
"195 443 OFFCURVE",
"198 445 OFFCURVE",
"201 445 CURVE SMOOTH"
);
}
);
width = 295;
}
);
leftMetricsKey = t;
unicode = 0165;
},
{
glyphname = u;
lastChange = "2013-12-18 08:31:18 +0400";
layers = (
{
layerId = "9764FC2E-EF50-4B10-BB5F-6BAA27A55E88";
name = Regular;
paths = (
{
closed = 1;
nodes = (
"554 69 OFFCURVE",
"532 64 OFFCURVE",
"515 59 CURVE SMOOTH",
"477 49 OFFCURVE",
"469 82 OFFCURVE",
"483 143 CURVE SMOOTH",
"551 473 LINE SMOOTH",
"555 493 OFFCURVE",
"544 510 OFFCURVE",
"524 515 CURVE",
"503 519 OFFCURVE",
"484 508 OFFCURVE",
"480 486 CURVE SMOOTH",
"428 213 LINE SMOOTH",
"414 139 OFFCURVE",
"372 76 OFFCURVE",
"278 64 CURVE SMOOTH",
"228 58 OFFCURVE",
"173 71 OFFCURVE",
"152 130 CURVE SMOOTH",
"146 147 OFFCURVE",
"144 167 OFFCURVE",
"149 191 CURVE SMOOTH",
"156 227 OFFCURVE",
"177 320 OFFCURVE",
"188 364 CURVE SMOOTH",
"218 483 OFFCURVE",
"174 525 OFFCURVE",
"111 525 CURVE SMOOTH",
"100 525 OFFCURVE",
"88 522 OFFCURVE",
"76 519 CURVE SMOOTH",
"48 511 OFFCURVE",
"34 490 OFFCURVE",
"42 470 CURVE SMOOTH",
"52 445 OFFCURVE",
"74 448 OFFCURVE",
"91 455 CURVE SMOOTH",
"126 470 OFFCURVE",
"138 440 OFFCURVE",
"122 371 CURVE SMOOTH",
"102 283 OFFCURVE",
"96 260 OFFCURVE",
"81 185 CURVE SMOOTH",
"59 77 OFFCURVE",
"134 -10 OFFCURVE",
"245 -10 CURVE SMOOTH",
"297 -10 OFFCURVE",
"359 15 OFFCURVE",
"396 62 CURVE SMOOTH",
"399 65 OFFCURVE",
"401 64 OFFCURVE",
"402 60 CURVE SMOOTH",
"414 12 OFFCURVE",
"451 -10 OFFCURVE",
"493 -10 CURVE SMOOTH",
"505 -10 OFFCURVE",
"518 -9 OFFCURVE",
"530 -5 CURVE SMOOTH",
"558 3 OFFCURVE",
"572 24 OFFCURVE",
"564 44 CURVE SMOOTH"
);
}
);
width = 616.697;
}
);
leftKerningGroup = u;
rightKerningGroup = u;
unicode = 0075;
},
{
glyphname = v;
lastChange = "2013-12-18 08:31:18 +0400";
layers = (
{
layerId = "9764FC2E-EF50-4B10-BB5F-6BAA27A55E88";
name = Regular;
paths = (
{
closed = 1;
nodes = (
"524 502 OFFCURVE",
"510 515 OFFCURVE",
"491 515 CURVE SMOOTH",
"472 515 OFFCURVE",
"456 498 OFFCURVE",
"457 476 CURVE SMOOTH",
"467 351 OFFCURVE",
"424 67 OFFCURVE",
"227 67 CURVE SMOOTH",
"185 67 OFFCURVE",
"145 91 OFFCURVE",
"160 161 CURVE SMOOTH",
"203 364 LINE",
"226 472 OFFCURVE",
"182 525 OFFCURVE",
"122 525 CURVE SMOOTH",
"112 525 OFFCURVE",
"102 523 OFFCURVE",
"91 520 CURVE SMOOTH",
"63 512 OFFCURVE",
"49 491 OFFCURVE",
"57 471 CURVE SMOOTH",
"67 446 OFFCURVE",
"89 451 OFFCURVE",
"106 456 CURVE SMOOTH",
"141 466 OFFCURVE",
"150 437 OFFCURVE",
"136 372 CURVE",
"90 144 LINE SMOOTH",
"66 28 OFFCURVE",
"157 0 OFFCURVE",
"211 0 CURVE SMOOTH",
"491 0 OFFCURVE",
"539 300 OFFCURVE",
"525 483 CURVE SMOOTH"
);
}
);
width = 567.17;
}
);
leftKerningGroup = v;
rightKerningGroup = v;
unicode = 0076;
},
{
glyphname = w;
lastChange = "2013-12-18 08:31:18 +0400";
layers = (
{
anchors = (
{
name = top;
position = "{437, 515}";
}
);
layerId = "9764FC2E-EF50-4B10-BB5F-6BAA27A55E88";
name = Regular;
paths = (
{
closed = 1;
nodes = (
"830 502 OFFCURVE",
"816 515 OFFCURVE",
"797 515 CURVE SMOOTH",
"778 515 OFFCURVE",
"762 498 OFFCURVE",
"763 476 CURVE SMOOTH",
"773 351 OFFCURVE",
"730 67 OFFCURVE",
"533 67 CURVE SMOOTH",
"491 67 OFFCURVE",
"451 92 OFFCURVE",
"466 161 CURVE SMOOTH",
"532 471 LINE SMOOTH",
"537 495 OFFCURVE",
"523 515 OFFCURVE",
"501 515 CURVE SMOOTH",
"483 515 OFFCURVE",
"471 504 OFFCURVE",
"467 487 CURVE SMOOTH",
"409 207 LINE SMOOTH",
"392 122 OFFCURVE",
"321 67 OFFCURVE",
"226 67 CURVE SMOOTH",
"184 67 OFFCURVE",
"146 92 OFFCURVE",
"161 161 CURVE SMOOTH",
"205 364 LINE SMOOTH",
"228 471 OFFCURVE",
"182 524 OFFCURVE",
"123 525 CURVE SMOOTH",
"113 525 OFFCURVE",
"102 523 OFFCURVE",
"91 520 CURVE SMOOTH",
"63 512 OFFCURVE",
"49 491 OFFCURVE",
"57 471 CURVE SMOOTH",
"67 446 OFFCURVE",
"89 451 OFFCURVE",
"106 456 CURVE SMOOTH",
"141 466 OFFCURVE",
"151 437 OFFCURVE",
"137 372 CURVE",
"89 144 LINE SMOOTH",
"65 29 OFFCURVE",
"156 0 OFFCURVE",
"210 0 CURVE SMOOTH",
"289 0 OFFCURVE",
"349 24 OFFCURVE",
"395 62 CURVE",
"398 65 OFFCURVE",
"401 64 OFFCURVE",
"402 61 CURVE",
"424 14 OFFCURVE",
"480 0 OFFCURVE",
"517 0 CURVE SMOOTH",
"797 0 OFFCURVE",
"845 300 OFFCURVE",
"831 483 CURVE SMOOTH"
);
}
);
width = 873.17;
}
);
leftKerningGroup = w;
rightKerningGroup = w;
unicode = 0077;
},
{
glyphname = x;
lastChange = "2013-12-18 08:31:18 +0400";
layers = (
{
layerId = "9764FC2E-EF50-4B10-BB5F-6BAA27A55E88";
name = Regular;
paths = (
{
closed = 1;
nodes = (
"514 522 OFFCURVE",
"493 522 OFFCURVE",
"478 508 CURVE SMOOTH",
"296 329 LINE",
"275 384 OFFCURVE",
"255 432 OFFCURVE",
"245 451 CURVE SMOOTH",
"225 490 OFFCURVE",
"216 525 OFFCURVE",
"165 525 CURVE SMOOTH",
"128 525 OFFCURVE",
"80 505 OFFCURVE",
"94 471 CURVE SMOOTH",
"104 446 OFFCURVE",
"127 449 OFFCURVE",
"143 456 CURVE SMOOTH",
"163 465 OFFCURVE",
"170 445 OFFCURVE",
"184 417 CURVE",
"196 396 OFFCURVE",
"219 338 OFFCURVE",
"243 276 CURVE",
"22 59 LINE SMOOTH",
"7 45 OFFCURVE",
"6 23 OFFCURVE",
"20 9 CURVE SMOOTH",
"34 -6 OFFCURVE",
"55 -6 OFFCURVE",
"70 8 CURVE SMOOTH",
"270 205 LINE",
"294 144 OFFCURVE",
"315 90 OFFCURVE",
"324 74 CURVE",
"348 18 OFFCURVE",
"375 0 OFFCURVE",
"407 0 CURVE",
"439 0 OFFCURVE",
"492 19 OFFCURVE",
"478 55 CURVE SMOOTH",
"468 80 OFFCURVE",
"445 77 OFFCURVE",
"429 70 CURVE SMOOTH",
"406 60 OFFCURVE",
"400 73 OFFCURVE",
"385 107 CURVE",
"375 125 OFFCURVE",
"350 189 OFFCURVE",
"324 258 CURVE",
"526 457 LINE SMOOTH",
"541 471 OFFCURVE",
"542 493 OFFCURVE",
"528 507 CURVE SMOOTH"
);
}
);
width = 547.975;
}
);
leftKerningGroup = x;
rightKerningGroup = x;
unicode = 0078;
},
{
glyphname = y;
lastChange = "2013-12-18 08:31:18 +0400";
layers = (
{
anchors = (
{
name = top;
position = "{364, 515}";
}
);
layerId = "9764FC2E-EF50-4B10-BB5F-6BAA27A55E88";
name = Regular;
paths = (
{
closed = 1;
nodes = (
"511 520 OFFCURVE",
"492 509 OFFCURVE",
"488 487 CURVE SMOOTH",
"433 201 LINE SMOOTH",
"416 133 OFFCURVE",
"374 76 OFFCURVE",
"286 65 CURVE SMOOTH",
"236 59 OFFCURVE",
"187 82 OFFCURVE",
"166 141 CURVE SMOOTH",
"153 178 OFFCURVE",
"165 211 OFFCURVE",
"190 292 CURVE SMOOTH",
"195 309 OFFCURVE",
"204 336 OFFCURVE",
"211 358 CURVE SMOOTH",
"247 476 OFFCURVE",
"192 525 OFFCURVE",
"129 525 CURVE SMOOTH",
"117 525 OFFCURVE",
"106 523 OFFCURVE",
"94 520 CURVE SMOOTH",
"66 512 OFFCURVE",
"52 491 OFFCURVE",
"60 471 CURVE SMOOTH",
"70 446 OFFCURVE",
"92 449 OFFCURVE",
"109 456 CURVE SMOOTH",
"144 471 OFFCURVE",
"159 439 OFFCURVE",
"140 372 CURVE SMOOTH",
"89 199 LINE",
"65 84 OFFCURVE",
"138 -9 OFFCURVE",
"253 -9 CURVE SMOOTH",
"301 -9 OFFCURVE",
"357 12 OFFCURVE",
"395 52 CURVE SMOOTH",
"398 56 OFFCURVE",
"402 54 OFFCURVE",
"401 49 CURVE SMOOTH",
"391 8 OFFCURVE",
"378 -29 OFFCURVE",
"361 -57 CURVE SMOOTH",
"326 -113 OFFCURVE",
"268 -144 OFFCURVE",
"190 -140 CURVE SMOOTH",
"155 -138 OFFCURVE",
"125 -125 OFFCURVE",
"99 -106 CURVE SMOOTH",
"85 -96 OFFCURVE",
"62 -94 OFFCURVE",
"47 -112 CURVE SMOOTH",
"36 -126 OFFCURVE",
"37 -149 OFFCURVE",
"55 -163 CURVE",
"92 -194 OFFCURVE",
"138 -209 OFFCURVE",
"186 -212 CURVE SMOOTH",
"286 -218 OFFCURVE",
"375 -167 OFFCURVE",
"421 -93 CURVE SMOOTH",
"460 -27 OFFCURVE",
"474 56 OFFCURVE",
"490 143 CURVE SMOOTH",
"559 474 LINE SMOOTH",
"563 494 OFFCURVE",
"552 511 OFFCURVE",
"532 516 CURVE"
);
}
);
width = 589.954;
}
);
leftKerningGroup = y;
rightKerningGroup = y;
unicode = 0079;
},
{
glyphname = z;
lastChange = "2013-12-18 08:31:18 +0400";
layers = (
{
anchors = (
{
name = top;
position = "{358, 515}";
}
);
layerId = "9764FC2E-EF50-4B10-BB5F-6BAA27A55E88";
name = Regular;
paths = (
{
closed = 1;
nodes = (
"483 516 OFFCURVE",
"466 518 OFFCURVE",
"453 508 CURVE",
"451 507 LINE SMOOTH",
"394 472 OFFCURVE",
"281 515 OFFCURVE",
"202 515 CURVE SMOOTH",
"157 515 OFFCURVE",
"119 502 OFFCURVE",
"85 470 CURVE SMOOTH",
"70 456 OFFCURVE",
"65 437 OFFCURVE",
"80 422 CURVE SMOOTH",
"94 408 OFFCURVE",
"116 411 OFFCURVE",
"127 423 CURVE SMOOTH",
"137 434 OFFCURVE",
"169 455 OFFCURVE",
"200 455 CURVE SMOOTH",
"261 455 OFFCURVE",
"306 436 OFFCURVE",
"373 434 CURVE SMOOTH",
"377 434 OFFCURVE",
"378 431 OFFCURVE",
"375 428 CURVE SMOOTH",
"19 56 LINE SMOOTH",
"5 42 OFFCURVE",
"8 23 OFFCURVE",
"21 10 CURVE SMOOTH",
"34 -3 OFFCURVE",
"53 -4 OFFCURVE",
"67 9 CURVE",
"78 20 LINE",
"91 31 OFFCURVE",
"104 35 OFFCURVE",
"127 35 CURVE SMOOTH",
"192 35 OFFCURVE",
"261 0 OFFCURVE",
"353 0 CURVE SMOOTH",
"394 0 OFFCURVE",
"432 8 OFFCURVE",
"462 34 CURVE SMOOTH",
"477 47 OFFCURVE",
"477 66 OFFCURVE",
"466 80 CURVE SMOOTH",
"456 93 OFFCURVE",
"438 93 OFFCURVE",
"421 84 CURVE SMOOTH",
"403 75 OFFCURVE",
"386 66 OFFCURVE",
"359 66 CURVE SMOOTH",
"278 66 OFFCURVE",
"229 97 OFFCURVE",
"159 96 CURVE SMOOTH",
"155 96 OFFCURVE",
"154 100 OFFCURVE",
"157 103 CURVE SMOOTH",
"497 458 LINE SMOOTH",
"511 472 OFFCURVE",
"508 491 OFFCURVE",
"495 504 CURVE SMOOTH"
);
}
);
width = 516.211;
}
);
leftKerningGroup = z;
rightKerningGroup = z;
unicode = 007A;
},
{
glyphname = fi;
lastChange = "2013-12-18 08:31:18 +0400";
layers = (
{
layerId = "9764FC2E-EF50-4B10-BB5F-6BAA27A55E88";
name = Regular;
paths = (
{
closed = 1;
nodes = (
"433 49 OFFCURVE",
"428 82 OFFCURVE",
"429 96 CURVE SMOOTH",
"430 106 OFFCURVE",
"431 116 OFFCURVE",
"434 126 CURVE",
"506 469 LINE SMOOTH",
"511 490 OFFCURVE",
"500 508 OFFCURVE",
"483 514 CURVE",
"480 514 OFFCURVE",
"477 515 OFFCURVE",
"473 515 CURVE SMOOTH",
"210 515 LINE SMOOTH",
"206 515 OFFCURVE",
"205 517 OFFCURVE",
"205 521 CURVE",
"225 602 OFFCURVE",
"253 663 OFFCURVE",
"325 661 CURVE SMOOTH",
"377 660 OFFCURVE",
"422 636 OFFCURVE",
"458 607 CURVE SMOOTH",
"478 591 OFFCURVE",
"509 598 OFFCURVE",
"519 618 CURVE SMOOTH",
"528 636 OFFCURVE",
"523 660 OFFCURVE",
"503 676 CURVE SMOOTH",
"485 691 OFFCURVE",
"416 728 OFFCURVE",
"326 728 CURVE SMOOTH",
"234 728 OFFCURVE",
"165 657 OFFCURVE",
"135 520 CURVE SMOOTH",
"134 516 OFFCURVE",
"133 515 OFFCURVE",
"129 515 CURVE SMOOTH",
"78 515 LINE SMOOTH",
"61 515 OFFCURVE",
"48 505 OFFCURVE",
"44 489 CURVE",
"36 464 OFFCURVE",
"52 446 OFFCURVE",
"78 446 CURVE SMOOTH",
"113 446 LINE SMOOTH",
"117 446 OFFCURVE",
"119 444 OFFCURVE",
"118 441 CURVE",
"81 271 LINE SMOOTH",
"36 66 OFFCURVE",
"17 -26 OFFCURVE",
"4 -63 CURVE SMOOTH",
"-8 -96 OFFCURVE",
"-25 -127 OFFCURVE",
"-69 -127 CURVE SMOOTH",
"-86 -127 OFFCURVE",
"-108 -135 OFFCURVE",
"-110 -162 CURVE SMOOTH",
"-112 -191 OFFCURVE",
"-86 -200 OFFCURVE",
"-69 -200 CURVE SMOOTH",
"9 -200 OFFCURVE",
"43 -158 OFFCURVE",
"71 -74 CURVE SMOOTH",
"87 -29 OFFCURVE",
"115 92 OFFCURVE",
"151 266 CURVE SMOOTH",
"187 442 LINE",
"188 445 OFFCURVE",
"190 446 OFFCURVE",
"193 446 CURVE SMOOTH",
"425 446 LINE SMOOTH",
"428 446 OFFCURVE",
"430 444 OFFCURVE",
"429 441 CURVE",
"365 132 LINE",
"360 112 OFFCURVE",
"358 86 OFFCURVE",
"360 70 CURVE SMOOTH",
"364 29 OFFCURVE",
"391 -9 OFFCURVE",
"450 -9 CURVE SMOOTH",
"467 -9 OFFCURVE",
"484 -5 OFFCURVE",
"497 1 CURVE SMOOTH",
"516 9 OFFCURVE",
"526 33 OFFCURVE",
"516 49 CURVE SMOOTH",
"503 70 OFFCURVE",
"482 65 OFFCURVE",
"461 58 CURVE SMOOTH"
);
}
);
width = 575;
}
);
leftMetricsKey = f;
rightMetricsKey = i;
unicode = FB01;
},
{
glyphname = fl;
lastChange = "2013-12-18 08:31:18 +0400";
layers = (
{
anchors = (
{
name = topright;
position = "{578, 515}";
}
);
layerId = "9764FC2E-EF50-4B10-BB5F-6BAA27A55E88";
name = Regular;
paths = (
{
closed = 1;
nodes = (
"550 668 LINE SMOOTH",
"555 693 OFFCURVE",
"540 714 OFFCURVE",
"516 714 CURVE SMOOTH",
"502 714 OFFCURVE",
"491 707 OFFCURVE",
"485 694 CURVE",
"484 691 OFFCURVE",
"482 690 OFFCURVE",
"479 691 CURVE",
"447 708 OFFCURVE",
"392 728 OFFCURVE",
"326 728 CURVE SMOOTH",
"234 728 OFFCURVE",
"165 657 OFFCURVE",
"135 520 CURVE SMOOTH",
"134 516 OFFCURVE",
"133 515 OFFCURVE",
"129 515 CURVE SMOOTH",
"78 515 LINE SMOOTH",
"61 515 OFFCURVE",
"48 505 OFFCURVE",
"44 489 CURVE",
"36 464 OFFCURVE",
"52 446 OFFCURVE",
"78 446 CURVE SMOOTH",
"113 446 LINE SMOOTH",
"117 446 OFFCURVE",
"119 444 OFFCURVE",
"118 441 CURVE",
"81 271 LINE SMOOTH",
"36 66 OFFCURVE",
"17 -26 OFFCURVE",
"4 -63 CURVE SMOOTH",
"-8 -96 OFFCURVE",
"-25 -127 OFFCURVE",
"-69 -127 CURVE SMOOTH",
"-86 -127 OFFCURVE",
"-108 -135 OFFCURVE",
"-110 -162 CURVE SMOOTH",
"-112 -191 OFFCURVE",
"-86 -200 OFFCURVE",
"-69 -200 CURVE SMOOTH",
"9 -200 OFFCURVE",
"43 -158 OFFCURVE",
"71 -74 CURVE SMOOTH",
"87 -29 OFFCURVE",
"115 92 OFFCURVE",
"151 266 CURVE SMOOTH",
"187 442 LINE",
"188 445 OFFCURVE",
"189 446 OFFCURVE",
"193 446 CURVE SMOOTH",
"281 446 LINE SMOOTH",
"298 446 OFFCURVE",
"312 453 OFFCURVE",
"316 469 CURVE SMOOTH",
"323 494 OFFCURVE",
"307 515 OFFCURVE",
"281 515 CURVE SMOOTH",
"210 515 LINE SMOOTH",
"206 515 OFFCURVE",
"205 517 OFFCURVE",
"205 521 CURVE",
"225 602 OFFCURVE",
"253 663 OFFCURVE",
"325 661 CURVE SMOOTH",
"375 660 OFFCURVE",
"426 635 OFFCURVE",
"462 607 CURVE",
"464 605 OFFCURVE",
"465 603 OFFCURVE",
"465 600 CURVE",
"365 132 LINE SMOOTH",
"361 112 OFFCURVE",
"358 86 OFFCURVE",
"360 70 CURVE SMOOTH",
"364 29 OFFCURVE",
"391 -9 OFFCURVE",
"450 -9 CURVE SMOOTH",
"467 -9 OFFCURVE",
"484 -5 OFFCURVE",
"497 1 CURVE SMOOTH",
"516 9 OFFCURVE",
"526 33 OFFCURVE",
"516 49 CURVE SMOOTH",
"503 70 OFFCURVE",
"482 65 OFFCURVE",
"461 58 CURVE SMOOTH",
"433 49 OFFCURVE",
"428 82 OFFCURVE",
"429 96 CURVE SMOOTH",
"430 106 OFFCURVE",
"432 116 OFFCURVE",
"434 126 CURVE SMOOTH"
);
}
);
width = 570;
}
);
leftMetricsKey = f;
rightMetricsKey = l;
unicode = FB02;
},
{
glyphname = ordfeminine;
lastChange = "2013-12-18 08:31:18 +0400";
layers = (
{
layerId = "9764FC2E-EF50-4B10-BB5F-6BAA27A55E88";
name = Regular;
paths = (
{
closed = 1;
nodes = (
"348 710 OFFCURVE",
"334 697 OFFCURVE",
"332 679 CURVE SMOOTH",
"331 670 LINE SMOOTH",
"330 665 OFFCURVE",
"327 664 OFFCURVE",
"324 668 CURVE SMOOTH",
"308 694 OFFCURVE",
"275 710 OFFCURVE",
"230 710 CURVE SMOOTH",
"139 710 OFFCURVE",
"57 632 OFFCURVE",
"45 535 CURVE SMOOTH",
"33 438 OFFCURVE",
"97 360 OFFCURVE",
"188 360 CURVE SMOOTH",
"233 360 OFFCURVE",
"269 380 OFFCURVE",
"292 403 CURVE SMOOTH",
"295 406 OFFCURVE",
"298 405 OFFCURVE",
"298 401 CURVE SMOOTH",
"296 391 LINE SMOOTH",
"294 373 OFFCURVE",
"305 360 OFFCURVE",
"322 360 CURVE SMOOTH",
"340 360 OFFCURVE",
"354 373 OFFCURVE",
"356 391 CURVE SMOOTH",
"392 679 LINE SMOOTH",
"394 697 OFFCURVE",
"382 710 OFFCURVE",
"365 710 CURVE SMOOTH"
);
},
{
closed = 1;
nodes = (
"142 420 OFFCURVE",
"96 459 OFFCURVE",
"105 535 CURVE SMOOTH",
"114 611 OFFCURVE",
"170 650 OFFCURVE",
"227 650 CURVE SMOOTH",
"285 650 OFFCURVE",
"329 610 OFFCURVE",
"320 535 CURVE SMOOTH",
"311 460 OFFCURVE",
"257 420 OFFCURVE",
"199 420 CURVE SMOOTH"
);
}
);
width = 452;
}
);
leftMetricsKey = a;
rightMetricsKey = a;
unicode = 00AA;
},
{
glyphname = ordmasculine;
lastChange = "2013-12-18 08:31:18 +0400";
layers = (
{
layerId = "9764FC2E-EF50-4B10-BB5F-6BAA27A55E88";
name = Regular;
paths = (
{
closed = 1;
nodes = (
"297 469 OFFCURVE",
"244 420 OFFCURVE",
"190 420 CURVE",
"136 420 OFFCURVE",
"96 468 OFFCURVE",
"104 534 CURVE",
"112 601 OFFCURVE",
"164 650 OFFCURVE",
"218 650 CURVE",
"272 650 OFFCURVE",
"313 601 OFFCURVE",
"305 534 CURVE"
);
},
{
closed = 1;
nodes = (
"377 632 OFFCURVE",
"313 710 OFFCURVE",
"225 710 CURVE",
"137 710 OFFCURVE",
"56 632 OFFCURVE",
"44 534 CURVE",
"32 437 OFFCURVE",
"95 360 OFFCURVE",
"183 360 CURVE",
"271 360 OFFCURVE",
"353 437 OFFCURVE",
"365 534 CURVE"
);
}
);
width = 409;
}
);
leftMetricsKey = o;
rightMetricsKey = o;
unicode = 00BA;
},
{
glyphname = pi;
lastChange = "2013-12-18 08:31:18 +0400";
layers = (
{
layerId = "9764FC2E-EF50-4B10-BB5F-6BAA27A55E88";
name = Regular;
paths = (
{
closed = 1;
nodes = (
"566 445 LINE SMOOTH",
"587 445 OFFCURVE",
"605 459 OFFCURVE",
"609 479 CURVE SMOOTH",
"614 500 OFFCURVE",
"602 515 OFFCURVE",
"581 515 CURVE SMOOTH",
"124 515 LINE SMOOTH",
"103 515 OFFCURVE",
"85 501 OFFCURVE",
"81 481 CURVE SMOOTH",
"76 460 OFFCURVE",
"88 445 OFFCURVE",
"109 445 CURVE SMOOTH",
"138 445 LINE SMOOTH",
"141 445 OFFCURVE",
"142 443 OFFCURVE",
"142 440 CURVE SMOOTH",
"56 36 LINE SMOOTH",
"51 15 OFFCURVE",
"62 0 OFFCURVE",
"82 0 CURVE SMOOTH",
"103 0 OFFCURVE",
"121 15 OFFCURVE",
"126 36 CURVE SMOOTH",
"212 440 LINE SMOOTH",
"212 443 OFFCURVE",
"215 445 OFFCURVE",
"218 445 CURVE SMOOTH",
"457 445 LINE SMOOTH",
"460 445 OFFCURVE",
"461 443 OFFCURVE",
"461 440 CURVE SMOOTH",
"375 36 LINE SMOOTH",
"370 15 OFFCURVE",
"381 0 OFFCURVE",
"401 0 CURVE SMOOTH",
"422 0 OFFCURVE",
"440 15 OFFCURVE",
"445 36 CURVE SMOOTH",
"531 440 LINE SMOOTH",
"531 443 OFFCURVE",
"534 445 OFFCURVE",
"537 445 CURVE SMOOTH"
);
}
);
width = 600;
}
);
unicode = 03C0;
},
{
glyphname = zero;
lastChange = "2013-12-18 08:31:18 +0400";
layers = (
{
layerId = "9764FC2E-EF50-4B10-BB5F-6BAA27A55E88";
name = Regular;
paths = (
{
closed = 1;
nodes = (
"460 172 OFFCURVE",
"371 60 OFFCURVE",
"255 60 CURVE",
"139 60 OFFCURVE",
"98 172 OFFCURVE",
"136 350 CURVE",
"174 528 OFFCURVE",
"263 640 OFFCURVE",
"379 640 CURVE",
"495 640 OFFCURVE",
"536 528 OFFCURVE",
"498 350 CURVE"
);
},
{
closed = 1;
nodes = (
"612 559 OFFCURVE",
"557 710 OFFCURVE",
"394 710 CURVE",
"231 710 OFFCURVE",
"110 559 OFFCURVE",
"66 350 CURVE",
"22 141 OFFCURVE",
"77 -10 OFFCURVE",
"240 -10 CURVE",
"403 -10 OFFCURVE",
"524 141 OFFCURVE",
"568 350 CURVE"
);
}
);
width = 614.569;
}
);
unicode = 0030;
},
{
glyphname = one;
lastChange = "2013-12-18 08:31:18 +0400";
layers = (
{
layerId = "9764FC2E-EF50-4B10-BB5F-6BAA27A55E88";
name = Regular;
paths = (
{
closed = 1;
nodes = (
"71 594 LINE SMOOTH",
"51 584 OFFCURVE",
"41 563 OFFCURVE",
"48 546 CURVE SMOOTH",
"54 528 OFFCURVE",
"74 523 OFFCURVE",
"94 533 CURVE SMOOTH",
"232 602 LINE SMOOTH",
"235 604 OFFCURVE",
"238 602 OFFCURVE",
"237 598 CURVE SMOOTH",
"117 36 LINE SMOOTH",
"113 15 OFFCURVE",
"124 0 OFFCURVE",
"144 0 CURVE SMOOTH",
"165 0 OFFCURVE",
"183 15 OFFCURVE",
"187 36 CURVE SMOOTH",
"320 662 LINE",
"322 668 LINE",
"323 686 OFFCURVE",
"314 699 OFFCURVE",
"296 700 CURVE",
"290 701 OFFCURVE",
"281 699 OFFCURVE",
"273 695 CURVE SMOOTH"
);
}
);
width = 430.075;
}
);
unicode = 0031;
},
{
glyphname = two;
lastChange = "2013-12-18 08:31:18 +0400";
layers = (
{
layerId = "9764FC2E-EF50-4B10-BB5F-6BAA27A55E88";
name = Regular;
paths = (
{
closed = 1;
nodes = (
"160 70 LINE SMOOTH",
"155 70 OFFCURVE",
"155 73 OFFCURVE",
"159 76 CURVE SMOOTH",
"391 264 LINE SMOOTH",
"422 290 OFFCURVE",
"529 365 OFFCURVE",
"555 485 CURVE SMOOTH",
"575 582 OFFCURVE",
"528 710 OFFCURVE",
"390 710 CURVE SMOOTH",
"288 710 OFFCURVE",
"201 650 OFFCURVE",
"157 605 CURVE SMOOTH",
"138 585 OFFCURVE",
"142 565 OFFCURVE",
"151 556 CURVE SMOOTH",
"160 547 OFFCURVE",
"182 545 OFFCURVE",
"201 560 CURVE SMOOTH",
"236 589 OFFCURVE",
"298 640 OFFCURVE",
"376 640 CURVE SMOOTH",
"466 640 OFFCURVE",
"500 556 OFFCURVE",
"485 485 CURVE SMOOTH",
"466 397 OFFCURVE",
"387 341 OFFCURVE",
"353 314 CURVE SMOOTH",
"42 62 LINE SMOOTH",
"34 56 OFFCURVE",
"29 49 OFFCURVE",
"26 42 CURVE",
"25 40 OFFCURVE",
"25 38 OFFCURVE",
"24 36 CURVE SMOOTH",
"20 15 OFFCURVE",
"32 0 OFFCURVE",
"53 0 CURVE SMOOTH",
"443 0 LINE SMOOTH",
"464 0 OFFCURVE",
"482 14 OFFCURVE",
"486 34 CURVE SMOOTH",
"490 55 OFFCURVE",
"478 70 OFFCURVE",
"457 70 CURVE SMOOTH"
);
}
);
width = 606.401;
}
);
unicode = 0032;
},
{
glyphname = three;
lastChange = "2013-12-18 08:31:18 +0400";
layers = (
{
layerId = "9764FC2E-EF50-4B10-BB5F-6BAA27A55E88";
name = Regular;
paths = (
{
closed = 1;
nodes = (
"507 638 LINE SMOOTH",
"512 642 OFFCURVE",
"515 647 OFFCURVE",
"518 651 CURVE",
"520 655 OFFCURVE",
"522 659 OFFCURVE",
"523 664 CURVE SMOOTH",
"527 685 OFFCURVE",
"515 700 OFFCURVE",
"494 700 CURVE SMOOTH",
"177 700 LINE SMOOTH",
"156 700 OFFCURVE",
"138 686 OFFCURVE",
"134 666 CURVE SMOOTH",
"130 645 OFFCURVE",
"142 630 OFFCURVE",
"163 630 CURVE SMOOTH",
"397 630 LINE SMOOTH",
"402 630 OFFCURVE",
"402 627 OFFCURVE",
"398 624 CURVE SMOOTH",
"206 447 LINE",
"196 439 OFFCURVE",
"189 427 OFFCURVE",
"189 414 CURVE SMOOTH",
"189 395 OFFCURVE",
"204 385 OFFCURVE",
"223 387 CURVE SMOOTH",
"326 397 OFFCURVE",
"399 345 OFFCURVE",
"373 223 CURVE SMOOTH",
"349 108 OFFCURVE",
"243 60 OFFCURVE",
"173 60 CURVE SMOOTH",
"123 60 OFFCURVE",
"92 73 OFFCURVE",
"73 86 CURVE SMOOTH",
"61 94 OFFCURVE",
"46 95 OFFCURVE",
"32 84 CURVE SMOOTH",
"10 67 OFFCURVE",
"6 42 OFFCURVE",
"23 28 CURVE SMOOTH",
"49 6 OFFCURVE",
"94 -10 OFFCURVE",
"159 -10 CURVE SMOOTH",
"251 -10 OFFCURVE",
"407 54 OFFCURVE",
"443 223 CURVE SMOOTH",
"472 358 OFFCURVE",
"406 432 OFFCURVE",
"313 452 CURVE SMOOTH",
"309 453 OFFCURVE",
"309 456 OFFCURVE",
"311 459 CURVE SMOOTH"
);
}
);
width = 567.764;
}
);
unicode = 0033;
},
{
glyphname = four;
lastChange = "2013-12-18 08:31:18 +0400";
layers = (
{
layerId = "9764FC2E-EF50-4B10-BB5F-6BAA27A55E88";
name = Regular;
paths = (
{
closed = 1;
nodes = (
"456 230 LINE SMOOTH",
"453 230 OFFCURVE",
"452 232 OFFCURVE",
"453 235 CURVE SMOOTH",
"544 664 LINE SMOOTH",
"548 685 OFFCURVE",
"537 700 OFFCURVE",
"517 700 CURVE",
"509 699 LINE",
"501 698 OFFCURVE",
"491 693 OFFCURVE",
"483 685 CURVE SMOOTH",
"24 217 LINE SMOOTH",
"11 204 OFFCURVE",
"7 188 OFFCURVE",
"13 176 CURVE",
"17 166 OFFCURVE",
"27 160 OFFCURVE",
"40 160 CURVE SMOOTH",
"362 160 LINE SMOOTH",
"365 160 OFFCURVE",
"366 158 OFFCURVE",
"366 155 CURVE SMOOTH",
"340 36 LINE SMOOTH",
"336 15 OFFCURVE",
"347 0 OFFCURVE",
"367 0 CURVE SMOOTH",
"388 0 OFFCURVE",
"406 15 OFFCURVE",
"410 36 CURVE SMOOTH",
"436 155 LINE SMOOTH",
"436 158 OFFCURVE",
"439 160 OFFCURVE",
"442 160 CURVE SMOOTH",
"482 160 LINE SMOOTH",
"503 160 OFFCURVE",
"521 174 OFFCURVE",
"525 194 CURVE SMOOTH",
"529 215 OFFCURVE",
"517 230 OFFCURVE",
"496 230 CURVE SMOOTH"
);
},
{
closed = 1;
nodes = (
"132 230 LINE SMOOTH",
"128 230 OFFCURVE",
"127 233 OFFCURVE",
"131 236 CURVE SMOOTH",
"445 556 LINE SMOOTH",
"448 559 OFFCURVE",
"451 558 OFFCURVE",
"450 554 CURVE SMOOTH",
"383 235 LINE SMOOTH",
"382 232 OFFCURVE",
"379 230 OFFCURVE",
"376 230 CURVE SMOOTH"
);
}
);
width = 590.815;
}
);
unicode = 0034;
},
{
glyphname = five;
lastChange = "2013-12-18 08:31:18 +0400";
layers = (
{
layerId = "9764FC2E-EF50-4B10-BB5F-6BAA27A55E88";
name = Regular;
paths = (
{
closed = 1;
nodes = (
"231 625 LINE SMOOTH",
"232 628 OFFCURVE",
"235 630 OFFCURVE",
"238 630 CURVE SMOOTH",
"485 630 LINE SMOOTH",
"506 630 OFFCURVE",
"524 644 OFFCURVE",
"528 664 CURVE SMOOTH",
"532 685 OFFCURVE",
"520 700 OFFCURVE",
"499 700 CURVE SMOOTH",
"219 700 LINE SMOOTH",
"215 700 OFFCURVE",
"212 700 OFFCURVE",
"209 699 CURVE",
"195 696 OFFCURVE",
"181 684 OFFCURVE",
"176 668 CURVE SMOOTH",
"85 418 LINE",
"73 391 OFFCURVE",
"94 364 OFFCURVE",
"133 383 CURVE SMOOTH",
"256 442 OFFCURVE",
"418 420 OFFCURVE",
"378 233 CURVE SMOOTH",
"354 118 OFFCURVE",
"246 60 OFFCURVE",
"176 60 CURVE SMOOTH",
"126 60 OFFCURVE",
"95 73 OFFCURVE",
"76 86 CURVE SMOOTH",
"64 94 OFFCURVE",
"49 95 OFFCURVE",
"35 84 CURVE SMOOTH",
"13 67 OFFCURVE",
"9 42 OFFCURVE",
"26 28 CURVE SMOOTH",
"52 6 OFFCURVE",
"97 -10 OFFCURVE",
"162 -10 CURVE SMOOTH",
"254 -10 OFFCURVE",
"412 64 OFFCURVE",
"448 233 CURVE SMOOTH",
"493 444 OFFCURVE",
"327 519 OFFCURVE",
"176 462 CURVE SMOOTH",
"171 460 OFFCURVE",
"169 462 OFFCURVE",
"171 466 CURVE SMOOTH"
);
}
);
width = 545.764;
}
);
unicode = 0035;
},
{
glyphname = six;
lastChange = "2013-12-18 08:31:18 +0400";
layers = (
{
layerId = "9764FC2E-EF50-4B10-BB5F-6BAA27A55E88";
name = Regular;
paths = (
{
closed = 1;
nodes = (
"492 672 CURVE",
"494 692 OFFCURVE",
"478 705 OFFCURVE",
"455 700 CURVE SMOOTH",
"182 635 OFFCURVE",
"63 349 OFFCURVE",
"45 208 CURVE SMOOTH",
"29 82 OFFCURVE",
"103 -10 OFFCURVE",
"226 -10 CURVE SMOOTH",
"349 -10 OFFCURVE",
"471 93 OFFCURVE",
"498 218 CURVE SMOOTH",
"524 342 OFFCURVE",
"446 445 OFFCURVE",
"323 445 CURVE SMOOTH",
"278 445 OFFCURVE",
"234 431 OFFCURVE",
"194 409 CURVE SMOOTH",
"190 406 OFFCURVE",
"187 408 OFFCURVE",
"190 413 CURVE SMOOTH",
"239 507 OFFCURVE",
"321 601 OFFCURVE",
"455 631 CURVE SMOOTH",
"476 636 OFFCURVE",
"491 651 OFFCURVE"
);
},
{
closed = 1;
nodes = (
"156 60 OFFCURVE",
"103 129 OFFCURVE",
"122 218 CURVE SMOOTH",
"141 306 OFFCURVE",
"223 375 OFFCURVE",
"308 375 CURVE SMOOTH",
"393 375 OFFCURVE",
"447 306 OFFCURVE",
"428 218 CURVE SMOOTH",
"409 129 OFFCURVE",
"326 60 OFFCURVE",
"241 60 CURVE SMOOTH"
);
}
);
width = 557.997;
}
);
unicode = 0036;
},
{
glyphname = seven;
lastChange = "2013-12-18 08:31:18 +0400";
layers = (
{
layerId = "9764FC2E-EF50-4B10-BB5F-6BAA27A55E88";
name = Regular;
paths = (
{
closed = 1;
nodes = (
"209 700 LINE SMOOTH",
"188 700 OFFCURVE",
"170 686 OFFCURVE",
"165 666 CURVE SMOOTH",
"161 645 OFFCURVE",
"173 630 OFFCURVE",
"194 630 CURVE SMOOTH",
"467 630 LINE SMOOTH",
"471 630 OFFCURVE",
"471 628 OFFCURVE",
"469 624 CURVE SMOOTH",
"100 48 LINE SMOOTH",
"88 29 OFFCURVE",
"91 10 OFFCURVE",
"107 2 CURVE SMOOTH",
"124 -6 OFFCURVE",
"146 2 OFFCURVE",
"158 21 CURVE SMOOTH",
"562 651 LINE SMOOTH",
"574 670 OFFCURVE",
"571 689 OFFCURVE",
"555 697 CURVE SMOOTH",
"550 699 OFFCURVE",
"544 700 OFFCURVE",
"538 700 CURVE"
);
}
);
width = 563.333;
}
);
unicode = 0037;
},
{
glyphname = eight;
lastChange = "2013-12-18 08:31:18 +0400";
layers = (
{
layerId = "9764FC2E-EF50-4B10-BB5F-6BAA27A55E88";
name = Regular;
paths = (
{
closed = 1;
nodes = (
"454 435 OFFCURVE",
"481 478 OFFCURVE",
"491 525 CURVE SMOOTH",
"512 623 OFFCURVE",
"451 700 OFFCURVE",
"353 700 CURVE SMOOTH",
"255 700 OFFCURVE",
"162 623 OFFCURVE",
"141 525 CURVE SMOOTH",
"131 477 OFFCURVE",
"141 434 OFFCURVE",
"164 403 CURVE SMOOTH",
"168 398 OFFCURVE",
"166 393 OFFCURVE",
"160 389 CURVE SMOOTH",
"98 350 OFFCURVE",
"51 287 OFFCURVE",
"35 215 CURVE SMOOTH",
"10 95 OFFCURVE",
"85 0 OFFCURVE",
"205 0 CURVE SMOOTH",
"325 0 OFFCURVE",
"441 95 OFFCURVE",
"466 215 CURVE SMOOTH",
"482 287 OFFCURVE",
"460 350 OFFCURVE",
"414 389 CURVE SMOOTH",
"410 393 OFFCURVE",
"410 398 OFFCURVE",
"416 403 CURVE SMOOTH"
);
},
{
closed = 1;
nodes = (
"221 593 OFFCURVE",
"282 635 OFFCURVE",
"340 635 CURVE SMOOTH",
"398 635 OFFCURVE",
"441 593 OFFCURVE",
"426 525 CURVE SMOOTH",
"412 458 OFFCURVE",
"350 415 OFFCURVE",
"293 415 CURVE SMOOTH",
"236 415 OFFCURVE",
"192 458 OFFCURVE",
"206 525 CURVE"
);
},
{
closed = 1;
nodes = (
"138 65 OFFCURVE",
"81 125 OFFCURVE",
"100 215 CURVE SMOOTH",
"119 305 OFFCURVE",
"202 365 OFFCURVE",
"282 365 CURVE SMOOTH",
"362 365 OFFCURVE",
"420 304 OFFCURVE",
"401 215 CURVE SMOOTH",
"382 126 OFFCURVE",
"298 65 OFFCURVE",
"218 65 CURVE SMOOTH"
);
}
);
width = 532.133;
}
);
unicode = 0038;
},
{
glyphname = nine;
lastChange = "2013-12-18 08:31:18 +0400";
layers = (
{
layerId = "9764FC2E-EF50-4B10-BB5F-6BAA27A55E88";
name = Regular;
paths = (
{
closed = 1;
nodes = (
"85 28 CURVE",
"83 8 OFFCURVE",
"99 -5 OFFCURVE",
"122 0 CURVE SMOOTH",
"395 65 OFFCURVE",
"514 351 OFFCURVE",
"532 492 CURVE SMOOTH",
"548 618 OFFCURVE",
"474 710 OFFCURVE",
"351 710 CURVE SMOOTH",
"228 710 OFFCURVE",
"106 607 OFFCURVE",
"79 482 CURVE SMOOTH",
"53 358 OFFCURVE",
"131 255 OFFCURVE",
"254 255 CURVE SMOOTH",
"299 255 OFFCURVE",
"343 269 OFFCURVE",
"383 291 CURVE SMOOTH",
"387 294 OFFCURVE",
"390 292 OFFCURVE",
"387 287 CURVE SMOOTH",
"338 193 OFFCURVE",
"256 99 OFFCURVE",
"122 69 CURVE SMOOTH",
"101 64 OFFCURVE",
"86 49 OFFCURVE"
);
},
{
closed = 1;
nodes = (
"421 640 OFFCURVE",
"474 571 OFFCURVE",
"455 482 CURVE SMOOTH",
"436 394 OFFCURVE",
"354 325 OFFCURVE",
"269 325 CURVE SMOOTH",
"184 325 OFFCURVE",
"130 394 OFFCURVE",
"149 482 CURVE SMOOTH",
"168 571 OFFCURVE",
"251 640 OFFCURVE",
"336 640 CURVE SMOOTH"
);
}
);
width = 557.163;
}
);
unicode = 0039;
},
{
glyphname = fraction;
lastChange = "2013-12-18 08:31:18 +0400";
layers = (
{
layerId = "9764FC2E-EF50-4B10-BB5F-6BAA27A55E88";
name = Regular;
paths = (
{
closed = 1;
nodes = (
"-186 45 LINE SMOOTH",
"-195 32 OFFCURVE",
"-192 15 OFFCURVE",
"-178 5 CURVE SMOOTH",
"-164 -4 OFFCURVE",
"-145 -1 OFFCURVE",
"-135 14 CURVE SMOOTH",
"288 656 LINE SMOOTH",
"297 669 OFFCURVE",
"294 686 OFFCURVE",
"280 696 CURVE SMOOTH",
"266 706 OFFCURVE",
"247 702 OFFCURVE",
"237 687 CURVE SMOOTH"
);
}
);
width = 80.1165;
}
);
unicode = 2044;
},
{
glyphname = onequarter;
lastChange = "2013-12-18 08:31:18 +0400";
layers = (
{
components = (
{
disableAlignment = 1;
name = fraction;
transform = "{1, 0, 0, 1, 261, 0}";
}
);
layerId = "9764FC2E-EF50-4B10-BB5F-6BAA27A55E88";
leftMetricsKey = one;
rightMetricsKey = four;
name = Regular;
paths = (
{
closed = 1;
nodes = (
"549 144 OFFCURVE",
"548 146 OFFCURVE",
"549 149 CURVE SMOOTH",
"596 370 LINE",
"596 376 LINE",
"598 391 OFFCURVE",
"589 402 OFFCURVE",
"574 402 CURVE",
"564 403 OFFCURVE",
"553 399 OFFCURVE",
"545 390 CURVE SMOOTH",
"293 135 LINE SMOOTH",
"286 128 OFFCURVE",
"282 121 OFFCURVE",
"281 113 CURVE",
"279 96 OFFCURVE",
"288 84 OFFCURVE",
"306 84 CURVE SMOOTH",
"470 84 LINE SMOOTH",
"473 84 OFFCURVE",
"475 82 OFFCURVE",
"474 79 CURVE SMOOTH",
"464 33 LINE SMOOTH",
"461 15 OFFCURVE",
"470 2 OFFCURVE",
"487 2 CURVE SMOOTH",
"505 2 OFFCURVE",
"521 15 OFFCURVE",
"524 33 CURVE SMOOTH",
"534 79 LINE SMOOTH",
"535 82 OFFCURVE",
"536 84 OFFCURVE",
"539 84 CURVE SMOOTH",
"557 84 OFFCURVE",
"573 96 OFFCURVE",
"576 113 CURVE SMOOTH",
"580 131 OFFCURVE",
"570 144 OFFCURVE",
"552 144 CURVE SMOOTH"
);
},
{
closed = 1;
nodes = (
"387 144 LINE SMOOTH",
"383 144 OFFCURVE",
"383 147 OFFCURVE",
"385 150 CURVE SMOOTH",
"510 276 LINE SMOOTH",
"514 280 OFFCURVE",
"517 278 OFFCURVE",
"516 274 CURVE SMOOTH",
"489 149 LINE SMOOTH",
"488 146 OFFCURVE",
"486 144 OFFCURVE",
"483 144 CURVE SMOOTH"
);
},
{
closed = 1;
nodes = (
"68 628 LINE",
"50 619 OFFCURVE",
"42 602 OFFCURVE",
"48 587 CURVE SMOOTH",
"54 572 OFFCURVE",
"70 568 OFFCURVE",
"88 577 CURVE SMOOTH",
"159 615 LINE SMOOTH",
"163 617 OFFCURVE",
"165 616 OFFCURVE",
"165 612 CURVE SMOOTH",
"105 332 LINE SMOOTH",
"101 314 OFFCURVE",
"110 301 OFFCURVE",
"127 301 CURVE SMOOTH",
"145 301 OFFCURVE",
"161 314 OFFCURVE",
"165 332 CURVE SMOOTH",
"237 670 LINE SMOOTH",
"240 684 OFFCURVE",
"235 695 OFFCURVE",
"224 699 CURVE",
"217 703 OFFCURVE",
"207 702 OFFCURVE",
"196 697 CURVE"
);
}
);
width = 642.277;
}
);
leftMetricsKey = one;
rightMetricsKey = four;
unicode = 00BC;
},
{
glyphname = threequarters;
lastChange = "2013-12-18 08:31:18 +0400";
layers = (
{
components = (
{
disableAlignment = 1;
name = fraction;
transform = "{1, 0, 0, 1, 297, 0}";
},
{
disableAlignment = 1;
name = threesuperior;
transform = "{1, 0, 0, 1, -47, -59}";
}
);
layerId = "9764FC2E-EF50-4B10-BB5F-6BAA27A55E88";
leftMetricsKey = three;
rightMetricsKey = four;
name = Regular;
paths = (
{
closed = 1;
nodes = (
"589 144 OFFCURVE",
"588 146 OFFCURVE",
"589 149 CURVE SMOOTH",
"636 370 LINE",
"636 376 LINE",
"638 391 OFFCURVE",
"629 402 OFFCURVE",
"614 402 CURVE",
"604 403 OFFCURVE",
"593 399 OFFCURVE",
"585 390 CURVE SMOOTH",
"333 135 LINE SMOOTH",
"326 128 OFFCURVE",
"322 121 OFFCURVE",
"321 113 CURVE",
"319 96 OFFCURVE",
"328 84 OFFCURVE",
"346 84 CURVE SMOOTH",
"510 84 LINE SMOOTH",
"513 84 OFFCURVE",
"515 82 OFFCURVE",
"514 79 CURVE SMOOTH",
"504 33 LINE SMOOTH",
"501 15 OFFCURVE",
"510 2 OFFCURVE",
"527 2 CURVE SMOOTH",
"545 2 OFFCURVE",
"561 15 OFFCURVE",
"564 33 CURVE SMOOTH",
"574 79 LINE SMOOTH",
"575 82 OFFCURVE",
"576 84 OFFCURVE",
"579 84 CURVE SMOOTH",
"597 84 OFFCURVE",
"613 96 OFFCURVE",
"616 113 CURVE SMOOTH",
"620 131 OFFCURVE",
"610 144 OFFCURVE",
"592 144 CURVE SMOOTH"
);
},
{
closed = 1;
nodes = (
"427 144 LINE SMOOTH",
"423 144 OFFCURVE",
"423 147 OFFCURVE",
"425 150 CURVE SMOOTH",
"550 276 LINE SMOOTH",
"554 280 OFFCURVE",
"557 278 OFFCURVE",
"556 274 CURVE SMOOTH",
"529 149 LINE SMOOTH",
"528 146 OFFCURVE",
"526 144 OFFCURVE",
"523 144 CURVE SMOOTH"
);
}
);
width = 682.277;
}
);
leftMetricsKey = three;
rightMetricsKey = four;
unicode = 00BE;
},
{
glyphname = onesuperior;
lastChange = "2013-12-18 08:31:18 +0400";
layers = (
{
layerId = "9764FC2E-EF50-4B10-BB5F-6BAA27A55E88";
name = Regular;
paths = (
{
closed = 1;
nodes = (
"76 686 LINE",
"58 677 OFFCURVE",
"50 660 OFFCURVE",
"56 646 CURVE SMOOTH",
"62 631 OFFCURVE",
"78 627 OFFCURVE",
"96 636 CURVE SMOOTH",
"167 673 LINE SMOOTH",
"170 675 OFFCURVE",
"173 674 OFFCURVE",
"172 670 CURVE SMOOTH",
"113 392 LINE SMOOTH",
"109 374 OFFCURVE",
"119 361 OFFCURVE",
"136 361 CURVE SMOOTH",
"154 361 OFFCURVE",
"169 374 OFFCURVE",
"173 392 CURVE SMOOTH",
"245 728 LINE SMOOTH",
"248 742 OFFCURVE",
"242 753 OFFCURVE",
"232 757 CURVE",
"224 761 OFFCURVE",
"213 760 OFFCURVE",
"203 755 CURVE"
);
}
);
width = 233.775;
}
);
leftMetricsKey = one;
rightMetricsKey = one;
unicode = 00B9;
},
{
glyphname = twosuperior;
lastChange = "2013-12-18 08:31:18 +0400";
layers = (
{
layerId = "9764FC2E-EF50-4B10-BB5F-6BAA27A55E88";
name = Regular;
paths = (
{
closed = 1;
nodes = (
"172 423 LINE",
"272 504 LINE SMOOTH",
"310 535 OFFCURVE",
"355 578 OFFCURVE",
"368 637 CURVE SMOOTH",
"381 700 OFFCURVE",
"346 764 OFFCURVE",
"265 764 CURVE SMOOTH",
"212 764 OFFCURVE",
"160 742 OFFCURVE",
"130 716 CURVE SMOOTH",
"114 701 OFFCURVE",
"112 683 OFFCURVE",
"124 672 CURVE",
"135 662 OFFCURVE",
"151 665 OFFCURVE",
"166 676 CURVE SMOOTH",
"189 694 OFFCURVE",
"217 705 OFFCURVE",
"252 705 CURVE SMOOTH",
"296 705 OFFCURVE",
"315 673 OFFCURVE",
"308 637 CURVE SMOOTH",
"299 599 OFFCURVE",
"275 575 OFFCURVE",
"240 547 CURVE SMOOTH",
"77 417 LINE",
"72 413 OFFCURVE",
"69 409 OFFCURVE",
"67 405 CURVE SMOOTH",
"65 402 OFFCURVE",
"64 398 OFFCURVE",
"63 394 CURVE SMOOTH",
"59 377 OFFCURVE",
"68 364 OFFCURVE",
"87 364 CURVE SMOOTH",
"296 364 LINE SMOOTH",
"313 364 OFFCURVE",
"329 376 OFFCURVE",
"332 392 CURVE SMOOTH",
"336 410 OFFCURVE",
"326 423 OFFCURVE",
"309 423 CURVE SMOOTH"
);
}
);
width = 350.646;
}
);
leftMetricsKey = two;
rightMetricsKey = two;
unicode = 00B2;
},
{
glyphname = threesuperior;
lastChange = "2013-12-18 08:31:18 +0400";
layers = (
{
layerId = "9764FC2E-EF50-4B10-BB5F-6BAA27A55E88";
name = Regular;
paths = (
{
closed = 1;
nodes = (
"340 706 LINE SMOOTH",
"344 709 OFFCURVE",
"347 713 OFFCURVE",
"349 717 CURVE",
"351 720 OFFCURVE",
"353 725 OFFCURVE",
"354 729 CURVE SMOOTH",
"358 747 OFFCURVE",
"348 760 OFFCURVE",
"330 760 CURVE SMOOTH",
"163 760 LINE SMOOTH",
"145 760 OFFCURVE",
"129 748 OFFCURVE",
"125 731 CURVE SMOOTH",
"122 713 OFFCURVE",
"132 700 OFFCURVE",
"150 700 CURVE SMOOTH",
"254 700 LINE",
"164 620 LINE SMOOTH",
"150 606 OFFCURVE",
"147 588 OFFCURVE",
"157 577 CURVE SMOOTH",
"172 561 OFFCURVE",
"185 575 OFFCURVE",
"220 569 CURVE SMOOTH",
"250 564 OFFCURVE",
"269 538 OFFCURVE",
"261 499 CURVE SMOOTH",
"253 460 OFFCURVE",
"210 419 OFFCURVE",
"160 419 CURVE SMOOTH",
"141 419 OFFCURVE",
"116 430 OFFCURVE",
"108 435 CURVE SMOOTH",
"100 440 OFFCURVE",
"92 441 OFFCURVE",
"77 431 CURVE",
"57 416 OFFCURVE",
"54 393 OFFCURVE",
"69 382 CURVE SMOOTH",
"86 369 OFFCURVE",
"111 360 OFFCURVE",
"147 360 CURVE SMOOTH",
"234 360 OFFCURVE",
"306 432 OFFCURVE",
"320 499 CURVE SMOOTH",
"333 562 OFFCURVE",
"314 612 OFFCURVE",
"252 626 CURVE"
);
}
);
width = 335.875;
}
);
leftMetricsKey = three;
rightMetricsKey = three;
unicode = 00B3;
},
{
glyphname = asterisk;
lastChange = "2013-12-18 08:31:18 +0400";
layers = (
{
layerId = "9764FC2E-EF50-4B10-BB5F-6BAA27A55E88";
name = Regular;
paths = (
{
closed = 1;
nodes = (
"284 542 LINE SMOOTH",
"276 546 OFFCURVE",
"276 552 OFFCURVE",
"284 556 CURVE SMOOTH",
"363 593 LINE SMOOTH",
"376 599 OFFCURVE",
"380 612 OFFCURVE",
"373 623 CURVE SMOOTH",
"369 629 LINE SMOOTH",
"363 641 OFFCURVE",
"350 643 OFFCURVE",
"339 636 CURVE SMOOTH",
"268 586 LINE SMOOTH",
"261 581 OFFCURVE",
"256 584 OFFCURVE",
"256 593 CURVE SMOOTH",
"263 679 LINE SMOOTH",
"264 692 OFFCURVE",
"255 702 OFFCURVE",
"242 702 CURVE SMOOTH",
"236 702 LINE SMOOTH",
"223 702 OFFCURVE",
"214 692 OFFCURVE",
"215 679 CURVE SMOOTH",
"222 593 LINE SMOOTH",
"222 584 OFFCURVE",
"217 581 OFFCURVE",
"210 586 CURVE SMOOTH",
"139 636 LINE SMOOTH",
"128 643 OFFCURVE",
"115 640 OFFCURVE",
"109 629 CURVE SMOOTH",
"105 623 LINE SMOOTH",
"98 612 OFFCURVE",
"102 599 OFFCURVE",
"114 593 CURVE SMOOTH",
"194 556 LINE SMOOTH",
"202 552 OFFCURVE",
"202 546 OFFCURVE",
"194 542 CURVE SMOOTH",
"114 505 LINE SMOOTH",
"102 500 OFFCURVE",
"98 487 OFFCURVE",
"104 476 CURVE SMOOTH",
"108 469 LINE SMOOTH",
"115 458 OFFCURVE",
"128 455 OFFCURVE",
"139 462 CURVE SMOOTH",
"210 513 LINE SMOOTH",
"217 518 OFFCURVE",
"222 515 OFFCURVE",
"222 506 CURVE SMOOTH",
"215 420 LINE SMOOTH",
"214 407 OFFCURVE",
"223 397 OFFCURVE",
"236 397 CURVE SMOOTH",
"242 397 LINE SMOOTH",
"255 397 OFFCURVE",
"264 407 OFFCURVE",
"263 420 CURVE SMOOTH",
"256 506 LINE SMOOTH",
"256 515 OFFCURVE",
"261 518 OFFCURVE",
"268 513 CURVE SMOOTH",
"339 462 LINE SMOOTH",
"350 455 OFFCURVE",
"363 457 OFFCURVE",
"370 469 CURVE SMOOTH",
"374 476 LINE SMOOTH",
"380 487 OFFCURVE",
"376 500 OFFCURVE",
"364 506 CURVE SMOOTH"
);
}
);
width = 393.757;
}
);
unicode = 002A;
},
{
glyphname = backslash;
lastChange = "2013-12-18 08:31:18 +0400";
layers = (
{
layerId = "9764FC2E-EF50-4B10-BB5F-6BAA27A55E88";
name = Regular;
paths = (
{
closed = 1;
nodes = (
"199 794 OFFCURVE",
"191 800 OFFCURVE",
"177 800 CURVE SMOOTH",
"159 800 LINE SMOOTH",
"140 800 OFFCURVE",
"130 788 OFFCURVE",
"135 770 CURVE SMOOTH",
"388 -108 LINE SMOOTH",
"392 -120 OFFCURVE",
"400 -126 OFFCURVE",
"414 -126 CURVE SMOOTH",
"432 -126 LINE SMOOTH",
"451 -126 OFFCURVE",
"461 -114 OFFCURVE",
"456 -96 CURVE SMOOTH",
"203 782 LINE SMOOTH"
);
}
);
width = 589.279;
}
);
unicode = 005C;
},
{
glyphname = bullet;
lastChange = "2013-12-18 08:31:18 +0400";
layers = (
{
layerId = "9764FC2E-EF50-4B10-BB5F-6BAA27A55E88";
name = Regular;
paths = (
{
closed = 1;
nodes = (
"323 424 OFFCURVE",
"264 483 OFFCURVE",
"192 483 CURVE SMOOTH",
"120 483 OFFCURVE",
"61 424 OFFCURVE",
"61 352 CURVE SMOOTH",
"61 280 OFFCURVE",
"120 221 OFFCURVE",
"192 221 CURVE SMOOTH",
"264 221 OFFCURVE",
"323 280 OFFCURVE",
"323 352 CURVE SMOOTH"
);
}
);
width = 368;
}
);
unicode = 2022;
},
{
glyphname = colon;
lastChange = "2013-12-18 08:31:18 +0400";
layers = (
{
layerId = "9764FC2E-EF50-4B10-BB5F-6BAA27A55E88";
name = Regular;
paths = (
{
closed = 1;
nodes = (
"221 476 LINE SMOOTH",
"226 500 OFFCURVE",
"213 517 OFFCURVE",
"189 517 CURVE SMOOTH",
"179 517 LINE SMOOTH",
"155 517 OFFCURVE",
"134 500 OFFCURVE",
"129 476 CURVE SMOOTH",
"124 453 LINE SMOOTH",
"119 429 OFFCURVE",
"133 412 OFFCURVE",
"157 412 CURVE SMOOTH",
"167 412 LINE SMOOTH",
"191 412 OFFCURVE",
"211 429 OFFCURVE",
"216 453 CURVE SMOOTH"
);
},
{
closed = 1;
nodes = (
"134 64 LINE SMOOTH",
"139 88 OFFCURVE",
"125 105 OFFCURVE",
"101 105 CURVE SMOOTH",
"91 105 LINE SMOOTH",
"67 105 OFFCURVE",
"47 88 OFFCURVE",
"42 64 CURVE SMOOTH",
"37 41 LINE SMOOTH",
"32 17 OFFCURVE",
"45 0 OFFCURVE",
"69 0 CURVE SMOOTH",
"79 0 LINE SMOOTH",
"103 0 OFFCURVE",
"124 17 OFFCURVE",
"129 41 CURVE SMOOTH"
);
}
);
width = 268.061;
}
);
unicode = 003A;
},
{
glyphname = comma;
lastChange = "2013-12-18 08:31:18 +0400";
layers = (
{
layerId = "9764FC2E-EF50-4B10-BB5F-6BAA27A55E88";
name = Regular;
paths = (
{
closed = 1;
nodes = (
"-13 -115 OFFCURVE",
"4 -119 OFFCURVE",
"26 -111 CURVE SMOOTH",
"81 -90 OFFCURVE",
"113 -52 OFFCURVE",
"127 15 CURVE SMOOTH",
"138 64 LINE SMOOTH",
"143 88 OFFCURVE",
"129 105 OFFCURVE",
"105 105 CURVE SMOOTH",
"95 105 LINE SMOOTH",
"71 105 OFFCURVE",
"51 88 OFFCURVE",
"46 64 CURVE SMOOTH",
"41 41 LINE SMOOTH",
"36 19 OFFCURVE",
"46 3 OFFCURVE",
"63 0 CURVE SMOOTH",
"66 0 OFFCURVE",
"68 -2 OFFCURVE",
"67 -5 CURVE SMOOTH",
"63 -34 OFFCURVE",
"47 -56 OFFCURVE",
"18 -72 CURVE SMOOTH",
"-3 -83 OFFCURVE",
"-17 -94 OFFCURVE",
"-15 -105 CURVE SMOOTH"
);
}
);
width = 239.008;
}
);
unicode = 002C;
},
{
glyphname = ellipsis;
lastChange = "2013-12-18 08:31:18 +0400";
layers = (
{
layerId = "9764FC2E-EF50-4B10-BB5F-6BAA27A55E88";
name = Regular;
paths = (
{
closed = 1;
nodes = (
"585 62 LINE SMOOTH",
"585 86 OFFCURVE",
"568 103 OFFCURVE",
"544 103 CURVE SMOOTH",
"536 103 LINE SMOOTH",
"512 103 OFFCURVE",
"495 86 OFFCURVE",
"495 62 CURVE SMOOTH",
"495 41 LINE SMOOTH",
"495 17 OFFCURVE",
"512 0 OFFCURVE",
"536 0 CURVE SMOOTH",
"544 0 LINE SMOOTH",
"568 0 OFFCURVE",
"585 17 OFFCURVE",
"585 41 CURVE SMOOTH"
);
},
{
closed = 1;
nodes = (
"344 62 LINE SMOOTH",
"344 86 OFFCURVE",
"327 103 OFFCURVE",
"303 103 CURVE SMOOTH",
"296 103 LINE SMOOTH",
"272 103 OFFCURVE",
"255 86 OFFCURVE",
"255 62 CURVE SMOOTH",
"255 41 LINE SMOOTH",
"255 17 OFFCURVE",
"272 0 OFFCURVE",
"296 0 CURVE SMOOTH",
"303 0 LINE SMOOTH",
"327 0 OFFCURVE",
"344 17 OFFCURVE",
"344 41 CURVE SMOOTH"
);
},
{
closed = 1;
nodes = (
"104 62 LINE SMOOTH",
"104 86 OFFCURVE",
"87 103 OFFCURVE",
"63 103 CURVE SMOOTH",
"56 103 LINE SMOOTH",
"32 103 OFFCURVE",
"15 86 OFFCURVE",
"15 62 CURVE SMOOTH",
"15 41 LINE SMOOTH",
"15 17 OFFCURVE",
"32 0 OFFCURVE",
"56 0 CURVE SMOOTH",
"63 0 LINE SMOOTH",
"87 0 OFFCURVE",
"104 17 OFFCURVE",
"104 41 CURVE SMOOTH"
);
}
);
width = 685;
}
);
unicode = 2026;
},
{
glyphname = exclam;
lastChange = "2013-12-18 08:31:18 +0400";
layers = (
{
layerId = "9764FC2E-EF50-4B10-BB5F-6BAA27A55E88";
name = Regular;
paths = (
{
closed = 1;
nodes = (
"162 643 LINE",
"96 227 LINE SMOOTH",
"92 210 OFFCURVE",
"96 198 OFFCURVE",
"113 198 CURVE SMOOTH",
"130 198 OFFCURVE",
"137 210 OFFCURVE",
"142 226 CURVE SMOOTH",
"252 643 LINE",
"258 669 LINE SMOOTH",
"262 687 OFFCURVE",
"251 700 OFFCURVE",
"233 700 CURVE SMOOTH",
"205 700 LINE SMOOTH",
"187 700 OFFCURVE",
"172 688 OFFCURVE",
"168 672 CURVE SMOOTH"
);
},
{
closed = 1;
nodes = (
"132 74 LINE SMOOTH",
"136 92 OFFCURVE",
"126 105 OFFCURVE",
"108 105 CURVE SMOOTH",
"78 105 LINE SMOOTH",
"60 105 OFFCURVE",
"44 92 OFFCURVE",
"40 74 CURVE SMOOTH",
"31 31 LINE SMOOTH",
"27 13 OFFCURVE",
"38 0 OFFCURVE",
"56 0 CURVE SMOOTH",
"86 0 LINE SMOOTH",
"104 0 OFFCURVE",
"119 13 OFFCURVE",
"123 31 CURVE SMOOTH"
);
}
);
width = 268.64;
}
);
unicode = 0021;
},
{
glyphname = exclamdown;
lastChange = "2013-12-18 08:31:18 +0400";
layers = (
{
layerId = "9764FC2E-EF50-4B10-BB5F-6BAA27A55E88";
name = Regular;
paths = (
{
closed = 1;
nodes = (
"7 13 OFFCURVE",
"18 1 OFFCURVE",
"36 1 CURVE SMOOTH",
"64 1 LINE SMOOTH",
"82 1 OFFCURVE",
"97 14 OFFCURVE",
"101 32 CURVE SMOOTH",
"107 58 LINE",
"173 475 LINE SMOOTH",
"176 491 OFFCURVE",
"173 503 OFFCURVE",
"156 503 CURVE SMOOTH",
"139 503 OFFCURVE",
"131 491 OFFCURVE",
"127 474 CURVE SMOOTH",
"17 58 LINE",
"11 29 LINE SMOOTH"
);
},
{
closed = 1;
nodes = (
"242 688 OFFCURVE",
"231 701 OFFCURVE",
"213 701 CURVE SMOOTH",
"183 701 LINE SMOOTH",
"165 701 OFFCURVE",
"150 688 OFFCURVE",
"146 670 CURVE SMOOTH",
"137 627 LINE SMOOTH",
"133 609 OFFCURVE",
"143 596 OFFCURVE",
"161 596 CURVE SMOOTH",
"191 596 LINE SMOOTH",
"209 596 OFFCURVE",
"225 609 OFFCURVE",
"229 627 CURVE SMOOTH",
"238 670 LINE SMOOTH"
);
}
);
width = 268.64;
}
);
unicode = 00A1;
},
{
glyphname = numbersign;
lastChange = "2013-12-18 08:31:18 +0400";
layers = (
{
layerId = "9764FC2E-EF50-4B10-BB5F-6BAA27A55E88";
name = Regular;
paths = (
{
closed = 1;
nodes = (
"703 496 LINE SMOOTH",
"707 514 OFFCURVE",
"697 527 OFFCURVE",
"679 527 CURVE SMOOTH",
"613 527 LINE SMOOTH",
"606 527 OFFCURVE",
"603 531 OFFCURVE",
"606 538 CURVE SMOOTH",
"653 662 LINE SMOOTH",
"661 683 OFFCURVE",
"650 700 OFFCURVE",
"629 700 CURVE SMOOTH",
"621 700 LINE SMOOTH",
"607 700 OFFCURVE",
"593 690 OFFCURVE",
"588 676 CURVE SMOOTH",
"535 536 LINE SMOOTH",
"532 530 OFFCURVE",
"528 527 OFFCURVE",
"522 527 CURVE SMOOTH",
"352 527 LINE SMOOTH",
"345 527 OFFCURVE",
"342 531 OFFCURVE",
"345 538 CURVE SMOOTH",
"392 662 LINE SMOOTH",
"400 683 OFFCURVE",
"389 700 OFFCURVE",
"368 700 CURVE SMOOTH",
"360 700 LINE SMOOTH",
"346 700 OFFCURVE",
"332 690 OFFCURVE",
"327 676 CURVE SMOOTH",
"274 536 LINE SMOOTH",
"271 530 OFFCURVE",
"267 527 OFFCURVE",
"261 527 CURVE SMOOTH",
"171 527 LINE SMOOTH",
"153 527 OFFCURVE",
"137 514 OFFCURVE",
"133 496 CURVE SMOOTH",
"132 489 LINE SMOOTH",
"128 471 OFFCURVE",
"138 458 OFFCURVE",
"156 458 CURVE SMOOTH",
"233 458 LINE SMOOTH",
"240 458 OFFCURVE",
"242 454 OFFCURVE",
"240 447 CURVE SMOOTH",
"166 255 LINE SMOOTH",
"164 249 OFFCURVE",
"159 246 OFFCURVE",
"153 246 CURVE SMOOTH",
"71 246 LINE SMOOTH",
"53 246 OFFCURVE",
"37 233 OFFCURVE",
"33 215 CURVE SMOOTH",
"32 208 LINE SMOOTH",
"28 190 OFFCURVE",
"38 177 OFFCURVE",
"56 177 CURVE SMOOTH",
"124 177 LINE SMOOTH",
"131 177 OFFCURVE",
"133 173 OFFCURVE",
"131 166 CURVE SMOOTH",
"82 38 LINE SMOOTH",
"74 17 OFFCURVE",
"85 0 OFFCURVE",
"106 0 CURVE SMOOTH",
"114 0 LINE SMOOTH",
"128 0 OFFCURVE",
"142 10 OFFCURVE",
"147 24 CURVE SMOOTH",
"202 168 LINE SMOOTH",
"205 174 OFFCURVE",
"209 177 OFFCURVE",
"215 177 CURVE SMOOTH",
"385 177 LINE SMOOTH",
"392 177 OFFCURVE",
"394 173 OFFCURVE",
"392 166 CURVE SMOOTH",
"343 38 LINE SMOOTH",
"335 17 OFFCURVE",
"346 0 OFFCURVE",
"367 0 CURVE SMOOTH",
"375 0 LINE SMOOTH",
"389 0 OFFCURVE",
"403 10 OFFCURVE",
"408 24 CURVE SMOOTH",
"463 168 LINE SMOOTH",
"466 174 OFFCURVE",
"470 177 OFFCURVE",
"476 177 CURVE SMOOTH",
"565 177 LINE SMOOTH",
"583 177 OFFCURVE",
"599 190 OFFCURVE",
"603 208 CURVE SMOOTH",
"604 215 LINE SMOOTH",
"608 233 OFFCURVE",
"598 246 OFFCURVE",
"580 246 CURVE SMOOTH",
"504 246 LINE SMOOTH",
"497 246 OFFCURVE",
"495 250 OFFCURVE",
"497 257 CURVE SMOOTH",
"571 449 LINE SMOOTH",
"573 455 OFFCURVE",
"578 458 OFFCURVE",
"584 458 CURVE SMOOTH",
"664 458 LINE SMOOTH",
"682 458 OFFCURVE",
"698 471 OFFCURVE",
"702 489 CURVE SMOOTH"
);
},
{
closed = 1;
nodes = (
"427 255 LINE SMOOTH",
"425 249 OFFCURVE",
"420 246 OFFCURVE",
"414 246 CURVE SMOOTH",
"244 246 LINE SMOOTH",
"237 246 OFFCURVE",
"235 250 OFFCURVE",
"237 257 CURVE SMOOTH",
"310 449 LINE SMOOTH",
"312 455 OFFCURVE",
"317 458 OFFCURVE",
"323 458 CURVE SMOOTH",
"493 458 LINE SMOOTH",
"500 458 OFFCURVE",
"502 454 OFFCURVE",
"500 447 CURVE SMOOTH"
);
}
);
width = 715.875;
}
);
unicode = 0023;
},
{
glyphname = period;
lastChange = "2013-12-18 08:31:18 +0400";
layers = (
{
layerId = "9764FC2E-EF50-4B10-BB5F-6BAA27A55E88";
name = Regular;
paths = (
{
closed = 1;
nodes = (
"109 62 LINE SMOOTH",
"114 86 OFFCURVE",
"101 103 OFFCURVE",
"77 103 CURVE SMOOTH",
"70 103 LINE SMOOTH",
"46 103 OFFCURVE",
"25 86 OFFCURVE",
"20 62 CURVE SMOOTH",
"16 41 LINE SMOOTH",
"11 17 OFFCURVE",
"24 0 OFFCURVE",
"48 0 CURVE SMOOTH",
"55 0 LINE SMOOTH",
"79 0 OFFCURVE",
"100 17 OFFCURVE",
"105 41 CURVE SMOOTH"
);
}
);
width = 210.061;
}
);
unicode = 002E;
},
{
glyphname = periodcentered;
lastChange = "2013-12-18 08:31:18 +0400";
layers = (
{
layerId = "9764FC2E-EF50-4B10-BB5F-6BAA27A55E88";
name = Regular;
paths = (
{
closed = 1;
nodes = (
"162 312 LINE SMOOTH",
"162 336 OFFCURVE",
"145 353 OFFCURVE",
"121 353 CURVE SMOOTH",
"111 353 LINE SMOOTH",
"87 353 OFFCURVE",
"70 336 OFFCURVE",
"70 312 CURVE SMOOTH",
"70 289 LINE SMOOTH",
"70 265 OFFCURVE",
"87 248 OFFCURVE",
"111 248 CURVE SMOOTH",
"121 248 LINE SMOOTH",
"145 248 OFFCURVE",
"162 265 OFFCURVE",
"162 289 CURVE SMOOTH"
);
}
);
width = 227;
}
);
unicode = 00B7;
},
{
glyphname = question;
lastChange = "2013-12-18 08:31:18 +0400";
layers = (
{
layerId = "9764FC2E-EF50-4B10-BB5F-6BAA27A55E88";
name = Regular;
paths = (
{
closed = 1;
nodes = (
"150 195 LINE SMOOTH",
"145 174 OFFCURVE",
"156 159 OFFCURVE",
"176 159 CURVE SMOOTH",
"197 159 OFFCURVE",
"215 174 OFFCURVE",
"220 195 CURVE SMOOTH",
"240 289 LINE SMOOTH",
"240 292 OFFCURVE",
"243 294 OFFCURVE",
"246 294 CURVE SMOOTH",
"370 317 OFFCURVE",
"471 395 OFFCURVE",
"496 511 CURVE SMOOTH",
"524 644 OFFCURVE",
"436 740 OFFCURVE",
"301 740 CURVE SMOOTH",
"228 740 OFFCURVE",
"149 703 OFFCURVE",
"93 651 CURVE",
"75 633 OFFCURVE",
"76 610 OFFCURVE",
"93 599 CURVE SMOOTH",
"107 590 OFFCURVE",
"125 595 OFFCURVE",
"140 609 CURVE SMOOTH",
"180 647 OFFCURVE",
"232 670 OFFCURVE",
"286 670 CURVE SMOOTH",
"383 670 OFFCURVE",
"447 608 OFFCURVE",
"426 511 CURVE SMOOTH",
"407 420 OFFCURVE",
"332 369 OFFCURVE",
"218 359 CURVE",
"195 356 OFFCURVE",
"180 339 OFFCURVE",
"177 324 CURVE SMOOTH"
);
},
{
closed = 1;
nodes = (
"116 36 LINE SMOOTH",
"112 15 OFFCURVE",
"122 0 OFFCURVE",
"142 0 CURVE SMOOTH",
"163 0 OFFCURVE",
"182 15 OFFCURVE",
"186 36 CURVE SMOOTH",
"196 82 LINE SMOOTH",
"200 103 OFFCURVE",
"189 118 OFFCURVE",
"169 118 CURVE SMOOTH",
"148 118 OFFCURVE",
"130 103 OFFCURVE",
"126 82 CURVE SMOOTH"
);
}
);
width = 521.197;
}
);
unicode = 003F;
},
{
glyphname = questiondown;
lastChange = "2013-12-18 08:31:18 +0400";
layers = (
{
layerId = "9764FC2E-EF50-4B10-BB5F-6BAA27A55E88";
name = Regular;
paths = (
{
closed = 1;
nodes = (
"371 360 LINE SMOOTH",
"376 381 OFFCURVE",
"365 396 OFFCURVE",
"345 396 CURVE SMOOTH",
"324 396 OFFCURVE",
"306 381 OFFCURVE",
"301 360 CURVE SMOOTH",
"281 266 LINE SMOOTH",
"281 263 OFFCURVE",
"278 261 OFFCURVE",
"275 261 CURVE SMOOTH",
"151 238 OFFCURVE",
"50 160 OFFCURVE",
"25 44 CURVE SMOOTH",
"-3 -89 OFFCURVE",
"85 -185 OFFCURVE",
"220 -185 CURVE SMOOTH",
"293 -185 OFFCURVE",
"372 -148 OFFCURVE",
"428 -96 CURVE",
"446 -78 OFFCURVE",
"445 -55 OFFCURVE",
"428 -44 CURVE SMOOTH",
"414 -35 OFFCURVE",
"396 -40 OFFCURVE",
"381 -54 CURVE SMOOTH",
"341 -92 OFFCURVE",
"289 -115 OFFCURVE",
"235 -115 CURVE SMOOTH",
"138 -115 OFFCURVE",
"74 -53 OFFCURVE",
"95 44 CURVE SMOOTH",
"114 135 OFFCURVE",
"189 186 OFFCURVE",
"303 196 CURVE",
"326 199 OFFCURVE",
"341 216 OFFCURVE",
"344 231 CURVE SMOOTH"
);
},
{
closed = 1;
nodes = (
"405 519 LINE SMOOTH",
"409 540 OFFCURVE",
"399 555 OFFCURVE",
"379 555 CURVE SMOOTH",
"358 555 OFFCURVE",
"339 540 OFFCURVE",
"335 519 CURVE SMOOTH",
"325 473 LINE SMOOTH",
"321 452 OFFCURVE",
"332 437 OFFCURVE",
"352 437 CURVE SMOOTH",
"373 437 OFFCURVE",
"391 452 OFFCURVE",
"395 473 CURVE SMOOTH"
);
}
);
width = 521.325;
}
);
unicode = 00BF;
},
{
glyphname = quotedbl;
lastChange = "2013-12-18 08:31:18 +0400";
layers = (
{
layerId = "9764FC2E-EF50-4B10-BB5F-6BAA27A55E88";
name = Regular;
paths = (
{
closed = 1;
nodes = (
"105 438 OFFCURVE",
"110 439 OFFCURVE",
"119 456 CURVE SMOOTH",
"235 674 LINE SMOOTH",
"245 693 OFFCURVE",
"240 709 OFFCURVE",
"221 710 CURVE SMOOTH",
"218 710 OFFCURVE",
"214 710 OFFCURVE",
"211 710 CURVE SMOOTH",
"195 710 LINE SMOOTH",
"174 710 OFFCURVE",
"155 696 OFFCURVE",
"148 675 CURVE SMOOTH",
"81 456 LINE SMOOTH",
"77 444 OFFCURVE",
"81 438 OFFCURVE",
"92 438 CURVE SMOOTH"
);
},
{
closed = 1;
nodes = (
"300 438 OFFCURVE",
"305 439 OFFCURVE",
"314 456 CURVE SMOOTH",
"430 674 LINE SMOOTH",
"440 693 OFFCURVE",
"435 709 OFFCURVE",
"416 710 CURVE SMOOTH",
"413 710 OFFCURVE",
"409 710 OFFCURVE",
"406 710 CURVE SMOOTH",
"390 710 LINE SMOOTH",
"369 710 OFFCURVE",
"350 696 OFFCURVE",
"343 675 CURVE SMOOTH",
"276 456 LINE SMOOTH",
"272 444 OFFCURVE",
"276 438 OFFCURVE",
"287 438 CURVE SMOOTH"
);
}
);
width = 455.554;
}
);
unicode = 0022;
},
{
glyphname = quotesingle;
lastChange = "2013-12-18 08:31:18 +0400";
layers = (
{
layerId = "9764FC2E-EF50-4B10-BB5F-6BAA27A55E88";
name = Regular;
paths = (
{
closed = 1;
nodes = (
"105 438 OFFCURVE",
"110 439 OFFCURVE",
"119 456 CURVE SMOOTH",
"235 674 LINE SMOOTH",
"245 693 OFFCURVE",
"240 709 OFFCURVE",
"221 710 CURVE SMOOTH",
"218 710 OFFCURVE",
"214 710 OFFCURVE",
"211 710 CURVE SMOOTH",
"195 710 LINE SMOOTH",
"174 710 OFFCURVE",
"155 696 OFFCURVE",
"148 675 CURVE SMOOTH",
"81 456 LINE SMOOTH",
"77 444 OFFCURVE",
"81 438 OFFCURVE",
"92 438 CURVE SMOOTH"
);
}
);
width = 260.038;
}
);
unicode = 0027;
},
{
glyphname = semicolon;
lastChange = "2013-12-18 08:31:18 +0400";
layers = (
{
layerId = "9764FC2E-EF50-4B10-BB5F-6BAA27A55E88";
name = Regular;
paths = (
{
closed = 1;
nodes = (
"245 476 LINE SMOOTH",
"251 500 OFFCURVE",
"237 517 OFFCURVE",
"213 517 CURVE SMOOTH",
"203 517 LINE SMOOTH",
"179 517 OFFCURVE",
"159 500 OFFCURVE",
"153 476 CURVE SMOOTH",
"149 453 LINE SMOOTH",
"143 429 OFFCURVE",
"157 412 OFFCURVE",
"181 412 CURVE SMOOTH",
"191 412 LINE SMOOTH",
"215 412 OFFCURVE",
"235 429 OFFCURVE",
"241 453 CURVE SMOOTH"
);
},
{
closed = 1;
nodes = (
"7 -115 OFFCURVE",
"24 -119 OFFCURVE",
"47 -111 CURVE SMOOTH",
"101 -90 OFFCURVE",
"133 -52 OFFCURVE",
"147 15 CURVE SMOOTH",
"158 64 LINE SMOOTH",
"163 88 OFFCURVE",
"150 105 OFFCURVE",
"126 105 CURVE SMOOTH",
"116 105 LINE SMOOTH",
"92 105 OFFCURVE",
"71 88 OFFCURVE",
"66 64 CURVE SMOOTH",
"61 41 LINE SMOOTH",
"56 19 OFFCURVE",
"66 3 OFFCURVE",
"83 0 CURVE SMOOTH",
"86 0 OFFCURVE",
"88 -2 OFFCURVE",
"87 -5 CURVE SMOOTH",
"83 -34 OFFCURVE",
"67 -56 OFFCURVE",
"38 -72 CURVE SMOOTH",
"18 -83 OFFCURVE",
"3 -94 OFFCURVE",
"5 -105 CURVE SMOOTH"
);
}
);
width = 292.386;
}
);
unicode = 003B;
},
{
glyphname = slash;
lastChange = "2013-12-22 08:06:54 +0400";
layers = (
{
layerId = "9764FC2E-EF50-4B10-BB5F-6BAA27A55E88";
name = Regular;
paths = (
{
closed = 1;
nodes = (
"22 -96 LINE SMOOTH",
"11 -114 OFFCURVE",
"19 -126 OFFCURVE",
"38 -126 CURVE SMOOTH",
"56 -126 LINE SMOOTH",
"70 -126 OFFCURVE",
"79 -120 OFFCURVE",
"86 -108 CURVE SMOOTH",
"605 770 LINE SMOOTH",
"616 788 OFFCURVE",
"608 800 OFFCURVE",
"589 800 CURVE SMOOTH",
"571 800 LINE SMOOTH",
"557 800 OFFCURVE",
"548 794 OFFCURVE",
"541 782 CURVE SMOOTH"
);
}
);
width = 618.933;
}
);
unicode = 002F;
},
{
glyphname = underscore;
lastChange = "2013-12-18 08:31:18 +0400";
layers = (
{
layerId = "9764FC2E-EF50-4B10-BB5F-6BAA27A55E88";
name = Regular;
paths = (
{
closed = 1;
nodes = (
"-82 -129 LINE SMOOTH",
"-86 -147 OFFCURVE",
"-76 -160 OFFCURVE",
"-58 -160 CURVE SMOOTH",
"484 -160 LINE SMOOTH",
"502 -160 OFFCURVE",
"518 -147 OFFCURVE",
"522 -129 CURVE SMOOTH",
"522 -128 LINE SMOOTH",
"526 -110 OFFCURVE",
"516 -97 OFFCURVE",
"498 -97 CURVE SMOOTH",
"-44 -97 LINE SMOOTH",
"-62 -97 OFFCURVE",
"-78 -110 OFFCURVE",
"-82 -128 CURVE SMOOTH"
);
}
);
width = 604.875;
}
);
unicode = 005F;
},
{
glyphname = braceleft;
lastChange = "2013-12-18 08:31:18 +0400";
layers = (
{
layerId = "9764FC2E-EF50-4B10-BB5F-6BAA27A55E88";
name = Regular;
paths = (
{
closed = 1;
nodes = (
"473 765 OFFCURVE",
"461 773 OFFCURVE",
"442 769 CURVE SMOOTH",
"281 734 OFFCURVE",
"228 641 OFFCURVE",
"207 543 CURVE SMOOTH",
"192 467 LINE SMOOTH",
"175 389 OFFCURVE",
"138 347 OFFCURVE",
"48 347 CURVE SMOOTH",
"33 347 OFFCURVE",
"20 335 OFFCURVE",
"16 318 CURVE SMOOTH",
"12 300 OFFCURVE",
"21 287 OFFCURVE",
"36 287 CURVE SMOOTH",
"126 287 OFFCURVE",
"145 245 OFFCURVE",
"128 167 CURVE SMOOTH",
"111 91 LINE SMOOTH",
"90 -7 OFFCURVE",
"103 -100 OFFCURVE",
"249 -135 CURVE SMOOTH",
"266 -139 OFFCURVE",
"283 -131 OFFCURVE",
"289 -118 CURVE SMOOTH",
"296 -102 OFFCURVE",
"290 -87 OFFCURVE",
"274 -82 CURVE SMOOTH",
"168 -48 OFFCURVE",
"168 18 OFFCURVE",
"186 101 CURVE SMOOTH",
"203 176 LINE SMOOTH",
"220 254 OFFCURVE",
"195 290 OFFCURVE",
"142 312 CURVE SMOOTH",
"135 315 OFFCURVE",
"135 319 OFFCURVE",
"144 322 CURVE SMOOTH",
"205 343 OFFCURVE",
"246 380 OFFCURVE",
"263 458 CURVE SMOOTH",
"278 533 LINE SMOOTH",
"296 616 OFFCURVE",
"324 682 OFFCURVE",
"444 716 CURVE SMOOTH",
"462 721 OFFCURVE",
"475 735 OFFCURVE",
"474 750 CURVE SMOOTH"
);
}
);
width = 397.054;
}
);
unicode = 007B;
},
{
glyphname = braceright;
lastChange = "2013-12-18 08:31:18 +0400";
layers = (
{
layerId = "9764FC2E-EF50-4B10-BB5F-6BAA27A55E88";
name = Regular;
paths = (
{
closed = 1;
nodes = (
"105 735 OFFCURVE",
"112 721 OFFCURVE",
"128 716 CURVE SMOOTH",
"234 682 OFFCURVE",
"234 616 OFFCURVE",
"216 533 CURVE SMOOTH",
"199 458 LINE SMOOTH",
"182 380 OFFCURVE",
"209 343 OFFCURVE",
"260 322 CURVE SMOOTH",
"267 319 OFFCURVE",
"267 315 OFFCURVE",
"258 312 CURVE SMOOTH",
"195 290 OFFCURVE",
"156 254 OFFCURVE",
"139 176 CURVE SMOOTH",
"124 101 LINE SMOOTH",
"106 18 OFFCURVE",
"78 -48 OFFCURVE",
"-42 -82 CURVE SMOOTH",
"-60 -87 OFFCURVE",
"-72 -102 OFFCURVE",
"-71 -118 CURVE SMOOTH",
"-71 -131 OFFCURVE",
"-58 -139 OFFCURVE",
"-39 -135 CURVE SMOOTH",
"121 -100 OFFCURVE",
"174 -7 OFFCURVE",
"195 91 CURVE SMOOTH",
"210 167 LINE SMOOTH",
"227 245 OFFCURVE",
"264 287 OFFCURVE",
"354 287 CURVE SMOOTH",
"369 287 OFFCURVE",
"382 300 OFFCURVE",
"386 318 CURVE SMOOTH",
"390 335 OFFCURVE",
"381 347 OFFCURVE",
"366 347 CURVE SMOOTH",
"276 347 OFFCURVE",
"257 389 OFFCURVE",
"274 467 CURVE SMOOTH",
"291 543 LINE SMOOTH",
"312 641 OFFCURVE",
"299 734 OFFCURVE",
"152 769 CURVE SMOOTH",
"135 773 OFFCURVE",
"119 765 OFFCURVE",
"112 750 CURVE SMOOTH"
);
}
);
width = 393.95;
}
);
unicode = 007D;
},
{
glyphname = bracketleft;
lastChange = "2013-12-18 08:31:18 +0400";
layers = (
{
layerId = "9764FC2E-EF50-4B10-BB5F-6BAA27A55E88";
name = Regular;
paths = (
{
closed = 1;
nodes = (
"213 760 LINE SMOOTH",
"195 760 OFFCURVE",
"179 747 OFFCURVE",
"175 729 CURVE SMOOTH",
"-1 -99 LINE SMOOTH",
"-5 -117 OFFCURVE",
"5 -130 OFFCURVE",
"23 -130 CURVE SMOOTH",
"247 -130 LINE SMOOTH",
"265 -130 OFFCURVE",
"281 -118 OFFCURVE",
"285 -101 CURVE SMOOTH",
"288 -83 OFFCURVE",
"278 -70 OFFCURVE",
"260 -70 CURVE SMOOTH",
"88 -70 LINE SMOOTH",
"82 -70 OFFCURVE",
"79 -66 OFFCURVE",
"80 -60 CURVE SMOOTH",
"240 690 LINE SMOOTH",
"241 697 OFFCURVE",
"246 700 OFFCURVE",
"252 700 CURVE SMOOTH",
"424 700 LINE SMOOTH",
"442 700 OFFCURVE",
"457 712 OFFCURVE",
"461 729 CURVE SMOOTH",
"465 747 OFFCURVE",
"455 760 OFFCURVE",
"437 760 CURVE SMOOTH"
);
}
);
width = 387.875;
}
);
unicode = 005B;
},
{
glyphname = bracketright;
lastChange = "2013-12-18 08:31:18 +0400";
layers = (
{
layerId = "9764FC2E-EF50-4B10-BB5F-6BAA27A55E88";
name = Regular;
paths = (
{
closed = 1;
nodes = (
"130 760 OFFCURVE",
"114 747 OFFCURVE",
"110 729 CURVE SMOOTH",
"106 712 OFFCURVE",
"117 700 OFFCURVE",
"135 700 CURVE SMOOTH",
"307 700 LINE SMOOTH",
"313 700 OFFCURVE",
"316 697 OFFCURVE",
"315 690 CURVE SMOOTH",
"155 -60 LINE SMOOTH",
"154 -66 OFFCURVE",
"149 -70 OFFCURVE",
"143 -70 CURVE SMOOTH",
"-29 -70 LINE SMOOTH",
"-47 -70 OFFCURVE",
"-63 -83 OFFCURVE",
"-66 -101 CURVE SMOOTH",
"-70 -118 OFFCURVE",
"-60 -130 OFFCURVE",
"-42 -130 CURVE SMOOTH",
"182 -130 LINE SMOOTH",
"200 -130 OFFCURVE",
"216 -117 OFFCURVE",
"220 -99 CURVE SMOOTH",
"396 729 LINE SMOOTH",
"400 747 OFFCURVE",
"390 760 OFFCURVE",
"372 760 CURVE SMOOTH",
"148 760 LINE SMOOTH"
);
}
);
width = 369.875;
}
);
unicode = 005D;
},
{
glyphname = parenleft;
lastChange = "2013-12-18 08:31:18 +0400";
layers = (
{
layerId = "9764FC2E-EF50-4B10-BB5F-6BAA27A55E88";
name = Regular;
paths = (
{
closed = 1;
nodes = (
"433 765 OFFCURVE",
"413 768 OFFCURVE",
"391 756 CURVE SMOOTH",
"213 657 OFFCURVE",
"91 489 OFFCURVE",
"54 317 CURVE SMOOTH",
"17 145 OFFCURVE",
"69 -23 OFFCURVE",
"205 -122 CURVE SMOOTH",
"221 -134 OFFCURVE",
"243 -131 OFFCURVE",
"256 -116 CURVE SMOOTH",
"268 -101 OFFCURVE",
"265 -81 OFFCURVE",
"249 -68 CURVE SMOOTH",
"138 25 OFFCURVE",
"101 169 OFFCURVE",
"132 317 CURVE SMOOTH",
"163 465 OFFCURVE",
"262 609 OFFCURVE",
"413 702 CURVE SMOOTH",
"435 715 OFFCURVE",
"446 735 OFFCURVE",
"440 750 CURVE SMOOTH"
);
}
);
width = 369.623;
}
);
unicode = 0028;
},
{
glyphname = parenright;
lastChange = "2013-12-18 08:31:18 +0400";
layers = (
{
layerId = "9764FC2E-EF50-4B10-BB5F-6BAA27A55E88";
name = Regular;
paths = (
{
closed = 1;
nodes = (
"115 735 OFFCURVE",
"118 715 OFFCURVE",
"134 702 CURVE SMOOTH",
"245 609 OFFCURVE",
"282 465 OFFCURVE",
"251 317 CURVE SMOOTH",
"220 169 OFFCURVE",
"121 25 OFFCURVE",
"-30 -68 CURVE SMOOTH",
"-52 -81 OFFCURVE",
"-63 -101 OFFCURVE",
"-57 -116 CURVE SMOOTH",
"-50 -131 OFFCURVE",
"-30 -134 OFFCURVE",
"-8 -122 CURVE SMOOTH",
"170 -23 OFFCURVE",
"292 145 OFFCURVE",
"329 317 CURVE SMOOTH",
"366 489 OFFCURVE",
"314 657 OFFCURVE",
"178 756 CURVE SMOOTH",
"162 768 OFFCURVE",
"140 765 OFFCURVE",
"127 750 CURVE SMOOTH"
);
}
);
width = 375.582;
}
);
unicode = 0029;
},
{
glyphname = emdash;
lastChange = "2013-12-18 08:31:18 +0400";
layers = (
{
layerId = "9764FC2E-EF50-4B10-BB5F-6BAA27A55E88";
name = Regular;
paths = (
{
closed = 1;
nodes = (
"831 323 OFFCURVE",
"817 339 OFFCURVE",
"793 339 CURVE SMOOTH",
"107 339 LINE SMOOTH",
"83 339 OFFCURVE",
"63 324 OFFCURVE",
"59 303 CURVE SMOOTH",
"53 279 OFFCURVE",
"67 262 OFFCURVE",
"91 262 CURVE SMOOTH",
"777 262 LINE SMOOTH",
"801 262 OFFCURVE",
"821 278 OFFCURVE",
"826 301 CURVE SMOOTH"
);
}
);
width = 879.008;
}
);
unicode = 2014;
},
{
glyphname = endash;
lastChange = "2013-12-18 08:31:18 +0400";
layers = (
{
layerId = "9764FC2E-EF50-4B10-BB5F-6BAA27A55E88";
name = Regular;
paths = (
{
closed = 1;
nodes = (
"456 323 OFFCURVE",
"442 339 OFFCURVE",
"418 339 CURVE SMOOTH",
"102 339 LINE SMOOTH",
"78 339 OFFCURVE",
"58 323 OFFCURVE",
"53 301 CURVE SMOOTH",
"48 278 OFFCURVE",
"62 262 OFFCURVE",
"86 262 CURVE SMOOTH",
"402 262 LINE SMOOTH",
"426 262 OFFCURVE",
"446 278 OFFCURVE",
"451 301 CURVE SMOOTH"
);
}
);
width = 498.008;
}
);
unicode = 2013;
},
{
glyphname = hyphen;
lastChange = "2013-12-18 08:31:18 +0400";
layers = (
{
layerId = "9764FC2E-EF50-4B10-BB5F-6BAA27A55E88";
name = Regular;
paths = (
{
closed = 1;
nodes = (
"337 324 OFFCURVE",
"324 341 OFFCURVE",
"300 341 CURVE SMOOTH",
"104 341 LINE SMOOTH",
"80 341 OFFCURVE",
"59 324 OFFCURVE",
"54 301 CURVE SMOOTH",
"49 277 OFFCURVE",
"62 260 OFFCURVE",
"86 260 CURVE SMOOTH",
"282 260 LINE SMOOTH",
"306 260 OFFCURVE",
"327 277 OFFCURVE",
"332 301 CURVE SMOOTH"
);
}
);
width = 390.061;
}
);
unicode = 002D;
},
{
glyphname = guillemetleft;
lastChange = "2013-12-18 08:31:18 +0400";
layers = (
{
layerId = "9764FC2E-EF50-4B10-BB5F-6BAA27A55E88";
name = Regular;
paths = (
{
closed = 1;
nodes = (
"290 285 LINE SMOOTH",
"275 269 OFFCURVE",
"268 255 OFFCURVE",
"276 239 CURVE SMOOTH",
"278 236 LINE",
"369 67 LINE SMOOTH",
"379 50 OFFCURVE",
"394 46 OFFCURVE",
"413 56 CURVE SMOOTH",
"437 68 OFFCURVE",
"443 86 OFFCURVE",
"433 105 CURVE SMOOTH",
"357 253 LINE SMOOTH",
"355 258 OFFCURVE",
"356 262 OFFCURVE",
"360 267 CURVE SMOOTH",
"499 413 LINE SMOOTH",
"517 432 OFFCURVE",
"519 449 OFFCURVE",
"502 460 CURVE SMOOTH",
"485 471 OFFCURVE",
"467 467 OFFCURVE",
"451 450 CURVE SMOOTH"
);
},
{
closed = 1;
nodes = (
"67 285 LINE SMOOTH",
"52 269 OFFCURVE",
"45 255 OFFCURVE",
"53 239 CURVE SMOOTH",
"55 236 LINE",
"146 67 LINE SMOOTH",
"156 50 OFFCURVE",
"171 46 OFFCURVE",
"191 57 CURVE SMOOTH",
"214 68 OFFCURVE",
"221 86 OFFCURVE",
"211 105 CURVE SMOOTH",
"135 253 LINE SMOOTH",
"133 258 OFFCURVE",
"134 262 OFFCURVE",
"138 267 CURVE SMOOTH",
"277 413 LINE SMOOTH",
"295 432 OFFCURVE",
"296 449 OFFCURVE",
"279 460 CURVE SMOOTH",
"262 471 OFFCURVE",
"244 467 OFFCURVE",
"228 450 CURVE SMOOTH"
);
}
);
width = 525.105;
}
);
unicode = 00AB;
},
{
glyphname = guillemetright;
lastChange = "2013-12-18 08:31:18 +0400";
layers = (
{
layerId = "9764FC2E-EF50-4B10-BB5F-6BAA27A55E88";
name = Regular;
paths = (
{
closed = 1;
nodes = (
"146 467 OFFCURVE",
"130 471 OFFCURVE",
"109 460 CURVE SMOOTH",
"88 449 OFFCURVE",
"82 432 OFFCURVE",
"92 413 CURVE SMOOTH",
"169 267 LINE SMOOTH",
"171 262 OFFCURVE",
"170 258 OFFCURVE",
"166 253 CURVE SMOOTH",
"26 105 LINE SMOOTH",
"8 86 OFFCURVE",
"8 68 OFFCURVE",
"26 56 CURVE SMOOTH",
"41 46 OFFCURVE",
"58 50 OFFCURVE",
"74 67 CURVE SMOOTH",
"237 236 LINE",
"241 239 LINE SMOOTH",
"255 255 OFFCURVE",
"254 269 OFFCURVE",
"247 285 CURVE SMOOTH",
"156 450 LINE SMOOTH"
);
},
{
closed = 1;
nodes = (
"369 467 OFFCURVE",
"353 471 OFFCURVE",
"332 460 CURVE SMOOTH",
"311 449 OFFCURVE",
"304 432 OFFCURVE",
"314 413 CURVE SMOOTH",
"391 267 LINE SMOOTH",
"393 262 OFFCURVE",
"392 258 OFFCURVE",
"388 253 CURVE SMOOTH",
"248 105 LINE SMOOTH",
"230 86 OFFCURVE",
"231 68 OFFCURVE",
"248 57 CURVE SMOOTH",
"264 46 OFFCURVE",
"281 50 OFFCURVE",
"297 67 CURVE SMOOTH",
"460 236 LINE",
"464 239 LINE SMOOTH",
"478 255 OFFCURVE",
"477 269 OFFCURVE",
"470 285 CURVE SMOOTH",
"379 450 LINE SMOOTH"
);
}
);
width = 524.517;
}
);
unicode = 00BB;
},
{
glyphname = guilsinglleft;
lastChange = "2013-12-18 08:31:18 +0400";
layers = (
{
layerId = "9764FC2E-EF50-4B10-BB5F-6BAA27A55E88";
name = Regular;
paths = (
{
closed = 1;
nodes = (
"45 285 LINE SMOOTH",
"30 269 OFFCURVE",
"23 255 OFFCURVE",
"31 239 CURVE SMOOTH",
"33 236 LINE",
"124 67 LINE SMOOTH",
"134 50 OFFCURVE",
"149 46 OFFCURVE",
"169 57 CURVE SMOOTH",
"192 68 OFFCURVE",
"199 86 OFFCURVE",
"189 105 CURVE SMOOTH",
"113 253 LINE SMOOTH",
"111 258 OFFCURVE",
"112 262 OFFCURVE",
"116 267 CURVE SMOOTH",
"255 413 LINE SMOOTH",
"273 432 OFFCURVE",
"273 449 OFFCURVE",
"257 460 CURVE SMOOTH",
"240 471 OFFCURVE",
"222 467 OFFCURVE",
"206 450 CURVE SMOOTH"
);
}
);
width = 290.761;
}
);
unicode = 2039;
},
{
glyphname = guilsinglright;
lastChange = "2013-12-18 08:31:18 +0400";
layers = (
{
layerId = "9764FC2E-EF50-4B10-BB5F-6BAA27A55E88";
name = Regular;
paths = (
{
closed = 1;
nodes = (
"145 467 OFFCURVE",
"129 471 OFFCURVE",
"108 460 CURVE SMOOTH",
"86 449 OFFCURVE",
"80 432 OFFCURVE",
"90 413 CURVE SMOOTH",
"167 267 LINE SMOOTH",
"169 262 OFFCURVE",
"168 258 OFFCURVE",
"164 253 CURVE SMOOTH",
"24 105 LINE SMOOTH",
"6 86 OFFCURVE",
"7 68 OFFCURVE",
"24 57 CURVE SMOOTH",
"40 46 OFFCURVE",
"57 50 OFFCURVE",
"73 67 CURVE SMOOTH",
"236 236 LINE",
"240 239 LINE SMOOTH",
"254 255 OFFCURVE",
"253 269 OFFCURVE",
"246 285 CURVE SMOOTH",
"155 450 LINE SMOOTH"
);
}
);
width = 289.989;
}
);
unicode = 203A;
},
{
glyphname = quotedblleft;
lastChange = "2013-12-18 08:31:18 +0400";
layers = (
{
layerId = "9764FC2E-EF50-4B10-BB5F-6BAA27A55E88";
name = Regular;
paths = (
{
closed = 1;
nodes = (
"443 710 OFFCURVE",
"426 714 OFFCURVE",
"404 706 CURVE SMOOTH",
"349 685 OFFCURVE",
"318 646 OFFCURVE",
"304 580 CURVE SMOOTH",
"293 531 LINE SMOOTH",
"288 507 OFFCURVE",
"302 490 OFFCURVE",
"326 490 CURVE SMOOTH",
"335 490 LINE SMOOTH",
"359 490 OFFCURVE",
"379 507 OFFCURVE",
"384 531 CURVE SMOOTH",
"389 554 LINE SMOOTH",
"394 576 OFFCURVE",
"384 592 OFFCURVE",
"367 595 CURVE SMOOTH",
"364 595 OFFCURVE",
"362 597 OFFCURVE",
"363 600 CURVE SMOOTH",
"368 629 OFFCURVE",
"384 651 OFFCURVE",
"412 667 CURVE SMOOTH",
"433 678 OFFCURVE",
"447 689 OFFCURVE",
"445 700 CURVE SMOOTH"
);
},
{
closed = 1;
nodes = (
"243 710 OFFCURVE",
"226 714 OFFCURVE",
"204 706 CURVE SMOOTH",
"149 685 OFFCURVE",
"118 646 OFFCURVE",
"104 580 CURVE SMOOTH",
"93 531 LINE SMOOTH",
"88 507 OFFCURVE",
"102 490 OFFCURVE",
"126 490 CURVE SMOOTH",
"136 490 LINE SMOOTH",
"160 490 OFFCURVE",
"180 507 OFFCURVE",
"185 531 CURVE SMOOTH",
"190 554 LINE SMOOTH",
"195 576 OFFCURVE",
"184 592 OFFCURVE",
"167 595 CURVE SMOOTH",
"164 595 OFFCURVE",
"162 597 OFFCURVE",
"163 600 CURVE SMOOTH",
"168 629 OFFCURVE",
"184 651 OFFCURVE",
"212 667 CURVE SMOOTH",
"233 678 OFFCURVE",
"247 689 OFFCURVE",
"245 700 CURVE SMOOTH"
);
}
);
width = 430.19;
}
);
unicode = 201C;
},
{
glyphname = quotedblright;
lastChange = "2013-12-18 08:31:18 +0400";
layers = (
{
layerId = "9764FC2E-EF50-4B10-BB5F-6BAA27A55E88";
name = Regular;
paths = (
{
closed = 1;
nodes = (
"93 490 OFFCURVE",
"110 486 OFFCURVE",
"132 494 CURVE SMOOTH",
"187 515 OFFCURVE",
"218 554 OFFCURVE",
"232 620 CURVE SMOOTH",
"243 669 LINE SMOOTH",
"248 693 OFFCURVE",
"234 710 OFFCURVE",
"210 710 CURVE SMOOTH",
"201 710 LINE SMOOTH",
"177 710 OFFCURVE",
"157 693 OFFCURVE",
"152 669 CURVE SMOOTH",
"147 646 LINE SMOOTH",
"142 624 OFFCURVE",
"152 608 OFFCURVE",
"169 605 CURVE SMOOTH",
"172 605 OFFCURVE",
"174 603 OFFCURVE",
"173 600 CURVE SMOOTH",
"168 571 OFFCURVE",
"152 549 OFFCURVE",
"124 533 CURVE SMOOTH",
"103 522 OFFCURVE",
"89 511 OFFCURVE",
"91 500 CURVE SMOOTH"
);
},
{
closed = 1;
nodes = (
"293 490 OFFCURVE",
"310 486 OFFCURVE",
"332 494 CURVE SMOOTH",
"387 515 OFFCURVE",
"418 554 OFFCURVE",
"432 620 CURVE SMOOTH",
"443 669 LINE SMOOTH",
"448 693 OFFCURVE",
"434 710 OFFCURVE",
"410 710 CURVE SMOOTH",
"400 710 LINE SMOOTH",
"376 710 OFFCURVE",
"356 693 OFFCURVE",
"351 669 CURVE SMOOTH",
"346 646 LINE SMOOTH",
"341 624 OFFCURVE",
"352 608 OFFCURVE",
"369 605 CURVE SMOOTH",
"372 605 OFFCURVE",
"374 603 OFFCURVE",
"373 600 CURVE SMOOTH",
"368 571 OFFCURVE",
"352 549 OFFCURVE",
"324 533 CURVE SMOOTH",
"303 522 OFFCURVE",
"289 511 OFFCURVE",
"291 500 CURVE SMOOTH"
);
}
);
width = 419.008;
}
);
unicode = 201D;
},
{
glyphname = quoteleft;
lastChange = "2013-12-18 08:31:18 +0400";
layers = (
{
layerId = "9764FC2E-EF50-4B10-BB5F-6BAA27A55E88";
name = Regular;
paths = (
{
closed = 1;
nodes = (
"243 710 OFFCURVE",
"226 714 OFFCURVE",
"204 706 CURVE SMOOTH",
"149 685 OFFCURVE",
"118 646 OFFCURVE",
"104 580 CURVE SMOOTH",
"93 531 LINE SMOOTH",
"88 507 OFFCURVE",
"102 490 OFFCURVE",
"126 490 CURVE SMOOTH",
"136 490 LINE SMOOTH",
"160 490 OFFCURVE",
"180 507 OFFCURVE",
"185 531 CURVE SMOOTH",
"190 554 LINE SMOOTH",
"195 576 OFFCURVE",
"184 592 OFFCURVE",
"167 595 CURVE SMOOTH",
"164 595 OFFCURVE",
"162 597 OFFCURVE",
"163 600 CURVE SMOOTH",
"168 629 OFFCURVE",
"184 651 OFFCURVE",
"212 667 CURVE SMOOTH",
"233 678 OFFCURVE",
"247 689 OFFCURVE",
"245 700 CURVE SMOOTH"
);
}
);
width = 229.19;
}
);
unicode = 2018;
},
{
glyphname = quoteright;
lastChange = "2013-12-18 08:31:18 +0400";
layers = (
{
layerId = "9764FC2E-EF50-4B10-BB5F-6BAA27A55E88";
name = Regular;
paths = (
{
closed = 1;
nodes = (
"93 490 OFFCURVE",
"110 486 OFFCURVE",
"132 494 CURVE SMOOTH",
"187 515 OFFCURVE",
"218 554 OFFCURVE",
"232 620 CURVE SMOOTH",
"243 669 LINE SMOOTH",
"248 693 OFFCURVE",
"234 710 OFFCURVE",
"210 710 CURVE SMOOTH",
"200 710 LINE SMOOTH",
"176 710 OFFCURVE",
"156 693 OFFCURVE",
"151 669 CURVE SMOOTH",
"146 646 LINE SMOOTH",
"141 624 OFFCURVE",
"152 608 OFFCURVE",
"169 605 CURVE SMOOTH",
"172 605 OFFCURVE",
"174 603 OFFCURVE",
"173 600 CURVE SMOOTH",
"168 571 OFFCURVE",
"152 549 OFFCURVE",
"124 533 CURVE SMOOTH",
"103 522 OFFCURVE",
"89 511 OFFCURVE",
"91 500 CURVE SMOOTH"
);
}
);
width = 218.008;
}
);
unicode = 2019;
},
{
glyphname = .notdef;
lastChange = "2013-12-18 08:31:18 +0400";
layers = (
{
layerId = "9764FC2E-EF50-4B10-BB5F-6BAA27A55E88";
name = Regular;
paths = (
{
closed = 1;
nodes = (
"40 35 LINE SMOOTH",
"40 12 OFFCURVE",
"52 0 OFFCURVE",
"75 0 CURVE SMOOTH",
"509 0 LINE SMOOTH",
"532 0 OFFCURVE",
"544 12 OFFCURVE",
"544 35 CURVE SMOOTH",
"544 665 LINE SMOOTH",
"544 688 OFFCURVE",
"532 700 OFFCURVE",
"509 700 CURVE SMOOTH",
"75 700 LINE SMOOTH",
"52 700 OFFCURVE",
"40 688 OFFCURVE",
"40 665 CURVE SMOOTH"
);
},
{
closed = 1;
nodes = (
"509 670 LINE SMOOTH",
"512 670 OFFCURVE",
"514 668 OFFCURVE",
"514 665 CURVE SMOOTH",
"514 67 LINE SMOOTH",
"514 62 OFFCURVE",
"511 61 OFFCURVE",
"508 65 CURVE SMOOTH",
"92 664 LINE SMOOTH",
"90 667 OFFCURVE",
"91 670 OFFCURVE",
"95 670 CURVE SMOOTH"
);
},
{
closed = 1;
nodes = (
"70 633 LINE SMOOTH",
"70 638 OFFCURVE",
"73 639 OFFCURVE",
"76 635 CURVE SMOOTH",
"491 36 LINE SMOOTH",
"493 33 OFFCURVE",
"492 30 OFFCURVE",
"488 30 CURVE SMOOTH",
"75 30 LINE SMOOTH",
"72 30 OFFCURVE",
"70 32 OFFCURVE",
"70 35 CURVE SMOOTH"
);
}
);
width = 600;
}
);
},
{
glyphname = florin;
lastChange = "2013-12-18 08:31:18 +0400";
layers = (
{
layerId = "9764FC2E-EF50-4B10-BB5F-6BAA27A55E88";
name = Regular;
paths = (
{
closed = 1;
nodes = (
"588 646 OFFCURVE",
"584 670 OFFCURVE",
"561 675 CURVE SMOOTH",
"548 677 OFFCURVE",
"533 679 OFFCURVE",
"517 679 CURVE SMOOTH",
"408 679 OFFCURVE",
"334 612 OFFCURVE",
"297 511 CURVE SMOOTH",
"263 421 LINE SMOOTH",
"261 418 OFFCURVE",
"259 416 OFFCURVE",
"256 416 CURVE SMOOTH",
"183 416 LINE SMOOTH",
"162 416 OFFCURVE",
"143 401 OFFCURVE",
"139 381 CURVE SMOOTH",
"135 361 OFFCURVE",
"147 346 OFFCURVE",
"168 346 CURVE SMOOTH",
"228 346 LINE SMOOTH",
"231 346 OFFCURVE",
"232 344 OFFCURVE",
"231 341 CURVE SMOOTH",
"118 48 LINE SMOOTH",
"96 -8 OFFCURVE",
"61 -40 OFFCURVE",
"1 -40 CURVE SMOOTH",
"-10 -40 OFFCURVE",
"-20 -39 OFFCURVE",
"-29 -37 CURVE SMOOTH",
"-45 -33 OFFCURVE",
"-62 -40 OFFCURVE",
"-73 -58 CURVE SMOOTH",
"-87 -81 OFFCURVE",
"-83 -107 OFFCURVE",
"-59 -112 CURVE SMOOTH",
"-46 -115 OFFCURVE",
"-31 -116 OFFCURVE",
"-15 -116 CURVE SMOOTH",
"96 -116 OFFCURVE",
"167 -47 OFFCURVE",
"205 52 CURVE SMOOTH",
"316 341 LINE SMOOTH",
"317 344 OFFCURVE",
"320 346 OFFCURVE",
"323 346 CURVE SMOOTH",
"425 346 LINE SMOOTH",
"446 346 OFFCURVE",
"464 361 OFFCURVE",
"468 381 CURVE SMOOTH",
"472 401 OFFCURVE",
"461 416 OFFCURVE",
"440 416 CURVE SMOOTH",
"351 416 LINE SMOOTH",
"348 416 OFFCURVE",
"346 418 OFFCURVE",
"348 421 CURVE SMOOTH",
"383 515 LINE SMOOTH",
"404 571 OFFCURVE",
"439 602 OFFCURVE",
"504 602 CURVE SMOOTH",
"515 602 OFFCURVE",
"523 601 OFFCURVE",
"531 599 CURVE SMOOTH",
"547 595 OFFCURVE",
"564 604 OFFCURVE",
"576 624 CURVE SMOOTH"
);
}
);
width = 556;
}
);
unicode = 0192;
},
{
glyphname = cent;
lastChange = "2013-12-18 08:31:18 +0400";
layers = (
{
anchors = (
{
name = bottom;
position = "{238, 100}";
},
{
name = top;
position = "{344, 600}";
}
);
layerId = "9764FC2E-EF50-4B10-BB5F-6BAA27A55E88";
name = Regular;
paths = (
{
closed = 1;
nodes = (
"422 93 OFFCURVE",
"404 95 OFFCURVE",
"386 86 CURVE SMOOTH",
"359 72 OFFCURVE",
"330 64 OFFCURVE",
"299 61 CURVE SMOOTH",
"296 61 OFFCURVE",
"294 62 OFFCURVE",
"295 66 CURVE SMOOTH",
"377 449 LINE SMOOTH",
"378 453 OFFCURVE",
"380 454 OFFCURVE",
"383 454 CURVE SMOOTH",
"412 451 OFFCURVE",
"437 443 OFFCURVE",
"458 429 CURVE SMOOTH",
"474 420 OFFCURVE",
"492 421 OFFCURVE",
"506 436 CURVE SMOOTH",
"524 454 OFFCURVE",
"526 477 OFFCURVE",
"509 488 CURVE SMOOTH",
"478 509 OFFCURVE",
"440 521 OFFCURVE",
"398 524 CURVE SMOOTH",
"395 524 OFFCURVE",
"393 526 OFFCURVE",
"394 529 CURVE SMOOTH",
"405 584 LINE SMOOTH",
"409 602 OFFCURVE",
"401 615 OFFCURVE",
"385 615 CURVE SMOOTH",
"369 615 OFFCURVE",
"354 602 OFFCURVE",
"350 584 CURVE SMOOTH",
"338 527 LINE SMOOTH",
"338 524 OFFCURVE",
"335 522 OFFCURVE",
"332 522 CURVE SMOOTH",
"197 501 OFFCURVE",
"73 391 OFFCURVE",
"45 257 CURVE SMOOTH",
"17 124 OFFCURVE",
"93 14 OFFCURVE",
"220 -7 CURVE SMOOTH",
"223 -7 OFFCURVE",
"224 -9 OFFCURVE",
"224 -12 CURVE SMOOTH",
"212 -69 LINE SMOOTH",
"208 -87 OFFCURVE",
"217 -100 OFFCURVE",
"233 -100 CURVE SMOOTH",
"248 -100 OFFCURVE",
"263 -87 OFFCURVE",
"267 -69 CURVE SMOOTH",
"278 -14 LINE SMOOTH",
"279 -11 OFFCURVE",
"281 -9 OFFCURVE",
"284 -9 CURVE SMOOTH",
"328 -6 OFFCURVE",
"372 6 OFFCURVE",
"411 27 CURVE SMOOTH",
"432 38 OFFCURVE",
"440 61 OFFCURVE",
"431 78 CURVE SMOOTH"
);
},
{
closed = 1;
nodes = (
"135 351 OFFCURVE",
"220 431 OFFCURVE",
"316 450 CURVE SMOOTH",
"320 451 OFFCURVE",
"322 449 OFFCURVE",
"321 446 CURVE SMOOTH",
"241 69 LINE SMOOTH",
"240 66 OFFCURVE",
"238 64 OFFCURVE",
"235 65 CURVE SMOOTH",
"146 84 OFFCURVE",
"95 163 OFFCURVE",
"115 257 CURVE SMOOTH"
);
}
);
width = 507;
}
);
unicode = 00A2;
},
{
glyphname = currency;
lastChange = "2013-12-18 08:31:18 +0400";
layers = (
{
layerId = "9764FC2E-EF50-4B10-BB5F-6BAA27A55E88";
name = Regular;
paths = (
{
closed = 1;
nodes = (
"353 221 LINE",
"370 243 OFFCURVE",
"382 268 OFFCURVE",
"388 295 CURVE SMOOTH",
"390 305 LINE SMOOTH",
"396 331 OFFCURVE",
"394 356 OFFCURVE",
"387 378 CURVE",
"432 412 LINE SMOOTH",
"448 424 OFFCURVE",
"452 442 OFFCURVE",
"443 455 CURVE SMOOTH",
"434 468 OFFCURVE",
"416 469 OFFCURVE",
"401 457 CURVE SMOOTH",
"358 424 LINE",
"337 443 OFFCURVE",
"307 454 OFFCURVE",
"273 454 CURVE SMOOTH",
"239 454 OFFCURVE",
"204 442 OFFCURVE",
"175 423 CURVE",
"145 457 LINE SMOOTH",
"134 469 OFFCURVE",
"116 468 OFFCURVE",
"101 455 CURVE SMOOTH",
"86 442 OFFCURVE",
"84 424 OFFCURVE",
"94 412 CURVE SMOOTH",
"125 376 LINE",
"109 354 OFFCURVE",
"96 329 OFFCURVE",
"91 303 CURVE SMOOTH",
"89 293 LINE SMOOTH",
"83 267 OFFCURVE",
"85 242 OFFCURVE",
"91 221 CURVE",
"46 186 LINE SMOOTH",
"30 174 OFFCURVE",
"26 156 OFFCURVE",
"35 143 CURVE SMOOTH",
"44 130 OFFCURVE",
"62 129 OFFCURVE",
"77 141 CURVE SMOOTH",
"122 175 LINE",
"142 155 OFFCURVE",
"171 144 OFFCURVE",
"206 144 CURVE SMOOTH",
"240 144 OFFCURVE",
"274 156 OFFCURVE",
"304 175 CURVE",
"333 141 LINE SMOOTH",
"344 129 OFFCURVE",
"362 130 OFFCURVE",
"377 143 CURVE SMOOTH",
"392 156 OFFCURVE",
"394 174 OFFCURVE",
"384 186 CURVE SMOOTH"
);
},
{
closed = 1;
nodes = (
"198 195 OFFCURVE",
"182 201 OFFCURVE",
"169 211 CURVE SMOOTH",
"147 229 OFFCURVE",
"140 259 OFFCURVE",
"147 291 CURVE SMOOTH",
"150 305 LINE SMOOTH",
"157 335 OFFCURVE",
"173 366 OFFCURVE",
"206 386 CURVE SMOOTH",
"223 396 OFFCURVE",
"242 402 OFFCURVE",
"261 402 CURVE SMOOTH",
"280 402 OFFCURVE",
"296 396 OFFCURVE",
"308 386 CURVE SMOOTH",
"333 366 OFFCURVE",
"338 335 OFFCURVE",
"331 305 CURVE SMOOTH",
"328 291 LINE SMOOTH",
"323 267 OFFCURVE",
"306 230 OFFCURVE",
"272 211 CURVE SMOOTH",
"256 201 OFFCURVE",
"237 195 OFFCURVE",
"218 195 CURVE SMOOTH"
);
}
);
width = 479;
}
);
unicode = 00A4;
},
{
glyphname = dollar;
lastChange = "2013-12-18 08:31:18 +0400";
layers = (
{
anchors = (
{
name = bottom;
position = "{233, 0}";
},
{
name = top;
position = "{382, 700}";
}
);
layerId = "9764FC2E-EF50-4B10-BB5F-6BAA27A55E88";
name = Regular;
paths = (
{
closed = 1;
nodes = (
"545 310 OFFCURVE",
"454 357 OFFCURVE",
"339 393 CURVE SMOOTH",
"335 394 LINE SMOOTH",
"332 395 OFFCURVE",
"332 397 OFFCURVE",
"332 400 CURVE SMOOTH",
"382 631 LINE SMOOTH",
"382 634 OFFCURVE",
"385 636 OFFCURVE",
"387 635 CURVE SMOOTH",
"437 626 OFFCURVE",
"474 606 OFFCURVE",
"502 584 CURVE SMOOTH",
"514 573 OFFCURVE",
"535 576 OFFCURVE",
"549 591 CURVE SMOOTH",
"566 609 OFFCURVE",
"567 631 OFFCURVE",
"551 643 CURVE SMOOTH",
"516 670 OFFCURVE",
"465 696 OFFCURVE",
"403 706 CURVE SMOOTH",
"400 706 OFFCURVE",
"398 708 OFFCURVE",
"399 711 CURVE SMOOTH",
"405 740 LINE SMOOTH",
"409 758 OFFCURVE",
"398 771 OFFCURVE",
"380 771 CURVE SMOOTH",
"378 771 LINE SMOOTH",
"360 771 OFFCURVE",
"345 758 OFFCURVE",
"341 740 CURVE SMOOTH",
"335 715 LINE SMOOTH",
"335 711 OFFCURVE",
"332 710 OFFCURVE",
"329 710 CURVE SMOOTH",
"219 704 OFFCURVE",
"101 646 OFFCURVE",
"75 524 CURVE SMOOTH",
"50 408 OFFCURVE",
"151 372 OFFCURVE",
"252 341 CURVE SMOOTH",
"255 340 OFFCURVE",
"255 338 OFFCURVE",
"255 335 CURVE SMOOTH",
"198 68 LINE SMOOTH",
"197 65 OFFCURVE",
"195 63 OFFCURVE",
"192 64 CURVE SMOOTH",
"120 73 OFFCURVE",
"83 106 OFFCURVE",
"46 140 CURVE SMOOTH",
"32 153 OFFCURVE",
"12 149 OFFCURVE",
"-2 137 CURVE SMOOTH",
"-21 122 OFFCURVE",
"-25 99 OFFCURVE",
"-10 84 CURVE SMOOTH",
"35 40 OFFCURVE",
"90 3 OFFCURVE",
"177 -7 CURVE SMOOTH",
"180 -7 OFFCURVE",
"182 -9 OFFCURVE",
"181 -12 CURVE SMOOTH",
"169 -67 LINE SMOOTH",
"165 -85 OFFCURVE",
"176 -98 OFFCURVE",
"194 -98 CURVE SMOOTH",
"196 -98 LINE SMOOTH",
"214 -98 OFFCURVE",
"229 -85 OFFCURVE",
"233 -67 CURVE SMOOTH",
"245 -13 LINE SMOOTH",
"245 -10 OFFCURVE",
"248 -8 OFFCURVE",
"251 -8 CURVE SMOOTH",
"361 0 OFFCURVE",
"491 53 OFFCURVE",
"519 185 CURVE SMOOTH"
);
},
{
closed = 1;
nodes = (
"160 596 OFFCURVE",
"230 634 OFFCURVE",
"313 639 CURVE SMOOTH",
"318 640 OFFCURVE",
"319 638 OFFCURVE",
"318 635 CURVE SMOOTH",
"273 419 LINE SMOOTH",
"272 415 OFFCURVE",
"269 414 OFFCURVE",
"266 415 CURVE SMOOTH",
"186 439 OFFCURVE",
"132 463 OFFCURVE",
"145 524 CURVE"
);
},
{
closed = 1;
nodes = (
"315 316 LINE SMOOTH",
"315 319 OFFCURVE",
"318 321 OFFCURVE",
"321 320 CURVE SMOOTH",
"426 286 OFFCURVE",
"463 253 OFFCURVE",
"449 185 CURVE SMOOTH",
"432 106 OFFCURVE",
"351 69 OFFCURVE",
"266 62 CURVE SMOOTH",
"263 62 OFFCURVE",
"261 64 OFFCURVE",
"262 67 CURVE SMOOTH"
);
}
);
width = 589;
}
);
unicode = 0024;
},
{
glyphname = euro;
lastChange = "2013-12-18 08:31:18 +0400";
layers = (
{
layerId = "9764FC2E-EF50-4B10-BB5F-6BAA27A55E88";
name = Regular;
paths = (
{
closed = 1;
nodes = (
"137 385 OFFCURVE",
"133 367 OFFCURVE",
"129 349 CURVE SMOOTH",
"126 334 OFFCURVE",
"123 320 OFFCURVE",
"120 305 CURVE SMOOTH",
"121 302 OFFCURVE",
"118 300 OFFCURVE",
"115 300 CURVE SMOOTH",
"70 300 LINE SMOOTH",
"52 300 OFFCURVE",
"37 287 OFFCURVE",
"33 269 CURVE SMOOTH",
"33 268 LINE SMOOTH",
"29 250 OFFCURVE",
"39 237 OFFCURVE",
"57 237 CURVE SMOOTH",
"113 237 LINE SMOOTH",
"116 237 OFFCURVE",
"117 236 OFFCURVE",
"117 233 CURVE SMOOTH",
"122 87 OFFCURVE",
"206 -12 OFFCURVE",
"347 -12 CURVE SMOOTH",
"449 -12 OFFCURVE",
"526 39 OFFCURVE",
"594 109 CURVE SMOOTH",
"607 124 OFFCURVE",
"608 141 OFFCURVE",
"596 152 CURVE SMOOTH",
"589 157 LINE SMOOTH",
"576 167 OFFCURVE",
"558 164 OFFCURVE",
"544 150 CURVE SMOOTH",
"490 94 OFFCURVE",
"434 59 OFFCURVE",
"365 59 CURVE SMOOTH",
"268 59 OFFCURVE",
"208 128 OFFCURVE",
"200 231 CURVE SMOOTH",
"200 235 OFFCURVE",
"201 237 OFFCURVE",
"205 237 CURVE SMOOTH",
"427 237 LINE SMOOTH",
"445 237 OFFCURVE",
"461 250 OFFCURVE",
"465 268 CURVE SMOOTH",
"465 269 LINE SMOOTH",
"469 287 OFFCURVE",
"458 300 OFFCURVE",
"440 300 CURVE SMOOTH",
"204 300 LINE SMOOTH",
"201 300 OFFCURVE",
"200 302 OFFCURVE",
"200 305 CURVE SMOOTH",
"203 320 OFFCURVE",
"205 335 OFFCURVE",
"208 351 CURVE SMOOTH",
"212 368 OFFCURVE",
"217 387 OFFCURVE",
"222 403 CURVE SMOOTH",
"224 406 OFFCURVE",
"226 408 OFFCURVE",
"229 408 CURVE SMOOTH",
"463 408 LINE SMOOTH",
"481 408 OFFCURVE",
"497 421 OFFCURVE",
"501 439 CURVE SMOOTH",
"505 457 OFFCURVE",
"495 470 OFFCURVE",
"477 470 CURVE SMOOTH",
"257 470 LINE SMOOTH",
"253 470 OFFCURVE",
"252 472 OFFCURVE",
"254 476 CURVE SMOOTH",
"307 574 OFFCURVE",
"391 641 OFFCURVE",
"478 641 CURVE SMOOTH",
"553 641 OFFCURVE",
"593 611 OFFCURVE",
"626 556 CURVE SMOOTH",
"634 542 OFFCURVE",
"650 539 OFFCURVE",
"666 549 CURVE SMOOTH",
"679 557 LINE SMOOTH",
"696 568 OFFCURVE",
"703 586 OFFCURVE",
"695 600 CURVE SMOOTH",
"658 666 OFFCURVE",
"601 712 OFFCURVE",
"496 712 CURVE SMOOTH",
"362 712 OFFCURVE",
"240 612 OFFCURVE",
"171 474 CURVE SMOOTH",
"170 471 OFFCURVE",
"169 470 OFFCURVE",
"166 470 CURVE SMOOTH",
"107 470 LINE SMOOTH",
"89 470 OFFCURVE",
"73 457 OFFCURVE",
"69 439 CURVE SMOOTH",
"65 421 OFFCURVE",
"75 408 OFFCURVE",
"93 408 CURVE SMOOTH",
"140 408 LINE SMOOTH",
"143 408 OFFCURVE",
"145 406 OFFCURVE",
"143 403 CURVE SMOOTH"
);
}
);
width = 700.888;
}
);
unicode = 20AC;
},
{
glyphname = sterling;
lastChange = "2013-12-18 08:31:18 +0400";
layers = (
{
layerId = "9764FC2E-EF50-4B10-BB5F-6BAA27A55E88";
name = Regular;
paths = (
{
closed = 1;
nodes = (
"61 364 LINE SMOOTH",
"43 364 OFFCURVE",
"27 351 OFFCURVE",
"23 333 CURVE SMOOTH",
"22 326 LINE SMOOTH",
"18 308 OFFCURVE",
"28 295 OFFCURVE",
"46 295 CURVE SMOOTH",
"94 295 LINE SMOOTH",
"97 295 OFFCURVE",
"99 293 OFFCURVE",
"98 290 CURVE SMOOTH",
"52 71 LINE SMOOTH",
"51 68 OFFCURVE",
"50 67 OFFCURVE",
"47 66 CURVE SMOOTH",
"-19 50 LINE SMOOTH",
"-30 48 OFFCURVE",
"-39 39 OFFCURVE",
"-42 27 CURVE SMOOTH",
"-43 23 LINE SMOOTH",
"-45 10 OFFCURVE",
"-36 0 OFFCURVE",
"-22 0 CURVE SMOOTH",
"440 0 LINE SMOOTH",
"458 0 OFFCURVE",
"473 13 OFFCURVE",
"477 31 CURVE SMOOTH",
"479 39 LINE SMOOTH",
"483 57 OFFCURVE",
"472 70 OFFCURVE",
"454 70 CURVE SMOOTH",
"135 70 LINE SMOOTH",
"132 70 OFFCURVE",
"131 72 OFFCURVE",
"131 75 CURVE SMOOTH",
"177 290 LINE SMOOTH",
"178 293 OFFCURVE",
"180 295 OFFCURVE",
"183 295 CURVE SMOOTH",
"426 295 LINE SMOOTH",
"444 295 OFFCURVE",
"460 308 OFFCURVE",
"464 326 CURVE SMOOTH",
"465 333 LINE SMOOTH",
"469 351 OFFCURVE",
"459 364 OFFCURVE",
"441 364 CURVE SMOOTH",
"198 364 LINE SMOOTH",
"195 364 OFFCURVE",
"193 366 OFFCURVE",
"194 369 CURVE SMOOTH",
"216 472 LINE SMOOTH",
"237 573 OFFCURVE",
"302 637 OFFCURVE",
"392 637 CURVE SMOOTH",
"450 637 OFFCURVE",
"483 616 OFFCURVE",
"509 582 CURVE SMOOTH",
"522 566 OFFCURVE",
"542 563 OFFCURVE",
"563 577 CURVE SMOOTH",
"564 578 LINE SMOOTH",
"584 592 OFFCURVE",
"592 617 OFFCURVE",
"578 634 CURVE SMOOTH",
"545 679 OFFCURVE",
"494 710 OFFCURVE",
"408 710 CURVE SMOOTH",
"268 710 OFFCURVE",
"167 614 OFFCURVE",
"137 472 CURVE SMOOTH",
"115 369 LINE SMOOTH",
"114 366 OFFCURVE",
"112 364 OFFCURVE",
"109 364 CURVE SMOOTH"
);
}
);
width = 562;
}
);
unicode = 00A3;
},
{
glyphname = yen;
lastChange = "2013-12-18 08:31:18 +0400";
layers = (
{
anchors = (
{
name = top;
position = "{376, 700}";
}
);
layerId = "9764FC2E-EF50-4B10-BB5F-6BAA27A55E88";
name = Regular;
paths = (
{
closed = 1;
nodes = (
"613 694 OFFCURVE",
"588 690 OFFCURVE",
"570 671 CURVE SMOOTH",
"320 406 LINE",
"315 400 OFFCURVE",
"309 400 OFFCURVE",
"306 406 CURVE",
"168 672 LINE SMOOTH",
"157 690 OFFCURVE",
"135 694 OFFCURVE",
"114 681 CURVE",
"92 667 OFFCURVE",
"82 643 OFFCURVE",
"92 624 CURVE SMOOTH",
"226 367 LINE SMOOTH",
"229 362 OFFCURVE",
"226 358 OFFCURVE",
"220 358 CURVE SMOOTH",
"101 358 LINE SMOOTH",
"83 358 OFFCURVE",
"67 344 OFFCURVE",
"63 327 CURVE SMOOTH",
"59 309 OFFCURVE",
"69 294 OFFCURVE",
"87 294 CURVE SMOOTH",
"242 294 LINE SMOOTH",
"247 294 OFFCURVE",
"249 292 OFFCURVE",
"248 287 CURVE SMOOTH",
"228 195 LINE SMOOTH",
"227 190 OFFCURVE",
"225 188 OFFCURVE",
"220 188 CURVE SMOOTH",
"65 188 LINE SMOOTH",
"47 188 OFFCURVE",
"31 174 OFFCURVE",
"27 157 CURVE SMOOTH",
"23 139 OFFCURVE",
"33 124 OFFCURVE",
"51 124 CURVE SMOOTH",
"206 124 LINE SMOOTH",
"211 124 OFFCURVE",
"213 122 OFFCURVE",
"212 117 CURVE SMOOTH",
"196 41 LINE SMOOTH",
"190 17 OFFCURVE",
"204 0 OFFCURVE",
"227 0 CURVE SMOOTH",
"250 0 OFFCURVE",
"270 17 OFFCURVE",
"276 41 CURVE SMOOTH",
"292 117 LINE SMOOTH",
"293 122 OFFCURVE",
"295 124 OFFCURVE",
"300 124 CURVE SMOOTH",
"454 124 LINE SMOOTH",
"472 124 OFFCURVE",
"488 138 OFFCURVE",
"492 155 CURVE SMOOTH",
"496 173 OFFCURVE",
"486 188 OFFCURVE",
"468 188 CURVE SMOOTH",
"314 188 LINE SMOOTH",
"309 188 OFFCURVE",
"307 190 OFFCURVE",
"308 195 CURVE SMOOTH",
"328 287 LINE SMOOTH",
"329 292 OFFCURVE",
"331 294 OFFCURVE",
"336 294 CURVE SMOOTH",
"490 294 LINE SMOOTH",
"508 294 OFFCURVE",
"524 308 OFFCURVE",
"528 325 CURVE SMOOTH",
"532 343 OFFCURVE",
"522 358 OFFCURVE",
"504 358 CURVE SMOOTH",
"385 358 LINE SMOOTH",
"379 358 OFFCURVE",
"378 362 OFFCURVE",
"382 367 CURVE SMOOTH",
"626 625 LINE SMOOTH",
"643 643 OFFCURVE",
"646 667 OFFCURVE",
"630 681 CURVE"
);
}
);
width = 601;
}
);
unicode = 00A5;
},
{
glyphname = Ohm;
lastChange = "2013-12-18 08:31:18 +0400";
layers = (
{
layerId = "9764FC2E-EF50-4B10-BB5F-6BAA27A55E88";
name = Regular;
paths = (
{
closed = 1;
nodes = (
"225 678 OFFCURVE",
"94 561 OFFCURVE",
"60 400 CURVE SMOOTH",
"27 246 OFFCURVE",
"76 151 OFFCURVE",
"121 68 CURVE",
"15 68 LINE SMOOTH",
"-6 68 OFFCURVE",
"-23 55 OFFCURVE",
"-27 36 CURVE SMOOTH",
"-32 15 OFFCURVE",
"-20 0 OFFCURVE",
"1 0 CURVE SMOOTH",
"153 0 LINE SMOOTH",
"174 0 OFFCURVE",
"192 15 OFFCURVE",
"197 36 CURVE SMOOTH",
"200 54 LINE SMOOTH",
"202 61 OFFCURVE",
"201 67 OFFCURVE",
"198 72 CURVE SMOOTH",
"125 195 OFFCURVE",
"104 278 OFFCURVE",
"129 396 CURVE SMOOTH",
"156 523 OFFCURVE",
"250 612 OFFCURVE",
"369 612 CURVE SMOOTH",
"487 612 OFFCURVE",
"544 523 OFFCURVE",
"517 396 CURVE SMOOTH",
"492 278 OFFCURVE",
"434 195 OFFCURVE",
"309 72 CURVE SMOOTH",
"304 67 OFFCURVE",
"301 61 OFFCURVE",
"299 54 CURVE SMOOTH",
"296 36 LINE SMOOTH",
"291 15 OFFCURVE",
"303 0 OFFCURVE",
"324 0 CURVE SMOOTH",
"477 0 LINE SMOOTH",
"498 0 OFFCURVE",
"516 13 OFFCURVE",
"520 32 CURVE SMOOTH",
"524 53 OFFCURVE",
"512 68 OFFCURVE",
"491 68 CURVE SMOOTH",
"385 68 LINE",
"462 147 OFFCURVE",
"555 246 OFFCURVE",
"588 398 CURVE SMOOTH",
"622 561 OFFCURVE",
"540 678 OFFCURVE",
"383 678 CURVE SMOOTH"
);
}
);
width = 600;
}
);
unicode = 2126;
},
{
glyphname = approxequal;
lastChange = "2013-12-18 08:31:18 +0400";
layers = (
{
layerId = "9764FC2E-EF50-4B10-BB5F-6BAA27A55E88";
name = Regular;
paths = (
{
closed = 1;
nodes = (
"28 163 OFFCURVE",
"39 164 OFFCURVE",
"53 174 CURVE SMOOTH",
"82 193 OFFCURVE",
"114 207 OFFCURVE",
"148 207 CURVE SMOOTH",
"182 207 OFFCURVE",
"211 195 OFFCURVE",
"254 174 CURVE SMOOTH",
"300 153 OFFCURVE",
"327 140 OFFCURVE",
"364 140 CURVE SMOOTH",
"419 140 OFFCURVE",
"468 177 OFFCURVE",
"503 212 CURVE SMOOTH",
"516 224 OFFCURVE",
"517 235 OFFCURVE",
"509 245 CURVE SMOOTH",
"501 256 OFFCURVE",
"489 256 OFFCURVE",
"475 246 CURVE SMOOTH",
"445 226 OFFCURVE",
"414 213 OFFCURVE",
"380 213 CURVE SMOOTH",
"346 213 OFFCURVE",
"317 225 OFFCURVE",
"274 246 CURVE SMOOTH",
"228 267 OFFCURVE",
"201 280 OFFCURVE",
"164 280 CURVE SMOOTH",
"109 280 OFFCURVE",
"60 243 OFFCURVE",
"24 209 CURVE SMOOTH",
"12 196 OFFCURVE",
"11 185 OFFCURVE",
"19 174 CURVE SMOOTH"
);
},
{
closed = 1;
nodes = (
"67 352 OFFCURVE",
"79 352 OFFCURVE",
"93 362 CURVE SMOOTH",
"122 382 OFFCURVE",
"154 396 OFFCURVE",
"188 396 CURVE SMOOTH",
"222 396 OFFCURVE",
"251 383 OFFCURVE",
"294 363 CURVE SMOOTH",
"340 342 OFFCURVE",
"367 329 OFFCURVE",
"404 329 CURVE SMOOTH",
"459 329 OFFCURVE",
"508 365 OFFCURVE",
"543 400 CURVE SMOOTH",
"556 412 OFFCURVE",
"557 423 OFFCURVE",
"549 433 CURVE SMOOTH",
"541 445 OFFCURVE",
"529 445 OFFCURVE",
"515 435 CURVE SMOOTH",
"485 414 OFFCURVE",
"454 401 OFFCURVE",
"420 401 CURVE SMOOTH",
"386 401 OFFCURVE",
"357 414 OFFCURVE",
"314 435 CURVE SMOOTH",
"268 456 OFFCURVE",
"241 469 OFFCURVE",
"204 469 CURVE SMOOTH",
"149 469 OFFCURVE",
"100 432 OFFCURVE",
"65 398 CURVE SMOOTH",
"52 386 OFFCURVE",
"51 374 OFFCURVE",
"58 363 CURVE SMOOTH"
);
}
);
width = 565;
}
);
unicode = 2248;
},
{
glyphname = asciitilde;
lastChange = "2013-12-18 08:31:18 +0400";
layers = (
{
layerId = "9764FC2E-EF50-4B10-BB5F-6BAA27A55E88";
name = Regular;
paths = (
{
closed = 1;
nodes = (
"58 258 OFFCURVE",
"70 260 OFFCURVE",
"88 271 CURVE SMOOTH",
"116 289 OFFCURVE",
"146 302 OFFCURVE",
"178 302 CURVE SMOOTH",
"212 302 OFFCURVE",
"241 290 OFFCURVE",
"284 269 CURVE SMOOTH",
"330 248 OFFCURVE",
"357 235 OFFCURVE",
"394 235 CURVE SMOOTH",
"447 235 OFFCURVE",
"494 269 OFFCURVE",
"530 303 CURVE SMOOTH",
"545 317 OFFCURVE",
"548 329 OFFCURVE",
"542 337 CURVE SMOOTH",
"532 350 OFFCURVE",
"518 350 OFFCURVE",
"500 338 CURVE SMOOTH",
"472 320 OFFCURVE",
"442 308 OFFCURVE",
"410 308 CURVE SMOOTH",
"376 308 OFFCURVE",
"347 320 OFFCURVE",
"304 341 CURVE SMOOTH",
"258 362 OFFCURVE",
"231 375 OFFCURVE",
"194 375 CURVE SMOOTH",
"141 375 OFFCURVE",
"94 341 OFFCURVE",
"58 307 CURVE SMOOTH",
"42 293 OFFCURVE",
"41 280 OFFCURVE",
"49 269 CURVE SMOOTH"
);
}
);
width = 587;
}
);
unicode = 007E;
},
{
glyphname = bulletoperator;
lastChange = "2013-12-22 07:33:10 +0400";
layers = (
{
layerId = "9764FC2E-EF50-4B10-BB5F-6BAA27A55E88";
name = Regular;
paths = (
{
closed = 1;
nodes = (
"131 248 OFFCURVE",
"155 272 OFFCURVE",
"155 301 CURVE SMOOTH",
"155 329 OFFCURVE",
"131 353 OFFCURVE",
"103 353 CURVE SMOOTH",
"74 353 OFFCURVE",
"50 329 OFFCURVE",
"50 301 CURVE SMOOTH",
"50 272 OFFCURVE",
"74 248 OFFCURVE",
"103 248 CURVE SMOOTH"
);
}
);
width = 205;
}
);
unicode = 2219;
},
{
glyphname = divide;
lastChange = "2013-12-18 08:31:18 +0400";
layers = (
{
layerId = "9764FC2E-EF50-4B10-BB5F-6BAA27A55E88";
name = Regular;
paths = (
{
closed = 1;
nodes = (
"48 269 OFFCURVE",
"61 253 OFFCURVE",
"85 253 CURVE SMOOTH",
"581 253 LINE SMOOTH",
"605 253 OFFCURVE",
"626 269 OFFCURVE",
"631 291 CURVE SMOOTH",
"635 313 OFFCURVE",
"622 329 OFFCURVE",
"598 329 CURVE SMOOTH",
"102 329 LINE SMOOTH",
"78 329 OFFCURVE",
"57 313 OFFCURVE",
"53 291 CURVE SMOOTH"
);
},
{
closed = 1;
nodes = (
"427 476 LINE SMOOTH",
"432 500 OFFCURVE",
"419 517 OFFCURVE",
"395 517 CURVE SMOOTH",
"385 517 LINE SMOOTH",
"361 517 OFFCURVE",
"340 500 OFFCURVE",
"335 476 CURVE SMOOTH",
"330 453 LINE SMOOTH",
"325 429 OFFCURVE",
"338 412 OFFCURVE",
"362 412 CURVE SMOOTH",
"372 412 LINE SMOOTH",
"396 412 OFFCURVE",
"417 429 OFFCURVE",
"422 453 CURVE SMOOTH"
);
},
{
closed = 1;
nodes = (
"352 124 LINE SMOOTH",
"357 148 OFFCURVE",
"344 165 OFFCURVE",
"320 165 CURVE SMOOTH",
"310 165 LINE SMOOTH",
"286 165 OFFCURVE",
"265 148 OFFCURVE",
"260 124 CURVE SMOOTH",
"255 101 LINE SMOOTH",
"250 77 OFFCURVE",
"263 60 OFFCURVE",
"287 60 CURVE SMOOTH",
"297 60 LINE SMOOTH",
"321 60 OFFCURVE",
"342 77 OFFCURVE",
"347 101 CURVE SMOOTH"
);
}
);
width = 682;
}
);
unicode = 00F7;
},
{
glyphname = divisionslash;
lastChange = "2013-12-22 08:07:20 +0400";
layers = (
{
layerId = "9764FC2E-EF50-4B10-BB5F-6BAA27A55E88";
name = Regular;
paths = (
{
closed = 1;
nodes = (
"-30 -96 LINE SMOOTH",
"-41 -114 OFFCURVE",
"-33 -126 OFFCURVE",
"-14 -126 CURVE SMOOTH",
"4 -126 LINE SMOOTH",
"18 -126 OFFCURVE",
"27 -120 OFFCURVE",
"34 -108 CURVE SMOOTH",
"553 770 LINE SMOOTH",
"564 788 OFFCURVE",
"556 800 OFFCURVE",
"537 800 CURVE SMOOTH",
"519 800 LINE SMOOTH",
"505 800 OFFCURVE",
"496 794 OFFCURVE",
"489 782 CURVE SMOOTH"
);
}
);
width = 522.693;
}
);
unicode = 2215;
},
{
glyphname = emptyset;
lastChange = "2013-12-18 08:31:18 +0400";
layers = (
{
anchors = (
{
name = top;
position = "{379, 515}";
}
);
layerId = "9764FC2E-EF50-4B10-BB5F-6BAA27A55E88";
name = Regular;
paths = (
{
closed = 1;
nodes = (
"543 528 OFFCURVE",
"522 528 OFFCURVE",
"507 513 CURVE SMOOTH",
"469 476 LINE SMOOTH",
"467 473 OFFCURVE",
"464 473 OFFCURVE",
"462 475 CURVE SMOOTH",
"424 507 OFFCURVE",
"375 525 OFFCURVE",
"321 525 CURVE SMOOTH",
"182 525 OFFCURVE",
"57 405 OFFCURVE",
"42 257 CURVE SMOOTH",
"35 196 OFFCURVE",
"48 141 OFFCURVE",
"75 96 CURVE SMOOTH",
"76 94 OFFCURVE",
"76 91 OFFCURVE",
"74 89 CURVE SMOOTH",
"35 50.9999 LINE SMOOTH",
"20 35.9999 OFFCURVE",
"20 15.9999 OFFCURVE",
"34 0.999902 CURVE SMOOTH",
"48 -14 OFFCURVE",
"69 -14 OFFCURVE",
"84 0.999902 CURVE SMOOTH",
"120 36 LINE SMOOTH",
"122 38 OFFCURVE",
"125 39 OFFCURVE",
"127 37 CURVE SMOOTH",
"164 7 OFFCURVE",
"211 -10 OFFCURVE",
"264 -10 CURVE SMOOTH",
"403 -10 OFFCURVE",
"529 109 OFFCURVE",
"545 257 CURVE SMOOTH",
"551 316 OFFCURVE",
"539 371 OFFCURVE",
"513 415 CURVE SMOOTH",
"511 417 OFFCURVE",
"512 420 OFFCURVE",
"514 422 CURVE SMOOTH",
"556 463 LINE SMOOTH",
"571 478 OFFCURVE",
"571 498 OFFCURVE",
"557 513 CURVE SMOOTH"
);
},
{
closed = 1;
nodes = (
"123 367 OFFCURVE",
"214 455 OFFCURVE",
"313 455 CURVE SMOOTH",
"349 455 OFFCURVE",
"381 443 OFFCURVE",
"408 423 CURVE SMOOTH",
"411 421 OFFCURVE",
"411 419 OFFCURVE",
"408 416 CURVE SMOOTH",
"136 150 LINE SMOOTH",
"133 147 OFFCURVE",
"131 148 OFFCURVE",
"129 151 CURVE SMOOTH",
"114 181 OFFCURVE",
"108 218 OFFCURVE",
"112 257 CURVE SMOOTH"
);
},
{
closed = 1;
nodes = (
"463 147 OFFCURVE",
"371 59.9999 OFFCURVE",
"272 59.9999 CURVE SMOOTH",
"238 60 OFFCURVE",
"207 70 OFFCURVE",
"181 89 CURVE SMOOTH",
"178 91 OFFCURVE",
"178 93 OFFCURVE",
"181 96 CURVE SMOOTH",
"452 361 LINE SMOOTH",
"454 364 OFFCURVE",
"457 363 OFFCURVE",
"459 360 CURVE SMOOTH",
"473 330 OFFCURVE",
"479 295 OFFCURVE",
"475 257 CURVE SMOOTH"
);
}
);
width = 591;
}
);
unicode = 2205;
},
